%FSTAX23Y23*%
%MOIN*%
%SFA1B1*%

%IPPOS*%
%ADD168C,0.078740*%
%ADD169C,0.078740*%
%ADD170C,0.078740*%
%ADD171C,0.078740*%
%ADD172C,0.028000*%
%ADD173C,0.028000*%
%ADD174C,0.020000*%
%ADD175C,0.040157*%
%ADD176C,0.027559*%
%ADD177C,0.031496*%
%ADD178C,0.040000*%
%ADD179C,0.040000*%
%ADD180C,0.040000*%
%ADD181C,0.078740*%
%ADD182C,0.012000*%
%ADD183C,0.007874*%
%ADD184C,0.011811*%
%ADD185C,0.010000*%
%ADD186C,0.018000*%
%LNflexnodepcb_pth_drill-1*%
%LPD*%
G54D168*
X011Y0051D03*
G54D169*
X0052Y0051D03*
G54D170*
X01295Y0051D03*
G54D171*
X00705Y0051D03*
G54D172*
X0096Y0207D03*
G54D173*
X01035Y0207D03*
G54D174*
X00792Y0175D03*
G54D175*
X01681Y01748D03*
X0161Y01819D03*
X0154Y0189D03*
X01469Y0196D03*
X01398Y02031D03*
G54D176*
X01091Y01833D03*
X00766D03*
X00441D03*
X01248D03*
X00923D03*
X00598D03*
X00845D03*
X0117D03*
X0052D03*
G54D177*
X00301Y01766D03*
Y02003D03*
Y01845D03*
Y01924D03*
G54D178*
X01705Y0155D03*
G54D179*
X01705Y0165D03*
G54D180*
X01705Y0145D03*
G54D181*
X00905Y0061D03*
X0034Y00605D03*
X0148D03*
G54D182*
X00213Y01702D03*
Y01798D03*
X00452Y01772D03*
Y0175D03*
Y01727D03*
X00435Y01737D03*
X01087Y01717D03*
X00162Y0198D03*
X00435Y01762D03*
X00185Y01642D03*
X00212Y0159D03*
X00167D03*
X00095Y01798D03*
X00096Y01702D03*
X0026Y0158D03*
X0141Y0142D03*
X01408Y0145D03*
X01377Y01868D03*
X01407D03*
X0079Y0108D03*
X0078Y01057D03*
X00461Y01352D03*
X01505Y01248D03*
X0153D03*
X0167Y01198D03*
X01556Y01248D03*
X01646Y00912D03*
X01531Y01223D03*
X01507Y01176D03*
X01556Y01196D03*
X00816Y01164D03*
X00859Y01175D03*
X01645Y0102D03*
X0167D03*
X01617D03*
X01547Y01317D03*
X01298Y01236D03*
Y01208D03*
X01719Y01007D03*
X01094Y00985D03*
X0094Y01296D03*
X00939Y01255D03*
X01008Y01211D03*
X00955Y0122D03*
X01074Y00985D03*
X01054D03*
X01308Y00983D03*
X01288D03*
X01719Y00967D03*
X01308Y00963D03*
X01288D03*
X01248Y00983D03*
X01268D03*
X01228D03*
X01268Y00963D03*
X01248D03*
X01718Y00887D03*
Y00847D03*
Y00927D03*
Y00807D03*
X01676Y0079D03*
X01651D03*
X01626Y00791D03*
X01329Y00963D03*
X01034Y00985D03*
X01188Y00983D03*
X01014Y00985D03*
X01208Y00983D03*
X01014Y00965D03*
X00994D03*
X00974Y00985D03*
X00994D03*
X00954D03*
X00974Y00965D03*
X01094D03*
X01188Y00963D03*
X01074Y00965D03*
X01228Y00963D03*
X01208D03*
X01034Y00965D03*
X01054D03*
X00954Y00964D03*
X00254Y01267D03*
X00214Y01268D03*
X00294Y01267D03*
X00179Y01047D03*
X00174Y01268D03*
X00128Y01269D03*
X00085Y01265D03*
X00084Y01221D03*
Y01181D03*
X00083Y01101D03*
Y01141D03*
X00146Y01047D03*
X00083Y01021D03*
Y01061D03*
X00335Y00987D03*
X00315D03*
X00255D03*
X00295D03*
X00275D03*
X00355D03*
X00375D03*
X00315Y00967D03*
X00355D03*
X00375D03*
X00335D03*
X00255D03*
X00275D03*
X00228Y00978D03*
X00295Y00967D03*
X00177Y00978D03*
X00205D03*
X00147D03*
X00164Y00913D03*
X00185D03*
X00139D03*
X00114Y00991D03*
X00113Y00962D03*
X00082Y00976D03*
Y00936D03*
X00165Y00739D03*
X00141D03*
X00187Y00738D03*
X00114D03*
X00082Y00896D03*
X00081Y00816D03*
Y00856D03*
Y00736D03*
Y00776D03*
X01261Y01931D03*
X01623Y01563D03*
X01599Y01462D03*
X01602Y01426D03*
X01627Y01589D03*
X01604Y01591D03*
X01346Y01422D03*
X01164Y01707D03*
X01139Y01718D03*
X01129Y01686D03*
X00546Y01588D03*
X00578D03*
X00672Y0174D03*
X00695Y0177D03*
X00722Y01745D03*
X01645Y01392D03*
X01452Y01497D03*
X00837Y01612D03*
X00615Y01622D03*
X00628Y0203D03*
X00662Y0204D03*
X00568Y01885D03*
X00537Y01905D03*
X00675Y01605D03*
X01335Y0171D03*
X0137Y01675D03*
X013D03*
X01405Y0164D03*
X01335D03*
X0137Y01605D03*
X01265Y0164D03*
X013Y01605D03*
X01335Y0157D03*
X0105Y0163D03*
X00905Y01537D03*
X00877Y01575D03*
X0116Y00675D03*
X00785Y01979D03*
X00855Y01965D03*
X00538Y01966D03*
X00566Y01966D03*
X0069Y0191D03*
X00512Y01966D03*
X00154Y01905D03*
X01403Y01482D03*
X01512Y01489D03*
X0064Y01598D03*
X00705Y01605D03*
X01175Y0064D03*
X0075Y01924D03*
X01611Y0172D03*
X00411Y01966D03*
X00985Y01772D03*
X00923Y01765D03*
X00955D03*
X0087D03*
X01163Y01631D03*
X00568Y02021D03*
X00538D03*
X00672Y0193D03*
X00677Y01958D03*
X01202Y01882D03*
X01269Y0188D03*
X00791Y02016D03*
X00666Y01989D03*
X0106Y01472D03*
X00547Y01555D03*
X01405Y01815D03*
X01509Y0157D03*
X0149Y0159D03*
X01325Y01813D03*
X00605Y01577D03*
X01095Y01495D03*
X01345Y018D03*
X01145Y01185D03*
X01517Y01645D03*
X0151Y0175D03*
X01365Y0195D03*
X0159Y01097D03*
X01205Y01755D03*
X01008Y01628D03*
X01321Y0186D03*
X01342Y0185D03*
X0138Y0182D03*
X01464Y0179D03*
X01485Y0177D03*
X01492Y0155D03*
X01015Y0189D03*
G54D183*
X004Y01549D03*
Y01506D03*
X00357Y01549D03*
Y01506D03*
X00314Y01549D03*
Y01506D03*
G54D184*
X01282Y01387D03*
X0131D03*
X01273Y01181D03*
X01227Y01387D03*
X01255D03*
X01199Y01387D03*
X01212Y01246D03*
Y01216D03*
X01232Y01181D03*
X0119D03*
X0121Y01165D03*
X01251D03*
X01144Y01387D03*
X01185Y01246D03*
X01081Y01387D03*
X01115D03*
X01185Y01216D03*
X00705Y0145D03*
Y01405D03*
X00665Y0149D03*
Y0145D03*
X01055Y01255D03*
X00973Y01179D03*
X00665Y01365D03*
X01007Y01179D03*
X01025Y01165D03*
X00954Y01166D03*
X0099Y01165D03*
X00837Y01164D03*
X00856Y01151D03*
X00806Y01142D03*
X0083D03*
X00862Y0113D03*
X01277Y01106D03*
X0121D03*
X01078D03*
X0124D03*
X01096Y01088D03*
X01061D03*
X01498Y01068D03*
X01513Y01089D03*
X01224Y01088D03*
X01257D03*
X01007Y01106D03*
X01043D03*
X00862D03*
X00972D03*
X0099Y01088D03*
X01025D03*
X00954D03*
X00801Y01059D03*
X00673Y01064D03*
X0062Y01405D03*
X00665D03*
X0062Y0149D03*
Y0145D03*
Y01365D03*
X0058Y0145D03*
Y01405D03*
X00127Y01234D03*
X00171D03*
X00257D03*
X00301D03*
X00214D03*
X00385Y01161D03*
X00651Y01072D03*
X0037Y01098D03*
X00368Y01179D03*
X00332D03*
X0035Y01161D03*
X00348Y01088D03*
X00324Y01098D03*
X00316Y01161D03*
X00236Y01222D03*
X00279D03*
X00238Y01098D03*
X00192Y01222D03*
X00149D03*
X00194Y01098D03*
X00151D03*
X00281D03*
X00259Y01088D03*
X00173Y0109D03*
X00216Y01088D03*
X00303D03*
X00187Y00685D03*
X00185Y00858D03*
X00161D03*
X00129Y01088D03*
X00137Y00858D03*
X00163Y00685D03*
X00137D03*
X01514Y01147D03*
X01496D03*
X01623Y00911D03*
X01671D03*
X01679Y00709D03*
X01651D03*
X01623D03*
X01625Y01222D03*
X01504Y01223D03*
X0068Y01084D03*
X00691Y0105D03*
X00702Y01084D03*
X00708Y01064D03*
X00702Y01023D03*
X00595Y0128D03*
X01569Y01115D03*
X0163Y0127D03*
G54D185*
X00561Y01227D03*
X00537D03*
X00513D03*
G54D186*
X00838Y01362D03*
X00781Y01306D03*
M02*