%FSTAX23Y23*%
%MOIN*%
%SFA1B1*%

%IPPOS*%
%AMD109*
4,1,8,0.008100,-0.026900,0.008100,0.026900,0.006100,0.028900,-0.006100,0.028900,-0.008100,0.026900,-0.008100,-0.026900,-0.006100,-0.028900,0.006100,-0.028900,0.008100,-0.026900,0.0*
1,1,0.004035,0.006100,-0.026900*
1,1,0.004035,0.006100,0.026900*
1,1,0.004035,-0.006100,0.026900*
1,1,0.004035,-0.006100,-0.026900*
%
%ADD108R,0.062990X0.035430*%
G04~CAMADD=109~8~0.0~0.0~578.7~161.4~20.2~0.0~15~0.0~0.0~0.0~0.0~0~0.0~0.0~0.0~0.0~0~0.0~0.0~0.0~270.0~162.0~579.0*
%ADD109D109*%
%ADD110R,0.026000X0.030000*%
%LNflexnodepcb_paste_bot-1*%
%LPD*%
G54D108*
X01377Y01127D03*
X01204D03*
X00944D03*
X0129Y01127D03*
X01118Y01127D03*
X01031D03*
X00527D03*
X0044D03*
X00614D03*
X00354D03*
X00267D03*
X00181D03*
X01377Y01013D03*
X01204D03*
X01118D03*
X0129Y01013D03*
X01031Y01013D03*
X00944D03*
X0044D03*
X00527D03*
X00354D03*
X00614D03*
X00267D03*
X00181D03*
G54D109*
X01645Y01367D03*
X01568Y01142D03*
X01594Y01367D03*
X0162D03*
X01696D03*
X01671D03*
X01543D03*
X01594Y01142D03*
X01543D03*
X0162D03*
X01645D03*
X01671D03*
X01696D03*
X01568Y01367D03*
G54D110*
X00939Y01655D03*
X009D03*
M02*