%FSTAX23Y23*%
%MOIN*%
%SFA1B1*%

%IPPOS*%
%AMD39*
4,1,8,-0.015900,0.000000,-0.015900,0.000000,-0.011600,-0.004300,0.011600,-0.004300,0.015900,0.000000,0.015900,0.000000,0.011600,0.004300,-0.011600,0.004300,-0.015900,0.000000,0.0*
1,1,0.008633,-0.011600,0.000000*
1,1,0.008633,-0.011600,0.000000*
1,1,0.008633,0.011600,0.000000*
1,1,0.008633,0.011600,0.000000*
%
%AMD47*
4,1,8,-0.004300,0.011600,-0.004300,-0.011600,0.000000,-0.015900,0.000000,-0.015900,0.004300,-0.011600,0.004300,0.011600,0.000000,0.015900,0.000000,0.015900,-0.004300,0.011600,0.0*
1,1,0.008633,0.000000,0.011600*
1,1,0.008633,0.000000,-0.011600*
1,1,0.008633,0.000000,-0.011600*
1,1,0.008633,0.000000,0.011600*
%
%AMD65*
4,1,8,-0.015600,-0.008200,0.015600,-0.008200,0.023700,0.000000,0.023700,0.000000,0.015600,0.008200,-0.015600,0.008200,-0.023700,0.000000,-0.023700,0.000000,-0.015600,-0.008200,0.0*
1,1,0.016335,-0.015600,0.000000*
1,1,0.016335,0.015600,0.000000*
1,1,0.016335,0.015600,0.000000*
1,1,0.016335,-0.015600,0.000000*
%
%ADD16R,0.161000X0.052000*%
%ADD17O,0.023622X0.057087*%
%ADD18R,0.019685X0.019685*%
%ADD19R,0.023852X0.023866*%
%ADD20R,0.027559X0.027559*%
%ADD21R,0.019685X0.023622*%
%ADD22R,0.039370X0.070866*%
%ADD23R,0.045000X0.023622*%
%ADD24R,0.020163X0.022876*%
%ADD25R,0.059055X0.072835*%
%ADD26R,0.049590X0.024000*%
%ADD27R,0.018601X0.022033*%
%ADD28R,0.019685X0.019685*%
%ADD29R,0.020289X0.018601*%
%ADD30R,0.022538X0.024226*%
%ADD31R,0.127952X0.092913*%
%ADD32R,0.070866X0.039370*%
%ADD33R,0.039370X0.068000*%
%ADD34R,0.040000X0.068000*%
%ADD35R,0.065284X0.037135*%
%ADD37R,0.017716X0.019685*%
G04~CAMADD=39~8~0.0~0.0~86.3~318.8~43.2~0.0~15~0.0~0.0~0.0~0.0~0~0.0~0.0~0.0~0.0~0~0.0~0.0~0.0~90.0~318.0~86.0*
%ADD39D39*%
%ADD40R,0.023866X0.023852*%
%ADD42R,0.037135X0.065284*%
%ADD43R,0.012000X0.017000*%
%ADD44R,0.011811X0.025591*%
%ADD45R,0.017000X0.012000*%
%ADD46R,0.037401X0.064000*%
G04~CAMADD=47~8~0.0~0.0~318.8~86.3~43.2~0.0~15~0.0~0.0~0.0~0.0~0~0.0~0.0~0.0~0.0~0~0.0~0.0~0.0~90.0~86.0~318.0*
%ADD47D47*%
%ADD48R,0.019685X0.017716*%
%ADD50R,0.026000X0.033000*%
%ADD51R,0.037401X0.066929*%
%ADD52R,0.033465X0.011811*%
%ADD53R,0.011811X0.033465*%
%ADD55R,0.008633X0.031876*%
%ADD56R,0.020000X0.020000*%
%ADD57R,0.020000X0.020000*%
%ADD59R,0.091000X0.049000*%
%ADD61R,0.021654X0.017716*%
%ADD62R,0.018601X0.020289*%
%ADD63R,0.026772X0.025197*%
%ADD64R,0.020472X0.020472*%
G04~CAMADD=65~8~0.0~0.0~474.5~163.4~81.7~0.0~15~0.0~0.0~0.0~0.0~0~0.0~0.0~0.0~0.0~0~0.0~0.0~0.0~180.0~476.0~164.0*
%ADD65D65*%
%ADD66R,0.031496X0.035433*%
%ADD67R,0.018321X0.018601*%
%ADD68R,0.022047X0.020472*%
%ADD69R,0.022876X0.020163*%
%ADD70R,0.018364X0.018601*%
%ADD71R,0.022638X0.013780*%
%ADD72R,0.013780X0.022638*%
%ADD73R,0.026306X0.026476*%
%ADD74R,0.028163X0.026476*%
%ADD75R,0.018432X0.018601*%
%ADD76R,0.017716X0.021654*%
%ADD77R,0.047450X0.016336*%
%ADD152R,0.105824X0.105826*%
%ADD153R,0.019684X0.029528*%
%ADD154R,0.059056X0.059056*%
%ADD155R,0.059054X0.059056*%
%ADD156R,0.059056X0.059054*%
%ADD157R,0.059054X0.059054*%
%ADD158R,0.015748X0.013780*%
%ADD159R,0.015748X0.017716*%
%ADD160R,0.035432X0.017716*%
%ADD161R,0.035434X0.017716*%
%ADD162R,0.019686X0.029528*%
%ADD163R,0.035432X0.017718*%
%ADD164R,0.035434X0.017718*%
%ADD165R,0.015748X0.017718*%
%ADD166R,0.015748X0.013778*%
%LNflexnodepcb_paste_top-1*%
%LPD*%
G36*
X01315Y01541D02*
X01236D01*
Y0162*
X01315*
Y01541*
G37*
G36*
Y01659D02*
X01236D01*
Y01738*
X01315*
Y01659*
G37*
G36*
X01433Y01541D02*
X01354D01*
Y0162*
X01433*
Y01541*
G37*
G36*
Y01659D02*
X01354D01*
Y01738*
X01433*
Y01659*
G37*
G54D16*
X0016Y01542D03*
Y01432D03*
G54D17*
X00282Y0142D03*
X00432Y01635D03*
X00382D03*
X00332D03*
X00282D03*
X00432Y0142D03*
X00382D03*
X00332D03*
G54D18*
X00282Y01367D03*
X00322D03*
G54D19*
X01106Y01718D03*
X01138D03*
X01112Y01777D03*
X01559Y01075D03*
X01109Y0161D03*
X01408Y01852D03*
X00674Y01605D03*
X0114Y00675D03*
X00705Y01605D03*
X01109Y00675D03*
X0159Y01075D03*
X01376Y01852D03*
X01144Y01777D03*
X0114Y0161D03*
X00539Y01266D03*
X00507D03*
G54D20*
X01067Y01716D03*
X00995Y01673D03*
Y01716D03*
X01067Y01673D03*
G54D21*
X00472Y01682D03*
X00432D03*
G54D22*
X00214Y01847D03*
Y01751D03*
Y01655D03*
X00095Y01847D03*
Y01751D03*
Y01655D03*
G54D23*
X00125Y01977D03*
X002Y0194D03*
Y02014D03*
G54D24*
X00097Y01946D03*
X00285Y01683D03*
Y01711D03*
X01427Y0142D03*
X00245Y01955D03*
X00097Y01918D03*
X01427Y01449D03*
X00245Y01984D03*
G54D25*
X0042Y01752D03*
X00524D03*
G54D26*
X01016Y01923D03*
Y01966D03*
X01133D03*
Y01923D03*
G54D27*
X00352Y01369D03*
Y01335D03*
X01505Y01358D03*
Y01391D03*
G54D28*
X0039Y01332D03*
Y01372D03*
G54D29*
X0033Y01697D03*
X00359D03*
X01547Y01645D03*
X01517D03*
X00985Y0186D03*
X01014D03*
G54D30*
X0043Y01369D03*
Y01335D03*
G54D31*
X00357Y01527D03*
G54D32*
X01602Y01213D03*
X01509Y0121D03*
X0123Y01137D03*
X00976D03*
X01066D03*
X0165Y0069D03*
X01645Y00875D03*
X00349Y01134D03*
X00256D03*
X00164Y01173D03*
Y01134D03*
X00163Y00822D03*
Y00651D03*
X00257Y01174D03*
X01645Y01166D03*
Y01048D03*
X00257Y01292D03*
X01602Y01331D03*
X01509Y01329D03*
X0123Y01019D03*
X01066D03*
X00976D03*
X01645Y00994D03*
X0165Y00809D03*
X00164Y01292D03*
Y01015D03*
X00349D03*
X00256D03*
X00163Y0094D03*
Y00769D03*
X01601Y01437D03*
Y01555D03*
G54D33*
X01145Y01236D03*
X01263D03*
G54D34*
X01092Y01236D03*
X00974D03*
G54D35*
X01496Y01112D03*
X00809Y01104D03*
Y00998D03*
X01496Y01005D03*
G54D37*
X00461Y0137D03*
X00461Y01335D03*
X01108Y0064D03*
X01141D03*
X00498Y0137D03*
Y01335D03*
G54D39*
X00531Y01357D03*
X00755Y01396D03*
X00531Y01494D03*
Y01455D03*
Y01475D03*
Y01435D03*
Y01396D03*
Y01514D03*
Y01337D03*
X00755Y01514D03*
Y01494D03*
Y01475D03*
Y01455D03*
Y01435D03*
Y01416D03*
Y01376D03*
Y01337D03*
X00531Y01376D03*
Y01416D03*
X00755Y01357D03*
G54D40*
X00585Y01232D03*
Y01263D03*
X01585Y01694D03*
X0162Y01659D03*
X0139Y01419D03*
X01585Y01725D03*
X0162Y0169D03*
X0139Y0145D03*
G54D42*
X00657Y01014D03*
X00551D03*
G54D43*
X00662Y011D03*
Y01154D03*
G54D44*
X00712Y01031D03*
Y00978D03*
X01382Y01239D03*
Y01185D03*
X0134Y01174D03*
Y0112D03*
X00692Y01256D03*
Y01203D03*
X01132Y01121D03*
Y01068D03*
X00822Y01264D03*
Y0121D03*
X00412Y01241D03*
Y01188D03*
G54D45*
X01436Y01115D03*
X01383D03*
G54D46*
X01307Y01035D03*
X01417D03*
G54D47*
X00614Y01313D03*
X00594D03*
X00673D03*
X00633Y01538D03*
X00712D03*
X00732D03*
Y01313D03*
X00712D03*
X00692D03*
X00653D03*
X00574D03*
X00633D03*
X00673Y01538D03*
X00614D03*
X00594D03*
X00555D03*
X00692D03*
X00653D03*
X00574D03*
G54D48*
X0063Y01231D03*
Y01268D03*
G54D50*
X00922Y0098D03*
X00872D03*
G54D51*
X00442Y01115D03*
X00552D03*
G54D52*
X01199Y01748D03*
Y01728D03*
Y01708D03*
Y01689D03*
Y01669D03*
Y01649D03*
Y0163D03*
Y0161D03*
Y0159D03*
Y01571D03*
Y01551D03*
Y01531D03*
X0147D03*
Y01551D03*
Y01571D03*
Y0159D03*
Y0161D03*
Y0163D03*
Y01649D03*
Y01669D03*
Y01689D03*
Y01708D03*
Y01728D03*
Y01748D03*
G54D53*
X01226Y01504D03*
X01246D03*
X01266D03*
X01285D03*
X01305D03*
X01325D03*
X01344D03*
X01364D03*
X01384D03*
X01403D03*
X01423D03*
X01443D03*
Y01775D03*
X01423D03*
X01403D03*
X01384D03*
X01364D03*
X01344D03*
X01325D03*
X01305D03*
X01285D03*
X01266D03*
X01246D03*
X01226D03*
G54D55*
X00555Y01313D03*
G54D56*
X00434Y01966D03*
X00643D03*
G54D57*
X00509Y02007D03*
X00538D03*
X00568D03*
X00597D03*
X00568Y01925D03*
X00538D03*
X00509D03*
X0045D03*
X00479D03*
X0045Y02007D03*
X00479D03*
X00597Y01925D03*
X00627Y02007D03*
G54D59*
X00538Y01966D03*
G54D61*
X0064Y01594D03*
Y0163D03*
X00605Y01577D03*
X00362Y01915D03*
X00605Y01612D03*
X00362Y01879D03*
G54D62*
X00632Y0174D03*
Y01769D03*
X00662D03*
Y0174D03*
X01582Y01659D03*
X00727Y01244D03*
Y01215D03*
X01417Y01227D03*
Y01197D03*
X01305Y01162D03*
Y01132D03*
X01167Y01109D03*
Y0108D03*
X0079Y01252D03*
Y01222D03*
X00447Y01229D03*
Y012D03*
X01582Y0163D03*
G54D63*
X00664Y02052D03*
X0063D03*
G54D64*
X00568Y01885D03*
X00536D03*
G54D65*
X013Y01932D03*
X01217Y01983D03*
Y01906D03*
X013Y01957D03*
Y01983D03*
X01217Y01957D03*
Y01932D03*
G54D66*
X00885Y01964D03*
X00922Y01885D03*
X00847D03*
G54D67*
X01535Y01422D03*
X01504D03*
G54D68*
X01534Y01455D03*
X01505D03*
G54D69*
X01406Y01885D03*
X01378D03*
G54D70*
X0089Y01537D03*
X00835Y01612D03*
X00856Y01575D03*
X00804Y01612D03*
X00825Y01575D03*
X00859Y01537D03*
G54D71*
X00785Y01989D03*
Y0197D03*
X00714Y01989D03*
X00785Y0195D03*
X00714D03*
Y0197D03*
G54D72*
X0072Y01924D03*
X00779Y02015D03*
X0074Y01924D03*
X00759D03*
X0072Y02015D03*
X0074D03*
X00759D03*
X00779Y01924D03*
G54D73*
X0069Y01885D03*
X00894Y02015D03*
X00665Y01835D03*
X00855Y02015D03*
X00704Y01835D03*
X00484Y01882D03*
X0065Y01885D03*
X00445Y01882D03*
G54D74*
X00766Y0188D03*
X00803D03*
G54D75*
X00778Y01612D03*
X00746D03*
X00792Y01575D03*
X0076D03*
X00791Y01537D03*
X00823D03*
G54D76*
X0038Y0196D03*
X00345D03*
G54D77*
X013Y01906D03*
G54D152*
X00643Y01425D03*
G54D153*
X00862Y00712D03*
X00812D03*
X00762D03*
X00712D03*
X01471Y007D03*
X01421D03*
X00239Y00941D03*
X00289D03*
X00339D03*
X00389D03*
X00577Y00711D03*
X00627D03*
X00948Y00941D03*
X00998D03*
G54D154*
X0082Y00834D03*
X01529Y00822D03*
X01462D03*
X01529Y00755D03*
X01462D03*
X01226Y00818D03*
X00281Y00818D03*
X0099Y00818D03*
X01057D03*
X0099Y00885D03*
X01057D03*
G54D155*
X00753Y00834D03*
X01293Y00818D03*
X00348Y00818D03*
X00519Y00833D03*
X00586D03*
G54D156*
X0082Y00767D03*
X01226Y00885D03*
X00281Y00885D03*
G54D157*
X00753Y00767D03*
X01293Y00885D03*
X00348Y00885D03*
X00519Y00766D03*
X00586D03*
G54D158*
X00862Y00949D03*
X00812D03*
X00762D03*
X00712D03*
X01571Y00937D03*
X01521D03*
X01471D03*
X01421D03*
X01184Y00704D03*
X01234D03*
X01284D03*
X01334D03*
X00239Y00704D03*
X00289D03*
X00339D03*
X00389D03*
X00477Y00948D03*
X00527D03*
X00577D03*
X00627D03*
G54D159*
X00712Y00925D03*
X01421Y00913D03*
X01334Y00728D03*
X00389Y00728D03*
X01098Y00728D03*
G54D160*
X00772Y00925D03*
X00858D03*
X01524Y00913D03*
X01275Y00728D03*
X01188D03*
X0033Y00728D03*
X01038Y00728D03*
X00995D03*
G54D161*
X00815Y00925D03*
X0148Y00913D03*
X01567D03*
X01231Y00728D03*
X00286Y00728D03*
X00243D03*
X00952Y00728D03*
G54D162*
X01571Y007D03*
X01521D03*
X01184Y00941D03*
X01234D03*
X01284D03*
X01334D03*
X00477Y00711D03*
X00527D03*
X01048Y00941D03*
X01098D03*
G54D163*
X00624Y00924D03*
X00537D03*
G54D164*
X0058Y00924D03*
G54D165*
X00477Y00924D03*
G54D166*
X00948Y00704D03*
X00998D03*
X01048D03*
X01098D03*
M02*