%FSTAX23Y23*%
%MOIN*%
%SFA1B1*%

%IPPOS*%
%ADD123C,0.005000*%
%LNflexnodepcb_drillmap_1-1*%
%LPD*%
G54D123*
X0106Y0051D02*
X01139D01*
X011Y0047D02*
Y00549D01*
X0048Y0051D02*
X00559D01*
X0052Y0047D02*
Y00549D01*
X01255Y0051D02*
X01334D01*
X01295Y0047D02*
Y00549D01*
X00665Y0051D02*
X00744D01*
X00705Y0047D02*
Y00549D01*
X00946Y0207D02*
X00974D01*
X0096Y02056D02*
Y02084D01*
X01021Y0207D02*
X01049D01*
X01035Y02056D02*
Y02084D01*
X00782Y0175D02*
X00802D01*
X00792Y0174D02*
Y0176D01*
X01661Y01748D02*
X01701D01*
X01681Y01728D02*
Y01768D01*
X01077Y01833D02*
X01105D01*
X01091Y01819D02*
Y01847D01*
X00752Y01833D02*
X0078D01*
X00766Y01819D02*
Y01847D01*
X00427Y01833D02*
X00455D01*
X00441Y01819D02*
Y01847D01*
X00285Y01766D02*
X00317D01*
X00301Y01751D02*
Y01782D01*
X01685Y0155D02*
X01725D01*
X01705Y0153D02*
Y0157D01*
X0159Y01819D02*
X0163D01*
X0161Y01799D02*
Y01839D01*
X00285Y02003D02*
X00317D01*
X00301Y01987D02*
Y02018D01*
X01685Y0165D02*
X01725D01*
X01705Y0163D02*
Y0167D01*
X01685Y0145D02*
X01725D01*
X01705Y0143D02*
Y0147D01*
X00285Y01845D02*
X00317D01*
X00301Y01829D02*
Y01861D01*
X01519Y0189D02*
X0156D01*
X0154Y01869D02*
Y0191D01*
X01449Y0196D02*
X01489D01*
X01469Y0194D02*
Y0198D01*
X01378Y02031D02*
X01418D01*
X01398Y02011D02*
Y02051D01*
X01234Y01833D02*
X01262D01*
X01248Y01819D02*
Y01847D01*
X00909Y01833D02*
X00937D01*
X00923Y01819D02*
Y01847D01*
X00285Y01924D02*
X00317D01*
X00301Y01908D02*
Y0194D01*
X00584Y01833D02*
X00612D01*
X00598Y01819D02*
Y01847D01*
X00865Y0061D02*
X00944D01*
X00905Y0057D02*
Y00649D01*
X003Y00605D02*
X00379D01*
X0034Y00565D02*
Y00644D01*
X0144Y00605D02*
X01519D01*
X0148Y00565D02*
Y00644D01*
X00831Y01833D02*
X00858D01*
X00845Y01819D02*
Y01847D01*
X01156Y01833D02*
X01183D01*
X0117Y01819D02*
Y01847D01*
X00506Y01833D02*
X00533D01*
X0052Y01819D02*
Y01847D01*
X00207Y01702D02*
X00219D01*
X00213Y01696D02*
Y01708D01*
X00207Y01798D02*
X00219D01*
X00213Y01792D02*
Y01804D01*
X00446Y01772D02*
X00458D01*
X00452Y01766D02*
Y01778D01*
X00446Y0175D02*
X00458D01*
X00452Y01744D02*
Y01756D01*
X00446Y01727D02*
X00458D01*
X00452Y01721D02*
Y01733D01*
X00429Y01737D02*
X00441D01*
X00435Y01731D02*
Y01743D01*
X01081Y01717D02*
X01093D01*
X01087Y01711D02*
Y01723D01*
X00156Y0198D02*
X00168D01*
X00162Y01974D02*
Y01986D01*
X00429Y01762D02*
X00441D01*
X00435Y01756D02*
Y01768D01*
X00179Y01642D02*
X00191D01*
X00185Y01636D02*
Y01648D01*
X00206Y0159D02*
X00218D01*
X00212Y01584D02*
Y01596D01*
X00161Y0159D02*
X00173D01*
X00167Y01584D02*
Y01596D01*
X00089Y01798D02*
X00101D01*
X00095Y01792D02*
Y01804D01*
X0009Y01702D02*
X00102D01*
X00096Y01696D02*
Y01708D01*
X00254Y0158D02*
X00266D01*
X0026Y01574D02*
Y01586D01*
X01404Y0142D02*
X01416D01*
X0141Y01414D02*
Y01426D01*
X01402Y0145D02*
X01414D01*
X01408Y01444D02*
Y01456D01*
X01371Y01868D02*
X01383D01*
X01377Y01862D02*
Y01874D01*
X01401Y01868D02*
X01413D01*
X01407Y01862D02*
Y01874D01*
X00396Y01549D02*
X00404D01*
X004Y01545D02*
Y01553D01*
X00396Y01506D02*
X00404D01*
X004Y01502D02*
Y0151D01*
X00353Y01549D02*
X00361D01*
X00357Y01545D02*
Y01553D01*
X00353Y01506D02*
X00361D01*
X00357Y01502D02*
Y0151D01*
X0031Y01549D02*
X00318D01*
X00314Y01545D02*
Y01553D01*
X0031Y01506D02*
X00318D01*
X00314Y01502D02*
Y0151D01*
X01276Y01387D02*
X01288D01*
X01282Y01381D02*
Y01393D01*
X01304Y01387D02*
X01315D01*
X0131Y01381D02*
Y01393D01*
X01267Y01181D02*
X01279D01*
X01273Y01175D02*
Y01187D01*
X01221Y01387D02*
X01233D01*
X01227Y01381D02*
Y01393D01*
X01249Y01387D02*
X0126D01*
X01255Y01381D02*
Y01393D01*
X01194Y01387D02*
X01205D01*
X01199Y01381D02*
Y01393D01*
X01206Y01246D02*
X01218D01*
X01212Y0124D02*
Y01251D01*
X01206Y01216D02*
X01218D01*
X01212Y0121D02*
Y01222D01*
X01226Y01181D02*
X01238D01*
X01232Y01175D02*
Y01187D01*
X01185Y01181D02*
X01196D01*
X0119Y01175D02*
Y01187D01*
X01204Y01165D02*
X01216D01*
X0121Y01159D02*
Y01171D01*
X01246Y01165D02*
X01257D01*
X01251Y01159D02*
Y01171D01*
X01138Y01387D02*
X0115D01*
X01144Y01381D02*
Y01393D01*
X01179Y01246D02*
X0119D01*
X01185Y0124D02*
Y01251D01*
X01075Y01387D02*
X01087D01*
X01081Y01381D02*
Y01393D01*
X01109Y01387D02*
X0112D01*
X01115Y01381D02*
Y01393D01*
X01179Y01216D02*
X0119D01*
X01185Y0121D02*
Y01222D01*
X00699Y0145D02*
X0071D01*
X00705Y01444D02*
Y01455D01*
X00699Y01405D02*
X0071D01*
X00705Y01399D02*
Y0141D01*
X00659Y0149D02*
X0067D01*
X00665Y01484D02*
Y01495D01*
X00659Y0145D02*
X0067D01*
X00665Y01444D02*
Y01455D01*
X01049Y01255D02*
X01061D01*
X01055Y01249D02*
Y01261D01*
X00967Y01179D02*
X00979D01*
X00973Y01173D02*
Y01185D01*
X00659Y01365D02*
X0067D01*
X00665Y01359D02*
Y0137D01*
X01001Y01179D02*
X01013D01*
X01007Y01173D02*
Y01185D01*
X01019Y01165D02*
X01031D01*
X01025Y01159D02*
Y01171D01*
X00948Y01166D02*
X0096D01*
X00954Y0116D02*
Y01172D01*
X00984Y01165D02*
X00996D01*
X0099Y01159D02*
Y01171D01*
X00831Y01164D02*
X00842D01*
X00837Y01158D02*
Y01169D01*
X0085Y01151D02*
X00862D01*
X00856Y01145D02*
Y01157D01*
X008Y01142D02*
X00811D01*
X00806Y01136D02*
Y01147D01*
X00824Y01142D02*
X00835D01*
X0083Y01136D02*
Y01147D01*
X00856Y0113D02*
X00868D01*
X00862Y01124D02*
Y01135D01*
X01271Y01106D02*
X01283D01*
X01277Y011D02*
Y01112D01*
X01204Y01106D02*
X01216D01*
X0121Y011D02*
Y01112D01*
X01072Y01106D02*
X01084D01*
X01078Y011D02*
Y01112D01*
X01234Y01106D02*
X01246D01*
X0124Y011D02*
Y01112D01*
X0109Y01088D02*
X01102D01*
X01096Y01082D02*
Y01094D01*
X01055Y01088D02*
X01066D01*
X01061Y01082D02*
Y01094D01*
X01492Y01068D02*
X01503D01*
X01498Y01062D02*
Y01074D01*
X01507Y01089D02*
X01518D01*
X01513Y01083D02*
Y01094D01*
X01218Y01088D02*
X0123D01*
X01224Y01082D02*
Y01094D01*
X01251Y01088D02*
X01263D01*
X01257Y01082D02*
Y01094D01*
X01001Y01106D02*
X01013D01*
X01007Y011D02*
Y01112D01*
X01037Y01106D02*
X01049D01*
X01043Y011D02*
Y01112D01*
X00856Y01106D02*
X00868D01*
X00862Y011D02*
Y01112D01*
X00966Y01106D02*
X00978D01*
X00972Y011D02*
Y01112D01*
X00984Y01088D02*
X00996D01*
X0099Y01082D02*
Y01094D01*
X01019Y01088D02*
X01031D01*
X01025Y01082D02*
Y01094D01*
X00948Y01088D02*
X0096D01*
X00954Y01082D02*
Y01094D01*
X00784Y0108D02*
X00796D01*
X0079Y01074D02*
Y01086D01*
X00795Y01059D02*
X00807D01*
X00801Y01053D02*
Y01064D01*
X00774Y01057D02*
X00786D01*
X0078Y01051D02*
Y01063D01*
X00667Y01064D02*
X00678D01*
X00673Y01058D02*
Y01069D01*
X00614Y01405D02*
X00625D01*
X0062Y01399D02*
Y0141D01*
X00659Y01405D02*
X0067D01*
X00665Y01399D02*
Y0141D01*
X00614Y0149D02*
X00625D01*
X0062Y01484D02*
Y01495D01*
X00614Y0145D02*
X00625D01*
X0062Y01444D02*
Y01455D01*
X00614Y01365D02*
X00625D01*
X0062Y01359D02*
Y0137D01*
X00574Y0145D02*
X00585D01*
X0058Y01444D02*
Y01455D01*
X00574Y01405D02*
X00585D01*
X0058Y01399D02*
Y0141D01*
X00556Y01227D02*
X00566D01*
X00561Y01222D02*
Y01232D01*
X00532Y01227D02*
X00542D01*
X00537Y01222D02*
Y01232D01*
X00455Y01352D02*
X00467D01*
X00461Y01346D02*
Y01358D01*
X00122Y01234D02*
X00133D01*
X00127Y01228D02*
Y0124D01*
X00165Y01234D02*
X00177D01*
X00171Y01228D02*
Y0124D01*
X00251Y01234D02*
X00263D01*
X00257Y01228D02*
Y0124D01*
X00295Y01234D02*
X00307D01*
X00301Y01228D02*
Y0124D01*
X00208Y01234D02*
X0022D01*
X00214Y01228D02*
Y0124D01*
X00508Y01227D02*
X00518D01*
X00513Y01222D02*
Y01232D01*
X00379Y01161D02*
X00391D01*
X00385Y01155D02*
Y01167D01*
X00645Y01072D02*
X00657D01*
X00651Y01066D02*
Y01078D01*
X00364Y01098D02*
X00375D01*
X0037Y01092D02*
Y01104D01*
X00362Y01179D02*
X00374D01*
X00368Y01173D02*
Y01185D01*
X00326Y01179D02*
X00338D01*
X00332Y01173D02*
Y01185D01*
X00344Y01161D02*
X00356D01*
X0035Y01155D02*
Y01167D01*
X00342Y01088D02*
X00354D01*
X00348Y01082D02*
Y01094D01*
X00318Y01098D02*
X0033D01*
X00324Y01092D02*
Y01104D01*
X00311Y01161D02*
X00322D01*
X00316Y01155D02*
Y01167D01*
X0023Y01222D02*
X00242D01*
X00236Y01216D02*
Y01228D01*
X00273Y01222D02*
X00285D01*
X00279Y01216D02*
Y01228D01*
X00232Y01098D02*
X00244D01*
X00238Y01092D02*
Y01104D01*
X00187Y01222D02*
X00198D01*
X00192Y01216D02*
Y01228D01*
X00143Y01222D02*
X00155D01*
X00149Y01216D02*
Y01228D01*
X00188Y01098D02*
X002D01*
X00194Y01092D02*
Y01104D01*
X00145Y01098D02*
X00157D01*
X00151Y01092D02*
Y01104D01*
X00275Y01098D02*
X00287D01*
X00281Y01092D02*
Y01104D01*
X00253Y01088D02*
X00265D01*
X00259Y01082D02*
Y01094D01*
X00167Y0109D02*
X00179D01*
X00173Y01084D02*
Y01096D01*
X0021Y01088D02*
X00222D01*
X00216Y01082D02*
Y01094D01*
X00297Y01088D02*
X00309D01*
X00303Y01082D02*
Y01094D01*
X00181Y00685D02*
X00192D01*
X00187Y00679D02*
Y0069D01*
X00179Y00858D02*
X0019D01*
X00185Y00852D02*
Y00864D01*
X00155Y00858D02*
X00167D01*
X00161Y00852D02*
Y00864D01*
X00124Y01088D02*
X00135D01*
X00129Y01082D02*
Y01094D01*
X00131Y00858D02*
X00143D01*
X00137Y00852D02*
Y00864D01*
X00157Y00685D02*
X00169D01*
X00163Y00679D02*
Y0069D01*
X00131Y00685D02*
X00143D01*
X00137Y00679D02*
Y0069D01*
X01499Y01248D02*
X01511D01*
X01505Y01242D02*
Y01254D01*
X01524Y01248D02*
X01536D01*
X0153Y01242D02*
Y01254D01*
X01664Y01198D02*
X01676D01*
X0167Y01192D02*
Y01204D01*
X0155Y01248D02*
X01562D01*
X01556Y01242D02*
Y01254D01*
X01508Y01147D02*
X01519D01*
X01514Y01141D02*
Y01152D01*
X0149Y01147D02*
X01501D01*
X01496Y01141D02*
Y01152D01*
X01617Y00911D02*
X01628D01*
X01623Y00905D02*
Y00917D01*
X01665Y00911D02*
X01676D01*
X01671Y00905D02*
Y00917D01*
X0164Y00912D02*
X01652D01*
X01646Y00906D02*
Y00918D01*
X01673Y00709D02*
X01684D01*
X01679Y00703D02*
Y00714D01*
X01645Y00709D02*
X01656D01*
X01651Y00703D02*
Y00714D01*
X01617Y00709D02*
X01628D01*
X01623Y00703D02*
Y00714D01*
X01619Y01222D02*
X0163D01*
X01625Y01216D02*
Y01227D01*
X01498Y01223D02*
X01509D01*
X01504Y01217D02*
Y01228D01*
X01525Y01223D02*
X01537D01*
X01531Y01217D02*
Y01229D01*
X01501Y01176D02*
X01513D01*
X01507Y0117D02*
Y01182D01*
X0155Y01196D02*
X01562D01*
X01556Y0119D02*
Y01202D01*
X0081Y01164D02*
X00822D01*
X00816Y01158D02*
Y0117D01*
X00853Y01175D02*
X00865D01*
X00859Y01169D02*
Y01181D01*
X00674Y01084D02*
X00685D01*
X0068Y01078D02*
Y01089D01*
X00685Y0105D02*
X00696D01*
X00691Y01044D02*
Y01055D01*
X00696Y01084D02*
X00707D01*
X00702Y01078D02*
Y01089D01*
X00702Y01064D02*
X00713D01*
X00708Y01058D02*
Y01069D01*
X00696Y01023D02*
X00708D01*
X00702Y01017D02*
Y01029D01*
X01639Y0102D02*
X01651D01*
X01645Y01014D02*
Y01026D01*
X01664Y0102D02*
X01676D01*
X0167Y01014D02*
Y01026D01*
X01611Y0102D02*
X01623D01*
X01617Y01014D02*
Y01026D01*
X01541Y01317D02*
X01553D01*
X01547Y01311D02*
Y01323D01*
X01292Y01236D02*
X01304D01*
X01298Y0123D02*
Y01242D01*
X01292Y01208D02*
X01304D01*
X01298Y01202D02*
Y01214D01*
X01713Y01007D02*
X01725D01*
X01719Y01001D02*
Y01013D01*
X01088Y00985D02*
X011D01*
X01094Y00979D02*
Y00991D01*
X00934Y01296D02*
X00946D01*
X0094Y0129D02*
Y01302D01*
X00933Y01255D02*
X00945D01*
X00939Y01249D02*
Y01261D01*
X00589Y0128D02*
X006D01*
X00595Y01274D02*
Y01285D01*
X01002Y01211D02*
X01014D01*
X01008Y01205D02*
Y01217D01*
X00949Y0122D02*
X00961D01*
X00955Y01214D02*
Y01226D01*
X01068Y00985D02*
X0108D01*
X01074Y00979D02*
Y00991D01*
X01048Y00985D02*
X0106D01*
X01054Y00979D02*
Y00991D01*
X01302Y00983D02*
X01314D01*
X01308Y00977D02*
Y00989D01*
X01282Y00983D02*
X01294D01*
X01288Y00977D02*
Y00989D01*
X01713Y00967D02*
X01725D01*
X01719Y00961D02*
Y00973D01*
X01302Y00963D02*
X01314D01*
X01308Y00957D02*
Y00969D01*
X01282Y00963D02*
X01294D01*
X01288Y00957D02*
Y00969D01*
X01242Y00983D02*
X01254D01*
X01248Y00977D02*
Y00989D01*
X01262Y00983D02*
X01274D01*
X01268Y00977D02*
Y00989D01*
X01222Y00983D02*
X01234D01*
X01228Y00977D02*
Y00989D01*
X01262Y00963D02*
X01274D01*
X01268Y00957D02*
Y00969D01*
X01242Y00963D02*
X01254D01*
X01248Y00957D02*
Y00969D01*
X01712Y00887D02*
X01724D01*
X01718Y00881D02*
Y00893D01*
X01712Y00847D02*
X01724D01*
X01718Y00841D02*
Y00853D01*
X01712Y00927D02*
X01724D01*
X01718Y00921D02*
Y00933D01*
X01712Y00807D02*
X01724D01*
X01718Y00801D02*
Y00813D01*
X0167Y0079D02*
X01682D01*
X01676Y00784D02*
Y00796D01*
X01645Y0079D02*
X01657D01*
X01651Y00784D02*
Y00796D01*
X0162Y00791D02*
X01632D01*
X01626Y00785D02*
Y00797D01*
X01323Y00963D02*
X01335D01*
X01329Y00957D02*
Y00969D01*
X01028Y00985D02*
X0104D01*
X01034Y00979D02*
Y00991D01*
X01182Y00983D02*
X01194D01*
X01188Y00977D02*
Y00989D01*
X01008Y00985D02*
X0102D01*
X01014Y00979D02*
Y00991D01*
X01202Y00983D02*
X01214D01*
X01208Y00977D02*
Y00989D01*
X01008Y00965D02*
X0102D01*
X01014Y00959D02*
Y00971D01*
X00988Y00965D02*
X01D01*
X00994Y00959D02*
Y00971D01*
X00968Y00985D02*
X0098D01*
X00974Y00979D02*
Y00991D01*
X00988Y00985D02*
X01D01*
X00994Y00979D02*
Y00991D01*
X00948Y00985D02*
X0096D01*
X00954Y00979D02*
Y00991D01*
X00968Y00965D02*
X0098D01*
X00974Y00959D02*
Y00971D01*
X01088Y00965D02*
X011D01*
X01094Y00959D02*
Y00971D01*
X01182Y00963D02*
X01194D01*
X01188Y00957D02*
Y00969D01*
X01068Y00965D02*
X0108D01*
X01074Y00959D02*
Y00971D01*
X01222Y00963D02*
X01234D01*
X01228Y00957D02*
Y00969D01*
X01202Y00963D02*
X01214D01*
X01208Y00957D02*
Y00969D01*
X01028Y00965D02*
X0104D01*
X01034Y00959D02*
Y00971D01*
X01048Y00965D02*
X0106D01*
X01054Y00959D02*
Y00971D01*
X00948Y00964D02*
X0096D01*
X00954Y00958D02*
Y0097D01*
X00248Y01267D02*
X0026D01*
X00254Y01261D02*
Y01273D01*
X00208Y01268D02*
X0022D01*
X00214Y01262D02*
Y01274D01*
X00288Y01267D02*
X003D01*
X00294Y01261D02*
Y01273D01*
X00173Y01047D02*
X00185D01*
X00179Y01041D02*
Y01053D01*
X00168Y01268D02*
X0018D01*
X00174Y01262D02*
Y01274D01*
X00122Y01269D02*
X00134D01*
X00128Y01263D02*
Y01275D01*
X00079Y01265D02*
X00091D01*
X00085Y01259D02*
Y01271D01*
X00078Y01221D02*
X0009D01*
X00084Y01215D02*
Y01227D01*
X00078Y01181D02*
X0009D01*
X00084Y01175D02*
Y01187D01*
X00077Y01101D02*
X00089D01*
X00083Y01095D02*
Y01107D01*
X00077Y01141D02*
X00089D01*
X00083Y01135D02*
Y01147D01*
X0014Y01047D02*
X00152D01*
X00146Y01041D02*
Y01053D01*
X00077Y01021D02*
X00089D01*
X00083Y01015D02*
Y01027D01*
X00077Y01061D02*
X00089D01*
X00083Y01055D02*
Y01067D01*
X00329Y00987D02*
X00341D01*
X00335Y00981D02*
Y00993D01*
X00309Y00987D02*
X00321D01*
X00315Y00981D02*
Y00993D01*
X00249Y00987D02*
X00261D01*
X00255Y00981D02*
Y00993D01*
X00289Y00987D02*
X00301D01*
X00295Y00981D02*
Y00993D01*
X00269Y00987D02*
X00281D01*
X00275Y00981D02*
Y00993D01*
X00349Y00987D02*
X00361D01*
X00355Y00981D02*
Y00993D01*
X00369Y00987D02*
X00381D01*
X00375Y00981D02*
Y00993D01*
X00309Y00967D02*
X00321D01*
X00315Y00961D02*
Y00973D01*
X00349Y00967D02*
X00361D01*
X00355Y00961D02*
Y00973D01*
X00369Y00967D02*
X00381D01*
X00375Y00961D02*
Y00973D01*
X00329Y00967D02*
X00341D01*
X00335Y00961D02*
Y00973D01*
X00249Y00967D02*
X00261D01*
X00255Y00961D02*
Y00973D01*
X00269Y00967D02*
X00281D01*
X00275Y00961D02*
Y00973D01*
X00222Y00978D02*
X00234D01*
X00228Y00972D02*
Y00984D01*
X00289Y00967D02*
X00301D01*
X00295Y00961D02*
Y00973D01*
X00171Y00978D02*
X00183D01*
X00177Y00972D02*
Y00984D01*
X00199Y00978D02*
X00211D01*
X00205Y00972D02*
Y00984D01*
X00141Y00978D02*
X00153D01*
X00147Y00972D02*
Y00984D01*
X00158Y00913D02*
X0017D01*
X00164Y00907D02*
Y00919D01*
X00179Y00913D02*
X00191D01*
X00185Y00907D02*
Y00919D01*
X00133Y00913D02*
X00145D01*
X00139Y00907D02*
Y00919D01*
X00108Y00991D02*
X0012D01*
X00114Y00985D02*
Y00997D01*
X00107Y00962D02*
X00119D01*
X00113Y00956D02*
Y00968D01*
X00076Y00976D02*
X00088D01*
X00082Y0097D02*
Y00982D01*
X00076Y00936D02*
X00088D01*
X00082Y0093D02*
Y00942D01*
X00159Y00739D02*
X00171D01*
X00165Y00733D02*
Y00745D01*
X00135Y00739D02*
X00147D01*
X00141Y00733D02*
Y00745D01*
X00181Y00738D02*
X00193D01*
X00187Y00732D02*
Y00744D01*
X00108Y00738D02*
X0012D01*
X00114Y00732D02*
Y00744D01*
X00076Y00896D02*
X00088D01*
X00082Y0089D02*
Y00902D01*
X00075Y00816D02*
X00087D01*
X00081Y0081D02*
Y00822D01*
X00075Y00856D02*
X00087D01*
X00081Y0085D02*
Y00862D01*
X00075Y00736D02*
X00087D01*
X00081Y0073D02*
Y00742D01*
X00075Y00776D02*
X00087D01*
X00081Y0077D02*
Y00782D01*
X01255Y01931D02*
X01267D01*
X01261Y01925D02*
Y01937D01*
X01617Y01563D02*
X01629D01*
X01623Y01557D02*
Y01569D01*
X01593Y01462D02*
X01605D01*
X01599Y01456D02*
Y01468D01*
X01596Y01426D02*
X01608D01*
X01602Y0142D02*
Y01432D01*
X01621Y01589D02*
X01633D01*
X01627Y01583D02*
Y01595D01*
X01598Y01591D02*
X0161D01*
X01604Y01585D02*
Y01597D01*
X0134Y01422D02*
X01352D01*
X01346Y01416D02*
Y01428D01*
X01158Y01707D02*
X0117D01*
X01164Y01701D02*
Y01713D01*
X01133Y01718D02*
X01145D01*
X01139Y01712D02*
Y01724D01*
X01123Y01686D02*
X01135D01*
X01129Y0168D02*
Y01692D01*
X0054Y01588D02*
X00552D01*
X00546Y01582D02*
Y01594D01*
X00572Y01588D02*
X00584D01*
X00578Y01582D02*
Y01594D01*
X00666Y0174D02*
X00678D01*
X00672Y01734D02*
Y01746D01*
X00689Y0177D02*
X00701D01*
X00695Y01764D02*
Y01776D01*
X00716Y01745D02*
X00728D01*
X00722Y01739D02*
Y01751D01*
X01639Y01392D02*
X01651D01*
X01645Y01386D02*
Y01398D01*
X01446Y01497D02*
X01458D01*
X01452Y01491D02*
Y01503D01*
X00831Y01612D02*
X00843D01*
X00837Y01606D02*
Y01618D01*
X00609Y01622D02*
X00621D01*
X00615Y01616D02*
Y01628D01*
X00622Y0203D02*
X00634D01*
X00628Y02024D02*
Y02036D01*
X00656Y0204D02*
X00668D01*
X00662Y02034D02*
Y02046D01*
X00562Y01885D02*
X00574D01*
X00568Y01879D02*
Y01891D01*
X00531Y01905D02*
X00543D01*
X00537Y01899D02*
Y01911D01*
X00669Y01605D02*
X00681D01*
X00675Y01599D02*
Y01611D01*
X01329Y0171D02*
X01341D01*
X01335Y01704D02*
Y01716D01*
X01364Y01675D02*
X01376D01*
X0137Y01669D02*
Y01681D01*
X01294Y01675D02*
X01306D01*
X013Y01669D02*
Y01681D01*
X01563Y01115D02*
X01574D01*
X01569Y01109D02*
Y0112D01*
X01399Y0164D02*
X01411D01*
X01405Y01634D02*
Y01646D01*
X01329Y0164D02*
X01341D01*
X01335Y01634D02*
Y01646D01*
X01364Y01605D02*
X01376D01*
X0137Y01599D02*
Y01611D01*
X01259Y0164D02*
X01271D01*
X01265Y01634D02*
Y01646D01*
X01294Y01605D02*
X01306D01*
X013Y01599D02*
Y01611D01*
X01329Y0157D02*
X01341D01*
X01335Y01564D02*
Y01576D01*
X01044Y0163D02*
X01056D01*
X0105Y01624D02*
Y01636D01*
X00899Y01537D02*
X00911D01*
X00905Y01531D02*
Y01543D01*
X00871Y01575D02*
X00883D01*
X00877Y01569D02*
Y01581D01*
X01154Y00675D02*
X01166D01*
X0116Y00669D02*
Y00681D01*
X00779Y01979D02*
X00791D01*
X00785Y01973D02*
Y01985D01*
X00849Y01965D02*
X00861D01*
X00855Y01959D02*
Y01971D01*
X00532Y01966D02*
X00544D01*
X00538Y0196D02*
Y01972D01*
X0056Y01966D02*
X00572D01*
X00566Y0196D02*
Y01972D01*
X00684Y0191D02*
X00696D01*
X0069Y01904D02*
Y01916D01*
X00506Y01966D02*
X00518D01*
X00512Y0196D02*
Y01972D01*
X00148Y01905D02*
X0016D01*
X00154Y01899D02*
Y01911D01*
X01397Y01482D02*
X01409D01*
X01403Y01476D02*
Y01488D01*
X01506Y01489D02*
X01518D01*
X01512Y01483D02*
Y01495D01*
X00634Y01598D02*
X00646D01*
X0064Y01592D02*
Y01604D01*
X00699Y01605D02*
X00711D01*
X00705Y01599D02*
Y01611D01*
X01169Y0064D02*
X01181D01*
X01175Y00634D02*
Y00646D01*
X00744Y01924D02*
X00756D01*
X0075Y01918D02*
Y0193D01*
X01605Y0172D02*
X01617D01*
X01611Y01714D02*
Y01726D01*
X00405Y01966D02*
X00417D01*
X00411Y0196D02*
Y01972D01*
X00979Y01772D02*
X00991D01*
X00985Y01766D02*
Y01778D01*
X00917Y01765D02*
X00929D01*
X00923Y01759D02*
Y01771D01*
X00949Y01765D02*
X00961D01*
X00955Y01759D02*
Y01771D01*
X00864Y01765D02*
X00876D01*
X0087Y01759D02*
Y01771D01*
X01157Y01631D02*
X01169D01*
X01163Y01625D02*
Y01637D01*
X00562Y02021D02*
X00574D01*
X00568Y02015D02*
Y02027D01*
X00532Y02021D02*
X00544D01*
X00538Y02015D02*
Y02027D01*
X00666Y0193D02*
X00678D01*
X00672Y01924D02*
Y01936D01*
X00671Y01958D02*
X00683D01*
X00677Y01952D02*
Y01964D01*
X01196Y01882D02*
X01208D01*
X01202Y01876D02*
Y01888D01*
X01263Y0188D02*
X01275D01*
X01269Y01874D02*
Y01886D01*
X00785Y02016D02*
X00797D01*
X00791Y0201D02*
Y02022D01*
X0066Y01989D02*
X00672D01*
X00666Y01983D02*
Y01995D01*
X01054Y01472D02*
X01066D01*
X0106Y01466D02*
Y01478D01*
X00541Y01555D02*
X00553D01*
X00547Y01549D02*
Y01561D01*
X01399Y01815D02*
X01411D01*
X01405Y01809D02*
Y01821D01*
X01503Y0157D02*
X01515D01*
X01509Y01564D02*
Y01576D01*
X01484Y0159D02*
X01496D01*
X0149Y01584D02*
Y01596D01*
X01319Y01813D02*
X01331D01*
X01325Y01807D02*
Y01819D01*
X00599Y01577D02*
X00611D01*
X00605Y01571D02*
Y01583D01*
X01089Y01495D02*
X01101D01*
X01095Y01489D02*
Y01501D01*
X01339Y018D02*
X01351D01*
X01345Y01794D02*
Y01806D01*
X01139Y01185D02*
X01151D01*
X01145Y01179D02*
Y01191D01*
X01511Y01645D02*
X01523D01*
X01517Y01639D02*
Y01651D01*
X01504Y0175D02*
X01516D01*
X0151Y01744D02*
Y01756D01*
X01359Y0195D02*
X01371D01*
X01365Y01944D02*
Y01956D01*
X01624Y0127D02*
X01635D01*
X0163Y01264D02*
Y01275D01*
X01584Y01097D02*
X01596D01*
X0159Y01091D02*
Y01103D01*
X01199Y01755D02*
X01211D01*
X01205Y01749D02*
Y01761D01*
X01002Y01628D02*
X01014D01*
X01008Y01622D02*
Y01634D01*
X01315Y0186D02*
X01327D01*
X01321Y01854D02*
Y01866D01*
X01336Y0185D02*
X01348D01*
X01342Y01844D02*
Y01856D01*
X01374Y0182D02*
X01386D01*
X0138Y01814D02*
Y01826D01*
X01458Y0179D02*
X0147D01*
X01464Y01784D02*
Y01796D01*
X01479Y0177D02*
X01491D01*
X01485Y01764D02*
Y01776D01*
X01486Y0155D02*
X01498D01*
X01492Y01544D02*
Y01556D01*
X01009Y0189D02*
X01021D01*
X01015Y01884D02*
Y01896D01*
X00829Y01362D02*
X00847D01*
X00838Y01353D02*
Y01371D01*
X00772Y01306D02*
X0079D01*
X00781Y01297D02*
Y01315D01*
M02*