%FSTAX23Y23*%
%MOIN*%
%SFA1B1*%

%IPPOS*%
%AMD92*
4,1,4,0.000000,-0.043100,0.043100,0.000000,0.000000,0.043100,-0.043100,0.000000,0.000000,-0.043100,0.0*
%
%ADD13C,0.008000*%
%ADD14C,0.006000*%
%ADD15C,0.015000*%
%ADD89C,0.118110*%
%ADD90C,0.048000*%
G04~CAMADD=92~10~0.0~610.2~0.0~0.0~0.0~0.0~0~0.0~0.0~0.0~0.0~0~0.0~0.0~0.0~0.0~0~0.0~0.0~0.0~225.0~610.2~0.0*
%ADD92D92*%
%ADD93R,0.047244X0.047244*%
%ADD95C,0.060000*%
%ADD96C,0.061024*%
%ADD97C,0.051496*%
%ADD98C,0.047244*%
%ADD99C,0.118110*%
%ADD100C,0.018000*%
%ADD101C,0.019685*%
%ADD102C,0.020000*%
%ADD106C,0.030000*%
%ADD107C,0.035430*%
%LNflexnodepcb_copper_signal_2-1*%
%LPD*%
G36*
X01336Y02067D02*
X01352Y02063D01*
X01361Y02059*
X01363Y02054*
X01361Y02052*
X01357Y02042*
X01355Y02031*
X01357Y0202*
X01361Y02009*
X01368Y02001*
X01377Y01994*
X01387Y0199*
X01398Y01988*
X01409Y0199*
X0142Y01994*
X01428Y02001*
X0143Y02001*
X01439Y01992*
X01438Y01991*
X01432Y01982*
X01427Y01971*
X01426Y0196*
X01427Y01949*
X01432Y01939*
X01438Y0193*
X01447Y01923*
X01458Y01919*
X01469Y01917*
X0148Y01919*
X0149Y01923*
X01499Y0193*
X01501Y0193*
X01509Y01922*
X01509Y0192*
X01502Y01911*
X01498Y01901*
X01497Y0189*
X01498Y01878*
X01502Y01868*
X01509Y01859*
X01518Y01852*
X01528Y01848*
X0154Y01847*
X01551Y01848*
X01561Y01852*
X0157Y01859*
X01572Y01859*
X01652Y01779*
X01621Y01748*
X01679Y01689*
X0168Y01683*
X01675Y01679*
X01668Y01671*
X01664Y0166*
X01662Y0165*
X01664Y01639*
X01668Y01628*
X01675Y0162*
X01683Y01613*
X01694Y01609*
X01705Y01607*
X01711Y01608*
X01716Y01604*
X01716Y01595*
X01711Y01591*
X01705Y01592*
X01694Y0159*
X01683Y01586*
X01675Y01579*
X01668Y01571*
X01664Y0156*
X01662Y0155*
X01664Y01539*
X01668Y01528*
X01675Y0152*
X01683Y01513*
X01694Y01509*
X01705Y01507*
X01712Y01508*
X01717Y01504*
X01717Y01495*
X01712Y01491*
X01705Y01492*
X01694Y0149*
X01683Y01486*
X01675Y01479*
X01668Y01471*
X01664Y0146*
X01662Y0145*
X01664Y01439*
X01668Y01428*
X01675Y0142*
X01683Y01413*
X01694Y01409*
X01705Y01407*
X01713Y01408*
X01718Y01405*
X0172Y01238*
X01716Y01235*
X01642*
X0164Y01237*
X01633Y01242*
X01625Y01244*
X01618Y01243*
X01613Y01246*
Y01343*
X01174*
X01172Y01348*
X01183Y01359*
X01187Y01364*
X01188Y01366*
X01191Y01367*
X01199Y01365*
X01208Y01367*
X01213Y0137*
X01218Y01366*
X01227Y01365*
X01235Y01366*
X01241Y0137*
X01246Y01366*
X01255Y01365*
X01263Y01366*
X01268Y0137*
X01273Y01366*
X01282Y01365*
X01291Y01366*
X01296Y0137*
X01301Y01366*
X0131Y01365*
X01318Y01366*
X01325Y01371*
X0133Y01378*
X01332Y01387*
X0133Y01396*
X01329Y01398*
X01331Y01404*
X01333Y01404*
X01337Y01402*
X01346Y014*
X01354Y01402*
X01361Y01406*
X01365Y01413*
X01367Y01422*
X01365Y0143*
X01361Y01437*
X01354Y01441*
X01346Y01443*
X01337Y01441*
X01331Y01437*
X01192*
X01186Y01436*
X01181Y01432*
X01162Y01413*
X01159Y01409*
X01154Y01407*
X01153Y01408*
X01144Y01409*
X01136Y01408*
X01129Y01404*
X01123Y01408*
X01115Y01409*
X01106Y01408*
X01099Y01403*
X01097*
X0109Y01408*
X01081Y01409*
X01073Y01408*
X01065Y01403*
X0106Y01396*
X01059Y01387*
X0106Y01378*
X01065Y01371*
X01073Y01366*
X01081Y01365*
X0109Y01366*
X01097Y01371*
X01099*
X01106Y01366*
X01115Y01365*
X01123Y01366*
X01129Y0137*
X01136Y01366*
X0114Y01365*
X01141Y0136*
X01134Y01352*
X0113Y01347*
X01129Y01343*
X00888*
Y01229*
X00756*
Y01282*
X00761Y01284*
X00766Y0128*
X00773Y01277*
X00781Y01276*
X00789Y01277*
X00796Y0128*
X00802Y01285*
X00807Y01291*
X0081Y01298*
X00811Y01306*
X00811Y01308*
X00835Y01332*
X00838Y01332*
X00846Y01333*
X00853Y01336*
X00859Y01341*
X00864Y01347*
X00867Y01354*
X00868Y01362*
X00867Y0137*
X00864Y01377*
X00859Y01383*
X00853Y01388*
X00846Y01391*
X00838Y01392*
X0083Y01391*
X00823Y01388*
X00817Y01383*
X00812Y01377*
X00809Y0137*
X00808Y01362*
X00808Y01362*
X00782Y01336*
X00781Y01336*
X00773Y01335*
X00766Y01332*
X00761Y01328*
X00756Y0133*
Y0155*
X00592*
X00571Y0155*
X00568Y01553*
X00568Y01555*
X00567Y01563*
X00566Y01564*
X00569Y01567*
X00569Y01568*
X00578Y01566*
X00585Y01568*
X00589Y01562*
X00596Y01557*
X00605Y01556*
X00613Y01557*
X0062Y01562*
X00624Y01569*
X00626Y01576*
X0063Y01578*
X00631Y01578*
X0064Y01576*
X00648Y01578*
X00655Y01582*
X00657Y01586*
X00659Y01589*
X00663Y01587*
X00666Y01585*
X00675Y01583*
X00683Y01585*
X0069Y01589*
X00694Y01596*
X00696Y01605*
X00694Y01613*
X0069Y0162*
X00683Y01624*
X00675Y01626*
X00666Y01624*
X00659Y0162*
X00657Y01616*
X00655Y01613*
X00651Y01615*
X00648Y01617*
X0064Y01619*
X00631Y01617*
X00624Y01613*
X0062Y01606*
X00618Y01599*
X00614Y01596*
X00613Y01597*
X00605Y01598*
X00597Y01597*
X00593Y01603*
X00586Y01607*
X00578Y01609*
X00569Y01607*
X00562Y01603*
X00561*
X00554Y01607*
X00546Y01609*
X00537Y01607*
X0053Y01603*
X00526Y01596*
X00524Y01588*
X00526Y01579*
X00529Y01574*
X00532Y0157*
X00527Y01563*
X00526Y01555*
X00526Y01553*
X00523Y0155*
X00467Y0155*
X00397Y0162*
X00198*
X00196Y01625*
X002Y01627*
X00204Y01634*
X00206Y01642*
X00204Y0165*
X002Y01657*
X00193Y01662*
X00185Y01663*
X00176Y01662*
X00169Y01657*
X00165Y0165*
X00163Y01642*
X00165Y01634*
X00169Y01627*
X00173Y01625*
X00171Y0162*
X00063*
Y01685*
Y02035*
X00063Y02035*
X00064Y02043*
X00068Y02051*
X00073Y02058*
X0008Y02064*
X00088Y02067*
X00097Y02068*
X00097Y02068*
X00923*
X00924Y0206*
X00928Y02051*
X00934Y02044*
X00941Y02038*
X0095Y02034*
X0096Y02033*
X00969Y02034*
X00978Y02038*
X00985Y02044*
X00991Y02051*
X00994Y02059*
X00997Y0206*
X01Y02059*
X01003Y02051*
X01009Y02044*
X01016Y02038*
X01025Y02034*
X01035Y02033*
X01044Y02034*
X01053Y02038*
X0106Y02044*
X01066Y02051*
X0107Y0206*
X01071Y02068*
X0132*
X0132Y02068*
X01336Y02067*
G37*
G36*
X00295Y01577D02*
X00294Y01572D01*
X00292Y0157*
X00288Y01564*
X00285Y01557*
X00284Y01549*
X00285Y01541*
X00288Y01534*
X0029Y01531*
X00292Y01527*
X0029Y01523*
X00288Y01521*
X00285Y01513*
X00284Y01506*
X00285Y01498*
X00288Y01491*
X00292Y01484*
X00299Y01479*
X00306Y01476*
X00314Y01475*
X00321Y01476*
X00329Y01479*
X00331Y01482*
X00335Y01484*
X00339Y01482*
X00342Y01479*
X00349Y01476*
X00357Y01475*
X00365Y01476*
X00372Y01479*
X00375Y01482*
X00379Y01484*
X00383Y01482*
X00385Y01479*
X00393Y01476*
X004Y01475*
X00408Y01476*
X00415Y01479*
X00422Y01484*
X00426Y01491*
X00429Y01498*
X0043Y01506*
X00429Y01513*
X00426Y01521*
X00426Y01522*
X00428Y01526*
X0054*
X00547Y01525*
X00554Y01526*
X00731*
Y01473*
X00726Y01471*
X0072Y01476*
X00712Y01479*
X00705Y0148*
X00698Y01479*
X00696Y0148*
X00695Y01481*
X00694Y01483*
X00695Y0149*
X00694Y01497*
X00691Y01505*
X00686Y01511*
X0068Y01516*
X00672Y01519*
X00665Y0152*
X00657Y01519*
X00649Y01516*
X00643Y01511*
X00641*
X00635Y01516*
X00627Y01519*
X0062Y0152*
X00612Y01519*
X00604Y01516*
X00598Y01511*
X00593Y01505*
X0059Y01497*
X00589Y0149*
X0059Y01483*
X00589Y01481*
X00588Y0148*
X00586Y01479*
X0058Y0148*
X00572Y01479*
X00564Y01476*
X00558Y01471*
X00553Y01465*
X0055Y01457*
X00549Y0145*
X0055Y01442*
X00553Y01434*
X00558Y01428*
Y01426*
X00553Y0142*
X0055Y01412*
X00549Y01405*
X0055Y01397*
X00553Y01389*
X00558Y01383*
X00564Y01378*
X00572Y01375*
X0058Y01374*
X00586Y01375*
X00588Y01374*
X00589Y01373*
X0059Y01371*
X00589Y01365*
X0059Y01357*
X00593Y01349*
X00598Y01343*
X00604Y01338*
X00612Y01335*
X0062Y01334*
X00627Y01335*
X00635Y01338*
X00641Y01343*
X00643*
X00649Y01338*
X00657Y01335*
X00665Y01334*
X00672Y01335*
X0068Y01338*
X00686Y01343*
X00691Y01349*
X00694Y01357*
X00695Y01365*
X00694Y01371*
X00695Y01373*
X00696Y01374*
X00698Y01375*
X00705Y01374*
X00712Y01375*
X0072Y01378*
X00726Y01383*
X00731Y01381*
Y01205*
X00844*
X00845Y012*
X00844Y012*
X00838Y01195*
X00837Y01194*
X00837Y01194*
X00829Y01193*
X00825Y01191*
X00823Y01192*
X00816Y01193*
X00808Y01192*
X00801Y01189*
X00795Y01184*
X0079Y01178*
X00787Y01171*
X00786Y01165*
X00784Y01163*
X00779Y01157*
X00776Y01149*
X00775Y01142*
X00776Y01134*
X00779Y01126*
X00784Y0112*
X0079Y01115*
X00795Y01113*
X00796Y01113*
X00795Y01108*
X00794Y01108*
X0079Y01109*
X00782Y01108*
X00775Y01105*
X00769Y011*
X00764Y01094*
X00761Y01087*
X0076Y0108*
X0076Y01079*
X00759Y01078*
X00754Y01072*
X00751Y01065*
X0075Y01057*
X00751Y01049*
X00754Y01042*
X00759Y01036*
X00765Y01032*
X00772Y01029*
X0078Y01028*
X00787Y01029*
X00791Y0103*
X00793Y01029*
X00801Y01028*
X00809Y01029*
X00816Y01032*
X00822Y01037*
X00827Y01043*
X0083Y01051*
X00831Y01059*
X0083Y01066*
X00827Y01074*
X00822Y0108*
X00818Y01083*
X00818Y01087*
X00815Y01094*
X0081Y011*
X00804Y01105*
X008Y01107*
X00799Y01107*
X008Y01112*
X00801Y01112*
X00806Y01111*
X00813Y01112*
X00818Y01114*
X00822Y01112*
X00827Y01112*
X00832Y01107*
X00831Y01106*
X00832Y01098*
X00835Y01091*
X0084Y01084*
X00847Y0108*
X00854Y01077*
X00862Y01076*
X0087Y01077*
X00877Y0108*
X00883Y01084*
X00888Y01091*
X00891Y01098*
X00892Y01106*
X00891Y01114*
X00889Y01117*
X00891Y01122*
X00892Y0113*
X00891Y01137*
X00888Y01145*
X00886Y01148*
X00886Y01151*
X00885Y01159*
X00884Y01161*
X00887Y01167*
X00888Y01175*
X00887Y01182*
X00884Y01189*
X00879Y01195*
X00873Y012*
X00872Y012*
X00873Y01205*
X00912*
Y01321*
X01121*
Y01202*
X01119Y01199*
X01116Y01192*
X01115Y01185*
X01116Y01177*
X01119Y0117*
X01124Y01164*
X0113Y01159*
X01137Y01156*
X01145Y01155*
X01152Y01156*
X01159Y01159*
X01161Y01161*
X01168Y0116*
X01169Y01159*
X01175Y01154*
X01183Y01151*
X01183Y01151*
X01184Y0115*
X01189Y01143*
X01195Y01139*
X01196Y01138*
Y01133*
X01195Y01132*
X01189Y01127*
X01184Y01121*
X01181Y01114*
X0118Y01106*
X01181Y01098*
X01184Y01091*
X01189Y01084*
X01195Y0108*
X01198Y01073*
X01203Y01067*
X01209Y01062*
X01216Y01059*
X01224Y01058*
X01232Y01059*
X01239Y01062*
X01241Y01063*
X01242Y01062*
X0125Y01059*
X01257Y01058*
X01265Y01059*
X01272Y01062*
X01279Y01067*
X01284Y01073*
X01285Y01077*
X01292Y0108*
X01298Y01084*
X01303Y01091*
X01306Y01098*
X01307Y01106*
X01306Y01114*
X01303Y01121*
X01298Y01127*
X01292Y01132*
X01285Y01135*
X01277Y01136*
X0127Y01135*
X01268Y01138*
X01268Y0114*
X01273Y01143*
X01278Y0115*
X01278Y01151*
X01281Y01151*
X01288Y01154*
X01295Y01159*
X01299Y01165*
X01302Y01173*
X01303Y01181*
X01302Y01188*
X01299Y01196*
X01295Y01202*
X01288Y01207*
X01281Y0121*
X01273Y01211*
X01265Y0121*
X01258Y01207*
X01252Y01203*
X01247Y01207*
X01241Y01209*
X01242Y01216*
X01241Y01224*
X01238Y01231*
X01241Y01238*
X01242Y01246*
X01241Y01253*
X01238Y01261*
X01233Y01267*
X01227Y01272*
X0122Y01275*
X01212Y01276*
X01204Y01275*
X01198Y01272*
X01192Y01275*
X01185Y01276*
X01177Y01275*
X01173Y01273*
X01168Y01277*
Y01321*
X01581*
Y0127*
X01576Y01268*
X01576Y01268*
X0157Y01273*
X01563Y01276*
X01556Y01277*
X01548Y01276*
X01543Y01274*
X01537Y01276*
X0153Y01277*
X01522Y01276*
X01517Y01274*
X01512Y01276*
X01505Y01277*
X01497Y01276*
X0149Y01273*
X01484Y01268*
X01479Y01262*
X01476Y01255*
X01475Y01248*
X01476Y0124*
X01477Y01238*
X01474Y0123*
X01473Y01223*
X01474Y01215*
X01477Y01207*
X01482Y01201*
X01483Y012*
X01484Y01194*
X01481Y0119*
X01478Y01183*
X01477Y01176*
X01478Y01171*
X01474Y01168*
X01469Y01162*
X01466Y01154*
X01465Y01147*
X01466Y01139*
X01469Y01131*
X01474Y01125*
X0148Y0112*
X01488Y01117*
X01492Y01117*
X01493Y01112*
X01491Y0111*
X01486Y01104*
X01483Y01096*
X01483Y01095*
X01482Y01095*
X01476Y0109*
X01471Y01084*
X01468Y01076*
X01467Y01068*
X01468Y01061*
X01471Y01053*
X01476Y01047*
X01482Y01042*
X0149Y01039*
X01498Y01038*
X01505Y01039*
X01513Y01042*
X01519Y01047*
X01524Y01053*
X01527Y01061*
X01527Y01062*
X01528Y01062*
X01534Y01067*
X01539Y01073*
X01539Y01074*
X01544Y01073*
Y01061*
X01182Y00699*
X01175*
X01174Y007*
X01167Y00703*
X0116Y00704*
X01152Y00703*
X01145Y007*
X01139Y00695*
X01134Y00689*
X01131Y00682*
X0113Y00675*
X01131Y00667*
X01134Y0066*
X01139Y00654*
X01145Y00649*
X01147Y00648*
X01146Y00647*
X01145Y0064*
X01146Y00632*
X01149Y00625*
X01154Y00619*
X0116Y00614*
X01167Y00611*
X01175Y0061*
X01182Y00611*
X01189Y00614*
X01195Y00619*
X012Y00625*
X01203Y00632*
X01203Y00633*
X01607Y01037*
X01612Y01045*
X01614Y01055*
Y01081*
X01615Y01082*
X01618Y01089*
X01619Y01097*
X01618Y01105*
X01615Y01112*
X0161Y01118*
X01604Y01122*
X01597Y01125*
X01596Y01125*
X01595Y0113*
X0159Y01136*
X01584Y01141*
X01576Y01144*
X01569Y01145*
X01561Y01144*
X01553Y01141*
X01547Y01136*
X01547Y01136*
X01542Y01138*
X01543Y01139*
X01544Y01147*
X01543Y01154*
X0154Y01162*
X01537Y01165*
X01538Y01166*
X01538Y01167*
X01544Y01169*
X01548Y01167*
X01556Y01166*
X01563Y01167*
X0157Y0117*
X01576Y01175*
X01581Y01181*
X01584Y01188*
X01585Y01196*
X01584Y01202*
X01585Y01205*
X01587Y01207*
X01598*
X01598Y01206*
X01603Y012*
X01609Y01195*
X01617Y01192*
X01625Y01191*
X01632Y01192*
X01636Y01194*
X01641Y01191*
X01641Y0119*
X01644Y01183*
X01649Y01177*
X01655Y01172*
X01662Y01169*
X0167Y01168*
X01677Y01169*
X01684Y01172*
X0169Y01177*
X01695Y01183*
X01698Y0119*
X01699Y01198*
X01698Y01202*
X01702Y01207*
X01712*
X01715Y00834*
X01715Y00738*
X01715Y00733*
X01715Y00728*
X01714Y00712*
X01713Y00711*
X01708Y00715*
X01708Y00716*
X01705Y00724*
X017Y0073*
X01694Y00735*
X01686Y00738*
X01679Y00739*
X01671Y00738*
X01665Y00735*
X01658Y00738*
X01651Y00739*
X01643Y00738*
X01637Y00735*
X0163Y00738*
X01623Y00739*
X01615Y00738*
X01607Y00735*
X01601Y0073*
X01596Y00724*
X01593Y00716*
X01592Y00709*
X01593Y00701*
X01596Y00693*
X01601Y00687*
X01607Y00682*
X01615Y00679*
X01623Y00678*
X0163Y00679*
X01637Y00682*
X01643Y00679*
X01651Y00678*
X01658Y00679*
X01665Y00682*
X01671Y00679*
X01679Y00678*
X01686Y00679*
X01694Y00682*
X017Y00687*
X01705Y00693*
X01705Y00694*
X0171Y00692*
X01708Y00686*
X01699Y00663*
X01686Y00643*
X01672Y00626*
X0167Y00625*
X0167Y00625*
X01618*
X01608Y00623*
X016Y00618*
X01595Y0061*
X01593Y00601*
Y00546*
X01537Y0049*
X01536Y00489*
X01517Y00472*
X01494Y00456*
X0147Y00442*
X01444Y00432*
X01417Y00424*
X0139Y00419*
X01364Y00418*
X01362Y00418*
X00434*
X00433Y00418*
X00405Y00419*
X00376Y00424*
X00348Y00432*
X00321Y00443*
X00295Y00458*
X00271Y00475*
X00253Y00491*
X0025Y00494*
X00246Y00498*
X00236Y00508*
Y00548*
X00234Y00557*
X00229Y00565*
X00221Y0057*
X00212Y00572*
X00168*
X00114Y00625*
X00113Y00626*
X00099Y00643*
X00087Y00662*
X00078Y00683*
X00073Y00706*
X00071Y00727*
X00071Y00729*
Y01595*
X00135*
X00138Y01591*
X00138Y0159*
X00139Y01582*
X00142Y01575*
X00146Y01569*
X00152Y01564*
X00159Y01561*
X00167Y0156*
X00175Y01561*
X00182Y01564*
X00188Y01569*
X00191*
X00197Y01564*
X00204Y01561*
X00212Y0156*
X0022Y01561*
X00227Y01564*
X00233Y01569*
X00237Y01575*
X0024Y01582*
X00241Y0159*
X00241Y01591*
X00244Y01595*
X00277*
X00295Y01577*
G37*
%LNflexnodepcb_copper_signal_2-2*%
%LPC*%
G36*
X00568Y02042D02*
X0056Y02041D01*
X00553Y02036*
X00546Y02041*
X00538Y02042*
X0053Y02041*
X00523Y02036*
X00518Y02029*
X00517Y02021*
X00518Y02013*
X00523Y02006*
X0053Y02001*
X00538Y01999*
X00546Y02001*
X00553Y02006*
X0056Y02001*
X00568Y01999*
X00576Y02001*
X00583Y02006*
X00588Y02013*
X0059Y02021*
X00588Y02029*
X00583Y02036*
X00576Y02041*
X00568Y02042*
G37*
G36*
X00628Y02051D02*
X0062Y02049D01*
X00613Y02045*
X00609Y02038*
X00607Y0203*
X00609Y02021*
X00613Y02014*
X0062Y0201*
X00628Y02008*
X00637Y0201*
X00643Y02014*
X00648Y02021*
X0065Y0203*
X00648Y02038*
X00643Y02045*
X00637Y02049*
X00628Y02051*
G37*
G36*
X00538Y01987D02*
X0053Y01986D01*
X00525Y01982*
X0052Y01986*
X00512Y01987*
X00504Y01986*
X00497Y01981*
X00492Y01974*
X00491Y01966*
X00492Y01958*
X00497Y01951*
X00504Y01946*
X00512Y01944*
X0052Y01946*
X00525Y01949*
X0053Y01946*
X00538Y01944*
X00547Y01946*
X00552Y0195*
X00558Y01946*
X00566Y01944*
X00574Y01946*
X00581Y01951*
X00586Y01958*
X00587Y01966*
X00586Y01974*
X00581Y01981*
X00574Y01986*
X00566Y01987*
X00558Y01986*
X00552Y01982*
X00547Y01986*
X00538Y01987*
G37*
G36*
X00162Y02001D02*
X00154Y01999D01*
X00147Y01995*
X00142Y01988*
X00141Y0198*
X00142Y01971*
X00147Y01964*
X00154Y0196*
X00162Y01958*
X0017Y0196*
X00177Y01964*
X00182Y01971*
X00184Y0198*
X00182Y01988*
X00177Y01995*
X0017Y01999*
X00162Y02001*
G37*
G36*
X00785Y02001D02*
X00777Y01999D01*
X0077Y01994*
X00766Y01988*
X00764Y01979*
X00766Y01971*
X0077Y01964*
X00777Y0196*
X00785Y01958*
X00794Y0196*
X00801Y01964*
X00805Y01971*
X00807Y01979*
X00805Y01988*
X00801Y01994*
X00794Y01999*
X00785Y02001*
G37*
G36*
X00855Y01986D02*
X00846Y01984D01*
X00839Y0198*
X00835Y01973*
X00833Y01965*
X00835Y01956*
X00839Y01949*
X00846Y01945*
X00855Y01943*
X00863Y01945*
X0087Y01949*
X00874Y01956*
X00876Y01965*
X00874Y01973*
X0087Y0198*
X00863Y01984*
X00855Y01986*
G37*
G36*
X01261Y01953D02*
X01253Y01951D01*
X01246Y01946*
X01241Y01939*
X0124Y01931*
X01241Y01923*
X01246Y01916*
X01253Y01911*
X01261Y0191*
X01269Y01911*
X01276Y01916*
X01281Y01923*
X01283Y01931*
X01281Y01939*
X01276Y01946*
X01269Y01951*
X01261Y01953*
G37*
G36*
X00677Y0198D02*
X00669Y01978D01*
X00662Y01973*
X00657Y01966*
X00656Y01958*
X00657Y0195*
X0066Y01946*
X00657Y01945*
X00652Y01938*
X00651Y0193*
X00652Y01921*
X00657Y01914*
X00664Y0191*
X00668Y01909*
X0067Y01901*
X00674Y01894*
X00681Y0189*
X0069Y01888*
X00698Y0189*
X00705Y01894*
X00709Y01901*
X00711Y0191*
X00709Y01918*
X00705Y01925*
X00698Y01929*
X00693Y0193*
X00692Y01938*
X00689Y01941*
X00692Y01943*
X00697Y0195*
X00698Y01958*
X00697Y01966*
X00692Y01973*
X00685Y01978*
X00677Y0198*
G37*
G36*
X00154Y01927D02*
X00146Y01925D01*
X00139Y0192*
X00135Y01913*
X00133Y01905*
X00135Y01897*
X00139Y0189*
X00146Y01885*
X00154Y01884*
X00163Y01885*
X0017Y0189*
X00174Y01897*
X00176Y01905*
X00174Y01913*
X0017Y0192*
X00163Y01925*
X00154Y01927*
G37*
G36*
X01015Y01911D02*
X01006Y01909D01*
X00999Y01905*
X00995Y01898*
X00993Y0189*
X00995Y01881*
X00999Y01874*
X01006Y0187*
X01015Y01868*
X01023Y0187*
X0103Y01874*
X01034Y01881*
X01036Y0189*
X01034Y01898*
X0103Y01905*
X01023Y01909*
X01015Y01911*
G37*
G36*
X01202Y01904D02*
X01193Y01902D01*
X01186Y01897*
X01182Y0189*
X0118Y01882*
X01182Y01874*
X01184Y01871*
X0118Y01867*
X01179Y01868*
X0117Y01869*
X0116Y01868*
X01152Y01864*
X01144Y01858*
X01138Y01851*
X01135Y01842*
X01134Y01833*
X01135Y01824*
X01138Y01815*
X01144Y01808*
X01152Y01802*
X0116Y01798*
X0117Y01797*
X01179Y01798*
X01187Y01802*
X01195Y01808*
X01201Y01815*
X01204Y01824*
X01205Y01833*
X01204Y01842*
X01201Y01851*
X01196Y01857*
X01199Y01861*
X01202Y01861*
X0121Y01862*
X01217Y01867*
X01221Y01874*
X01223Y01882*
X01221Y0189*
X01217Y01897*
X0121Y01902*
X01202Y01904*
G37*
G36*
X01407Y0189D02*
X01399Y01888D01*
X01392Y01883*
X01387Y01876*
X01386Y01868*
X01387Y0186*
X01392Y01853*
X01399Y01848*
X01407Y01847*
X01415Y01848*
X01422Y01853*
X01427Y0186*
X01428Y01868*
X01427Y01876*
X01422Y01883*
X01415Y01888*
X01407Y0189*
G37*
G36*
X01126Y01869D02*
X01055D01*
Y01797*
X01126*
Y01869*
G37*
G36*
X00801D02*
X0073D01*
Y01797*
X00801*
Y01869*
G37*
G36*
X01269Y01901D02*
X01261Y019D01*
X01254Y01895*
X01249Y01888*
X01248Y0188*
X01249Y01874*
X01249Y01873*
X01246Y01869*
X01245Y01869*
X01239Y01868*
X0123Y01864*
X01223Y01858*
X01217Y01851*
X01214Y01842*
X01212Y01833*
X01214Y01824*
X01217Y01815*
X01223Y01808*
X0123Y01802*
X01239Y01798*
X01248Y01797*
X01258Y01798*
X01266Y01802*
X01274Y01808*
X01279Y01815*
X01283Y01824*
X01284Y01833*
X01283Y01842*
X01279Y01851*
X01277Y01855*
X01277Y01858*
X01278Y01861*
X01284Y01865*
X01289Y01872*
X01291Y0188*
X01289Y01888*
X01284Y01895*
X01277Y019*
X01269Y01901*
G37*
G36*
X00923Y01869D02*
X00914Y01868D01*
X00905Y01864*
X00898Y01858*
X00892Y01851*
X00889Y01842*
X00887Y01833*
X00889Y01824*
X00892Y01815*
X00898Y01808*
X00905Y01802*
X00914Y01798*
X00923Y01797*
X00933Y01798*
X00941Y01802*
X00949Y01808*
X00954Y01815*
X00958Y01824*
X00959Y01833*
X00958Y01842*
X00954Y01851*
X00949Y01858*
X00941Y01864*
X00933Y01868*
X00923Y01869*
G37*
G36*
X00845D02*
X00835Y01868D01*
X00827Y01864*
X00819Y01858*
X00813Y01851*
X0081Y01842*
X00809Y01833*
X0081Y01824*
X00813Y01815*
X00819Y01808*
X00827Y01802*
X00835Y01798*
X00845Y01797*
X00854Y01798*
X00862Y01802*
X0087Y01808*
X00876Y01815*
X00879Y01824*
X0088Y01833*
X00879Y01842*
X00876Y01851*
X0087Y01858*
X00862Y01864*
X00854Y01868*
X00845Y01869*
G37*
G36*
X00568Y01906D02*
X0056Y01904D01*
X00553Y019*
X00548Y01893*
X00546Y01885*
X00548Y01876*
X00553Y01869*
X0056Y01865*
X00568Y01863*
X00572Y01864*
X00574Y01859*
X00573Y01858*
X00567Y01851*
X00564Y01842*
X00562Y01833*
X00564Y01824*
X00567Y01815*
X00573Y01808*
X0058Y01802*
X00589Y01798*
X00598Y01797*
X00608Y01798*
X00616Y01802*
X00624Y01808*
X00629Y01815*
X00633Y01824*
X00634Y01833*
X00633Y01842*
X00629Y01851*
X00624Y01858*
X00616Y01864*
X00608Y01868*
X00598Y01869*
X00589Y01868*
X00587Y01867*
X00584Y01871*
X00588Y01876*
X00589Y01885*
X00588Y01893*
X00583Y019*
X00576Y01904*
X00568Y01906*
G37*
G36*
X0052Y01869D02*
X0051Y01868D01*
X00502Y01864*
X00494Y01858*
X00488Y01851*
X00485Y01842*
X00484Y01833*
X00485Y01824*
X00488Y01815*
X00494Y01808*
X00502Y01802*
X0051Y01798*
X0052Y01797*
X00529Y01798*
X00537Y01802*
X00545Y01808*
X00551Y01815*
X00554Y01824*
X00555Y01833*
X00554Y01842*
X00551Y01851*
X00545Y01858*
X00537Y01864*
X00529Y01868*
X0052Y01869*
G37*
G36*
X01321Y01882D02*
X01312Y0188D01*
X01305Y01875*
X01301Y01868*
X01299Y0186*
X01301Y01852*
X01305Y01845*
X01312Y0184*
X01318Y01839*
X01319Y01838*
X01317Y01833*
X01316Y01833*
X01309Y01828*
X01305Y01821*
X01303Y01813*
X01305Y01805*
X01309Y01798*
X01316Y01793*
X01325Y01791*
X01325Y01791*
X01325Y01791*
X01329Y01784*
X01336Y0178*
X01345Y01778*
X01353Y0178*
X0136Y01784*
X01364Y01791*
X01366Y01798*
X0137Y018*
X01371Y018*
X0138Y01798*
X01388Y018*
X01389Y018*
X01389Y01799*
X01396Y01795*
X01405Y01793*
X01413Y01795*
X0142Y01799*
X01424Y01806*
X01426Y01815*
X01424Y01823*
X0142Y0183*
X01413Y01834*
X01405Y01836*
X01396Y01834*
X01395Y01834*
X01395Y01835*
X01388Y01839*
X0138Y01841*
X01371Y01839*
X01364Y01835*
X0136Y01828*
X01358Y01821*
X01354Y01819*
X01353Y01819*
X01347Y0182*
X01345Y01824*
X01347Y01829*
X0135Y0183*
X01357Y01834*
X01362Y01841*
X01363Y0185*
X01362Y01858*
X01357Y01865*
X0135Y01869*
X01342Y01871*
X01339Y0187*
X01336Y01875*
X01329Y0188*
X01321Y01882*
G37*
G36*
X00985Y01793D02*
X00976Y01791D01*
X00969Y01787*
X00966Y01782*
X00963Y01784*
X00955Y01786*
X00946Y01784*
X00943Y01782*
X00939Y0178*
X00935Y01782*
X00931Y01784*
X00923Y01786*
X00915Y01784*
X00908Y0178*
X00903Y01773*
X00902Y01765*
X00903Y01756*
X00908Y01749*
X00915Y01745*
X00923Y01743*
X00931Y01745*
X00938Y01749*
X00939*
X00946Y01745*
X00955Y01743*
X00963Y01745*
X0097Y01749*
X00973Y01754*
X00976Y01752*
X00985Y0175*
X00993Y01752*
X01Y01756*
X01004Y01763*
X01006Y01772*
X01004Y0178*
X01Y01787*
X00993Y01791*
X00985Y01793*
G37*
G36*
X00213Y0182D02*
X00205Y01818D01*
X00198Y01813*
X00193Y01806*
X00192Y01798*
X00193Y0179*
X00198Y01783*
X00205Y01778*
X00213Y01777*
X00221Y01778*
X00228Y01783*
X00233Y0179*
X00235Y01798*
X00233Y01806*
X00228Y01813*
X00221Y01818*
X00213Y0182*
G37*
G36*
X00095D02*
X00086Y01818D01*
X00079Y01813*
X00075Y01806*
X00073Y01798*
X00075Y0179*
X00079Y01783*
X00086Y01778*
X00095Y01777*
X00103Y01778*
X0011Y01783*
X00114Y0179*
X00116Y01798*
X00114Y01806*
X0011Y01813*
X00103Y01818*
X00095Y0182*
G37*
G36*
X01464Y01811D02*
X01455Y01809D01*
X01449Y01805*
X01444Y01798*
X01442Y0179*
X01444Y01781*
X01449Y01774*
X01455Y0177*
X01463Y01768*
X01465Y01761*
X01469Y01754*
X01476Y0175*
X01485Y01748*
X01493Y0175*
X015Y01754*
X01504Y01761*
X01506Y0177*
X01504Y01778*
X015Y01785*
X01493Y01789*
X01485Y01791*
X01483Y01798*
X01479Y01805*
X01472Y01809*
X01464Y01811*
G37*
G36*
X0087Y01786D02*
X00861Y01784D01*
X00854Y0178*
X0085Y01773*
X00848Y01765*
X0085Y01756*
X00854Y01749*
X00861Y01745*
X0087Y01743*
X00878Y01745*
X00885Y01749*
X00889Y01756*
X00891Y01765*
X00889Y01773*
X00885Y0178*
X00878Y01784*
X0087Y01786*
G37*
G36*
X00301Y01962D02*
X00291Y01961D01*
X00282Y01957*
X00274Y01951*
X00268Y01943*
X00264Y01934*
X00263Y01924*
X00264Y01914*
X00268Y01905*
X00274Y01897*
X00282Y01891*
X00291Y01887*
X00292Y01887*
Y01882*
X00291Y01882*
X00282Y01878*
X00274Y01872*
X00268Y01864*
X00264Y01855*
X00263Y01845*
X00264Y01835*
X00268Y01826*
X00274Y01818*
X00282Y01812*
X00291Y01808*
X00292Y01808*
Y01803*
X00291Y01803*
X00282Y01799*
X00274Y01793*
X00268Y01785*
X00264Y01776*
X00263Y01766*
X00264Y01757*
X00268Y01747*
X00274Y01739*
X00282Y01733*
X00291Y0173*
X00301Y01728*
X00311Y0173*
X0032Y01733*
X00328Y01739*
X00334Y01747*
X00338Y01757*
X00339Y01766*
X00338Y01776*
X00334Y01785*
X00328Y01793*
X0032Y01799*
X00311Y01803*
X0031Y01803*
Y01808*
X00311Y01808*
X0032Y01812*
X00328Y01818*
X00334Y01826*
X00338Y01835*
X00339Y01845*
X00338Y01855*
X00334Y01864*
X00328Y01872*
X0032Y01878*
X00311Y01882*
X0031Y01882*
Y01887*
X00311Y01887*
X0032Y01891*
X00328Y01897*
X00334Y01905*
X00338Y01914*
X00339Y01924*
X00338Y01934*
X00334Y01943*
X00328Y01951*
X0032Y01957*
X00311Y01961*
X00301Y01962*
G37*
G36*
X00695Y01791D02*
X00686Y01789D01*
X00679Y01785*
X00675Y01778*
X00673Y0177*
X00674Y01766*
X00672Y01761*
X00664Y01759*
X00657Y01755*
X00652Y01748*
X00651Y0174*
X00652Y01731*
X00657Y01724*
X00664Y0172*
X00672Y01718*
X0068Y0172*
X00687Y01724*
X00692Y01731*
X00693Y0174*
X00693Y0174*
X00697Y01745*
X00701Y01745*
X00702Y01736*
X00707Y01729*
X00714Y01725*
X00722Y01723*
X0073Y01725*
X00737Y01729*
X00742Y01736*
X00743Y01745*
X00742Y01753*
X00737Y0176*
X0073Y01764*
X00722Y01766*
X00719Y01765*
X00716Y01769*
X00716Y0177*
X00714Y01778*
X0071Y01785*
X00703Y01789*
X00695Y01791*
G37*
G36*
X00792Y01777D02*
X00785Y01776D01*
X00778Y01773*
X00773Y01769*
X00768Y01763*
X00766Y01757*
X00765Y0175*
X00766Y01742*
X00768Y01736*
X00773Y0173*
X00778Y01726*
X00785Y01723*
X00792Y01722*
X00799Y01723*
X00806Y01726*
X00811Y0173*
X00816Y01736*
X00818Y01742*
X00819Y0175*
X00818Y01757*
X00816Y01763*
X00811Y01769*
X00806Y01773*
X00799Y01776*
X00792Y01777*
G37*
G36*
X00476Y01869D02*
X00405D01*
Y01797*
X00447*
X00447Y01792*
X00444Y01792*
X00437Y01787*
X00434Y01783*
X00426Y01782*
X00419Y01777*
X00415Y0177*
X00413Y01762*
X00415Y01754*
X00418Y0175*
X00415Y01745*
X00413Y01737*
X00415Y01729*
X00419Y01722*
X00426Y01717*
X00434Y01716*
X00437Y01712*
X00444Y01707*
X00452Y01706*
X0046Y01707*
X00467Y01712*
X00472Y01719*
X00473Y01727*
X00472Y01735*
X0047Y01738*
X00472Y01741*
X00473Y0175*
X00472Y01758*
X0047Y01761*
X00472Y01764*
X00473Y01772*
X00472Y0178*
X00467Y01787*
X0046Y01792*
X00457Y01792*
X00457Y01797*
X00476*
Y01869*
G37*
G36*
X01087Y01738D02*
X01079Y01737D01*
X01072Y01732*
X01067Y01725*
X01066Y01717*
X01067Y01709*
X01072Y01702*
X01079Y01697*
X01087Y01696*
X01095Y01697*
X01102Y01702*
X01107Y01709*
X01108Y01717*
X01107Y01725*
X01102Y01732*
X01095Y01737*
X01087Y01738*
G37*
G36*
X01335Y01731D02*
X01326Y01729D01*
X01319Y01725*
X01315Y01718*
X01313Y0171*
X01315Y01701*
X01319Y01694*
X01326Y0169*
X01335Y01688*
X01343Y0169*
X0135Y01694*
X01354Y01701*
X01356Y0171*
X01354Y01718*
X0135Y01725*
X01343Y01729*
X01335Y01731*
G37*
G36*
X01139Y01739D02*
X0113Y01737D01*
X01123Y01733*
X01119Y01726*
X01117Y01718*
X01119Y01709*
X01117Y01703*
X01113Y01701*
X01109Y01694*
X01107Y01686*
X01109Y01677*
X01113Y0167*
X0112Y01666*
X01129Y01664*
X01137Y01666*
X01144Y0167*
X01148Y01677*
X0115Y01684*
X01154Y01687*
X01155Y01687*
X01164Y01685*
X01172Y01687*
X01179Y01691*
X01183Y01698*
X01185Y01707*
X01183Y01715*
X01179Y01722*
X01172Y01726*
X01164Y01728*
X01158Y01727*
X01154Y01733*
X01147Y01737*
X01139Y01739*
G37*
G36*
X00213Y01723D02*
X00205Y01722D01*
X00198Y01717*
X00193Y0171*
X00192Y01702*
X00193Y01694*
X00198Y01687*
X00205Y01682*
X00213Y01681*
X00221Y01682*
X00228Y01687*
X00233Y01694*
X00235Y01702*
X00233Y0171*
X00228Y01717*
X00221Y01722*
X00213Y01723*
G37*
G36*
X00096D02*
X00088Y01722D01*
X00081Y01717*
X00076Y0171*
X00074Y01702*
X00076Y01694*
X00081Y01687*
X00088Y01682*
X00096Y01681*
X00104Y01682*
X00111Y01687*
X00116Y01694*
X00117Y01702*
X00116Y0171*
X00111Y01717*
X00104Y01722*
X00096Y01723*
G37*
G36*
X0137Y01696D02*
X01361Y01694D01*
X01354Y0169*
X0135Y01683*
X01348Y01675*
X0135Y01666*
X01354Y01659*
X01361Y01655*
X0137Y01653*
X01378Y01655*
X01385Y01659*
X01389Y01666*
X01391Y01675*
X01389Y01683*
X01385Y0169*
X01378Y01694*
X0137Y01696*
G37*
G36*
X013D02*
X01291Y01694D01*
X01284Y0169*
X0128Y01683*
X01278Y01675*
X0128Y01666*
X01284Y01659*
X01291Y01655*
X013Y01653*
X01308Y01655*
X01315Y01659*
X01319Y01666*
X01321Y01675*
X01319Y01683*
X01315Y0169*
X01308Y01694*
X013Y01696*
G37*
G36*
X0105Y01651D02*
X01041Y01649D01*
X01034Y01645*
X01031Y0164*
X01025Y0164*
X01023Y01643*
X01016Y01648*
X01008Y01649*
X01Y01648*
X00993Y01643*
X00988Y01636*
X00987Y01628*
X00988Y0162*
X00993Y01613*
X01Y01608*
X01008Y01607*
X01016Y01608*
X01023Y01613*
X01026Y01617*
X01032Y01617*
X01034Y01614*
X01041Y0161*
X0105Y01608*
X01058Y0161*
X01065Y01614*
X01069Y01621*
X01071Y0163*
X01069Y01638*
X01065Y01645*
X01058Y01649*
X0105Y01651*
G37*
G36*
X01517Y01666D02*
X01509Y01664D01*
X01502Y0166*
X01497Y01653*
X01496Y01645*
X01497Y01636*
X01502Y01629*
X01509Y01625*
X01517Y01623*
X01525Y01625*
X01532Y01629*
X01537Y01636*
X01539Y01645*
X01537Y01653*
X01532Y0166*
X01525Y01664*
X01517Y01666*
G37*
G36*
X01405Y01661D02*
X01396Y01659D01*
X01389Y01655*
X01385Y01648*
X01383Y0164*
X01385Y01631*
X01389Y01624*
X01396Y0162*
X01405Y01618*
X01413Y0162*
X0142Y01624*
X01424Y01631*
X01426Y0164*
X01424Y01648*
X0142Y01655*
X01413Y01659*
X01405Y01661*
G37*
G36*
X01335D02*
X01326Y01659D01*
X01319Y01655*
X01315Y01648*
X01313Y0164*
X01315Y01631*
X01319Y01624*
X01326Y0162*
X01335Y01618*
X01343Y0162*
X0135Y01624*
X01354Y01631*
X01356Y0164*
X01354Y01648*
X0135Y01655*
X01343Y01659*
X01335Y01661*
G37*
G36*
X01265D02*
X01256Y01659D01*
X01249Y01655*
X01245Y01648*
X01243Y0164*
X01245Y01631*
X01249Y01624*
X01256Y0162*
X01265Y01618*
X01273Y0162*
X0128Y01624*
X01284Y01631*
X01286Y0164*
X01284Y01648*
X0128Y01655*
X01273Y01659*
X01265Y01661*
G37*
G36*
X01163Y01653D02*
X01155Y01651D01*
X01148Y01647*
X01144Y0164*
X01142Y01631*
X01144Y01623*
X01148Y01616*
X01155Y01612*
X01163Y0161*
X01172Y01612*
X01179Y01616*
X01183Y01623*
X01185Y01631*
X01183Y0164*
X01179Y01647*
X01172Y01651*
X01163Y01653*
G37*
G36*
X00837Y01633D02*
X00829Y01632D01*
X00822Y01627*
X00817Y0162*
X00816Y01612*
X00817Y01604*
X00822Y01597*
X00829Y01592*
X00837Y01591*
X00845Y01592*
X00852Y01597*
X00857Y01604*
X00858Y01612*
X00857Y0162*
X00852Y01627*
X00845Y01632*
X00837Y01633*
G37*
G36*
X0137Y01626D02*
X01361Y01624D01*
X01354Y0162*
X0135Y01613*
X01348Y01605*
X0135Y01596*
X01354Y01589*
X01361Y01585*
X0137Y01583*
X01378Y01585*
X01385Y01589*
X01389Y01596*
X01391Y01605*
X01389Y01613*
X01385Y0162*
X01378Y01624*
X0137Y01626*
G37*
G36*
X013D02*
X01291Y01624D01*
X01284Y0162*
X0128Y01613*
X01278Y01605*
X0128Y01596*
X01284Y01589*
X01291Y01585*
X013Y01583*
X01308Y01585*
X01315Y01589*
X01319Y01596*
X01321Y01605*
X01319Y01613*
X01315Y0162*
X01308Y01624*
X013Y01626*
G37*
G36*
X01335Y01591D02*
X01326Y01589D01*
X01319Y01585*
X01315Y01578*
X01313Y0157*
X01315Y01561*
X01319Y01554*
X01326Y0155*
X01335Y01548*
X01343Y0155*
X0135Y01554*
X01354Y01561*
X01356Y0157*
X01354Y01578*
X0135Y01585*
X01343Y01589*
X01335Y01591*
G37*
G36*
X0149Y01611D02*
X01482Y01609D01*
X01475Y01605*
X0147Y01598*
X01468Y0159*
X0147Y01581*
X01475Y01574*
X01479Y01572*
Y01566*
X01477Y01565*
X01472Y01558*
X01471Y0155*
X01472Y01541*
X01477Y01534*
X01484Y0153*
X01492Y01528*
X015Y0153*
X01507Y01534*
X01512Y01541*
X01513Y01549*
X01517Y0155*
X01524Y01554*
X01529Y01561*
X01531Y0157*
X01529Y01578*
X01524Y01585*
X01517Y01589*
X01511Y01591*
X0151Y01598*
X01505Y01605*
X01498Y01609*
X0149Y01611*
G37*
G36*
X00877Y01596D02*
X00869Y01594D01*
X00862Y0159*
X00857Y01583*
X00856Y01575*
X00857Y01566*
X00862Y01559*
X00869Y01555*
X00877Y01553*
X00885Y01555*
X00886Y01554*
X00889Y01551*
X00885Y01545*
X00883Y01537*
X00885Y01529*
X00889Y01522*
X00896Y01517*
X00905Y01516*
X00913Y01517*
X0092Y01522*
X00924Y01529*
X00926Y01537*
X00924Y01545*
X0092Y01552*
X00913Y01557*
X00905Y01558*
X00896Y01557*
X00896Y01557*
X00893Y01561*
X00897Y01566*
X00898Y01575*
X00897Y01583*
X00892Y0159*
X00885Y01594*
X00877Y01596*
G37*
G36*
X01095Y01516D02*
X01086Y01514D01*
X01079Y0151*
X01075Y01503*
X01073Y01495*
X01073Y01494*
X01069Y01491*
X01068Y01492*
X0106Y01493*
X01051Y01492*
X01044Y01487*
X0104Y0148*
X01038Y01472*
X0104Y01464*
X01044Y01457*
X01051Y01452*
X0106Y01451*
X01068Y01452*
X01075Y01457*
X01079Y01464*
X01081Y01472*
X01081Y01473*
X01085Y01476*
X01086Y01475*
X01095Y01473*
X01103Y01475*
X0111Y01479*
X01114Y01486*
X01116Y01495*
X01114Y01503*
X0111Y0151*
X01103Y01514*
X01095Y01516*
G37*
G36*
X01452Y01518D02*
X01444Y01517D01*
X01437Y01512*
X01432Y01505*
X01431Y01497*
X01432Y01489*
X01437Y01482*
X01444Y01477*
X01452Y01476*
X0146Y01477*
X01467Y01482*
X01472Y01489*
X01473Y01497*
X01472Y01505*
X01467Y01512*
X0146Y01517*
X01452Y01518*
G37*
G36*
X01512Y01511D02*
X01504Y01509D01*
X01497Y01504*
X01492Y01497*
X0149Y01489*
X01492Y01481*
X01497Y01474*
X01504Y01469*
X01512Y01468*
X0152Y01469*
X01527Y01474*
X01532Y01481*
X01533Y01489*
X01532Y01497*
X01527Y01504*
X0152Y01509*
X01512Y01511*
G37*
G36*
X01403Y01503D02*
X01395Y01502D01*
X01388Y01497*
X01383Y0149*
X01382Y01482*
X01383Y01474*
X01388Y01467*
X01395Y01462*
X01403Y01461*
X01411Y01462*
X01418Y01467*
X01423Y01474*
X01425Y01482*
X01423Y0149*
X01418Y01497*
X01411Y01502*
X01403Y01503*
G37*
G36*
X01599Y01483D02*
X0159Y01481D01*
X01583Y01477*
X01579Y0147*
X01577Y01462*
X01579Y01453*
X01583Y01446*
X01585Y01445*
X01585Y01439*
X01582Y01434*
X0158Y01426*
X01582Y01417*
X01586Y0141*
X01593Y01406*
X01602Y01404*
X0161Y01406*
X01617Y0141*
X01621Y01417*
X01623Y01426*
X01621Y01434*
X01617Y01441*
X01615Y01442*
X01615Y01448*
X01618Y01453*
X0162Y01462*
X01618Y0147*
X01614Y01477*
X01607Y01481*
X01599Y01483*
G37*
G36*
X0141Y01441D02*
X01401Y01439D01*
X01394Y01435*
X0139Y01428*
X01388Y0142*
X0139Y01411*
X01394Y01404*
X01401Y014*
X0141Y01398*
X01418Y014*
X01425Y01404*
X01429Y01411*
X01431Y0142*
X01429Y01428*
X01425Y01435*
X01418Y01439*
X0141Y01441*
G37*
G36*
X01645Y01413D02*
X01636Y01412D01*
X01629Y01407*
X01625Y014*
X01623Y01392*
X01625Y01384*
X01629Y01377*
X01636Y01372*
X01645Y01371*
X01653Y01372*
X0166Y01377*
X01664Y01384*
X01666Y01392*
X01664Y014*
X0166Y01407*
X01653Y01412*
X01645Y01413*
G37*
G36*
X00461Y01381D02*
X00453Y0138D01*
X00446Y01377*
X0044Y01373*
X00435Y01367*
X00433Y0136*
X00432Y01352*
X00433Y01344*
X00435Y01337*
X0044Y01331*
X00446Y01327*
X00453Y01324*
X00461Y01323*
X00468Y01324*
X00475Y01327*
X00481Y01331*
X00486Y01337*
X00489Y01344*
X0049Y01352*
X00489Y0136*
X00486Y01367*
X00481Y01373*
X00475Y01377*
X00468Y0138*
X00461Y01381*
G37*
G36*
X00301Y01264D02*
X00293Y01263D01*
X00286Y0126*
X00279Y01255*
X00279*
X00272Y0126*
X00265Y01263*
X00257Y01264*
X0025Y01263*
X00242Y0126*
X0024Y01258*
X00236Y01255*
X00232Y01258*
X00229Y0126*
X00222Y01263*
X00214Y01264*
X00206Y01263*
X00199Y0126*
X00193Y01255*
X00192*
X00186Y0126*
X00179Y01263*
X00171Y01264*
X00163Y01263*
X00156Y0126*
X00149Y01255*
X00149*
X00143Y0126*
X00135Y01263*
X00127Y01264*
X0012Y01263*
X00112Y0126*
X00106Y01255*
X00101Y01249*
X00098Y01242*
X00097Y01234*
X00098Y01226*
X00101Y01219*
X00106Y01212*
X00112Y01208*
X0012Y01205*
X00125Y01204*
X00128Y01201*
X00134Y01196*
X00141Y01193*
X00149Y01192*
X00157Y01193*
X00164Y01196*
X0017Y01201*
X00175Y01198*
X00177Y01196*
X00185Y01193*
X00192Y01192*
X002Y01193*
X00208Y01196*
X00214Y01201*
X00214*
X00221Y01196*
X00228Y01193*
X00236Y01192*
X00244Y01193*
X00251Y01196*
X00257Y01201*
X00258*
X00264Y01196*
X00271Y01193*
X00279Y01192*
X00287Y01193*
X00294Y01196*
X003Y01201*
X00303Y01204*
X00309Y01205*
X00311Y012*
X00311Y012*
X00306Y01194*
X00304Y01188*
X00301Y01187*
X00295Y01182*
X0029Y01176*
X00287Y01169*
X00286Y01161*
X00287Y01153*
X0029Y01146*
X00295Y0114*
X00301Y01135*
X00309Y01132*
X00313Y01131*
X00314Y01126*
X00309Y01124*
X00303Y01119*
X00302*
X00296Y01124*
X00289Y01127*
X00281Y01128*
X00273Y01127*
X00266Y01124*
X00263Y01122*
X00259Y01119*
X00255Y01122*
X00253Y01124*
X00246Y01127*
X00238Y01128*
X0023Y01127*
X00223Y01124*
X00216Y01119*
X00216*
X0021Y01124*
X00202Y01127*
X00194Y01128*
X00187Y01127*
X00179Y01124*
X00174Y0112*
X00173Y0112*
X00171Y0112*
X00166Y01124*
X00159Y01127*
X00151Y01128*
X00143Y01127*
X00136Y01124*
X0013Y01119*
X00129Y01118*
X00122Y01117*
X00114Y01114*
X00108Y01109*
X00103Y01103*
X001Y01096*
X00099Y01088*
X001Y0108*
X00103Y01073*
X00108Y01067*
X00114Y01062*
X00122Y01059*
X00129Y01058*
X00137Y01059*
X00145Y01062*
X00151Y01067*
X00156Y01065*
X00158Y01064*
X00165Y01061*
X00173Y0106*
X00181Y01061*
X00188Y01064*
X0019Y01065*
X00195Y01067*
X00201Y01062*
X00208Y01059*
X00216Y01058*
X00224Y01059*
X00231Y01062*
X00237Y01067*
X00238*
X00244Y01062*
X00252Y01059*
X00259Y01058*
X00267Y01059*
X00274Y01062*
X00281Y01067*
X00281*
X00288Y01062*
X00295Y01059*
X00303Y01058*
X0031Y01059*
X00318Y01062*
X00322Y01065*
X00325Y01066*
X00329Y01065*
X00333Y01062*
X0034Y01059*
X00348Y01058*
X00356Y01059*
X00363Y01062*
X00369Y01067*
X0037Y01068*
X00377Y01069*
X00385Y01072*
X00391Y01077*
X00396Y01083*
X00399Y0109*
X004Y01098*
X00399Y01106*
X00396Y01113*
X00391Y01119*
X00385Y01124*
X00379Y01126*
X00379Y01126*
X0038Y01131*
X00381Y01131*
X00385Y01131*
X00393Y01132*
X004Y01135*
X00407Y0114*
X00412Y01146*
X00415Y01153*
X00416Y01161*
X00415Y01169*
X00412Y01176*
X00407Y01182*
X004Y01187*
X00396Y01189*
X00394Y01194*
X00389Y012*
X00383Y01205*
X00375Y01208*
X00368Y01209*
X0036Y01208*
X00352Y01205*
X0035Y01203*
X00347Y01205*
X0034Y01208*
X00332Y01209*
X00324Y01208*
X00322Y01212*
X00322Y01212*
X00327Y01219*
X0033Y01226*
X00331Y01234*
X0033Y01242*
X00327Y01249*
X00322Y01255*
X00316Y0126*
X00309Y01263*
X00301Y01264*
G37*
G36*
X00561Y01256D02*
X00553Y01255D01*
X00549Y01254*
X00544Y01255*
X00537Y01256*
X00529Y01255*
X00525Y01254*
X00521Y01255*
X00513Y01256*
X00506Y01255*
X00499Y01252*
X00493Y01248*
X00488Y01242*
X00485Y01235*
X00484Y01227*
X00485Y01219*
X00488Y01212*
X00493Y01206*
X00499Y01202*
X00506Y01199*
X00513Y01198*
X00521Y01199*
X00525Y01201*
X00529Y01199*
X00537Y01198*
X00544Y01199*
X00549Y01201*
X00553Y01199*
X00561Y01198*
X00568Y01199*
X00575Y01202*
X00581Y01206*
X00586Y01212*
X00589Y01219*
X0059Y01227*
X00589Y01235*
X00586Y01242*
X00581Y01248*
X00575Y01252*
X00568Y01255*
X00561Y01256*
G37*
G36*
X01055Y01286D02*
X01047Y01285D01*
X01039Y01282*
X01033Y01277*
X01028Y01271*
X01025Y01263*
X01024Y01255*
X01025Y01248*
X01028Y0124*
X01033Y01234*
X01039Y01229*
X01047Y01226*
X01055Y01225*
X01062Y01226*
X0107Y01229*
X01076Y01234*
X01081Y0124*
X01084Y01248*
X01085Y01255*
X01084Y01263*
X01081Y01271*
X01076Y01277*
X0107Y01282*
X01062Y01285*
X01055Y01286*
G37*
G36*
X01007Y01209D02*
X01Y01208D01*
X00992Y01205*
X0099Y01203*
X00988Y01205*
X00981Y01208*
X00973Y01209*
X00965Y01208*
X00958Y01205*
X00951Y012*
X00948Y01195*
X00946Y01195*
X00939Y01192*
X00933Y01187*
X00928Y01181*
X00925Y01173*
X00924Y01166*
X00925Y01158*
X00928Y01151*
X00933Y01144*
X00939Y01139*
X00946Y01136*
X00953Y01135*
X00954Y01133*
X00955Y0113*
X00951Y01127*
X00946Y01121*
X00944Y01116*
X00939Y01114*
X00933Y01109*
X00928Y01103*
X00925Y01096*
X00924Y01088*
X00925Y0108*
X00928Y01073*
X00933Y01067*
X00939Y01062*
X00946Y01059*
X00954Y01058*
X00962Y01059*
X00969Y01062*
X00972Y01064*
X00975Y01062*
X00982Y01059*
X0099Y01058*
X00997Y01059*
X01005Y01062*
X01007Y01064*
X0101Y01062*
X01017Y01059*
X01025Y01058*
X01033Y01059*
X0104Y01062*
X01043Y01064*
X01045Y01062*
X01053Y01059*
X01061Y01058*
X01068Y01059*
X01076Y01062*
X01078Y01064*
X01081Y01062*
X01088Y01059*
X01096Y01058*
X01104Y01059*
X01111Y01062*
X01117Y01067*
X01122Y01073*
X01125Y0108*
X01126Y01088*
X01125Y01096*
X01122Y01103*
X01117Y01109*
X01111Y01114*
X01106Y01116*
X01104Y01121*
X011Y01127*
X01093Y01132*
X01086Y01135*
X01078Y01136*
X0107Y01135*
X01063Y01132*
X01061Y0113*
X01058Y01132*
X01051Y01135*
X01045Y01136*
X01043Y01141*
X01046Y01143*
X01051Y0115*
X01054Y01157*
X01055Y01165*
X01054Y01173*
X01051Y0118*
X01046Y01186*
X0104Y01191*
X01034Y01194*
X01029Y012*
X01022Y01205*
X01015Y01208*
X01007Y01209*
G37*
G36*
X00702Y01114D02*
X00694Y01113D01*
X00691Y01111*
X00687Y01113*
X0068Y01114*
X00672Y01113*
X00664Y0111*
X00658Y01105*
X00656Y01102*
X00651Y01103*
X00643Y01102*
X00636Y01099*
X0063Y01094*
X00625Y01087*
X00622Y0108*
X00621Y01072*
X00622Y01064*
X00625Y01057*
X0063Y01051*
X00636Y01046*
X00643Y01043*
X00651Y01042*
X00651Y01042*
X00657Y01037*
X00664Y01034*
X00664Y01034*
X00669Y01028*
X00672Y01026*
X00672Y01023*
X00673Y01015*
X00676Y01008*
X00681Y01002*
X00687Y00997*
X00694Y00994*
X00702Y00993*
X0071Y00994*
X00717Y00997*
X00724Y01002*
X00728Y01008*
X00731Y01015*
X00733Y01023*
X00731Y01031*
X00728Y01038*
X00727Y0104*
X00729Y01042*
X00734Y01048*
X00737Y01056*
X00738Y01064*
X00737Y01071*
X00734Y01079*
X00731Y01082*
X00732Y01084*
X00731Y01091*
X00728Y01099*
X00723Y01105*
X00717Y0111*
X00709Y01113*
X00702Y01114*
G37*
G36*
X01671Y00941D02*
X01663Y0094D01*
X01657Y00938*
X01653Y0094*
X01646Y00941*
X01638Y0094*
X01635Y00938*
X0163Y0094*
X01623Y00941*
X01615Y0094*
X01607Y00937*
X01601Y00933*
X01596Y00926*
X01593Y00919*
X01592Y00911*
X01593Y00903*
X01596Y00896*
X01601Y0089*
X01607Y00885*
X01615Y00882*
X01623Y00881*
X0163Y00882*
X01636Y00884*
X01638Y00883*
X01646Y00882*
X01653Y00883*
X01656Y00885*
X01663Y00882*
X01671Y00881*
X01678Y00882*
X01686Y00885*
X01692Y0089*
X01697Y00896*
X017Y00903*
X01701Y00911*
X017Y00919*
X01697Y00926*
X01692Y00933*
X01686Y00937*
X01678Y0094*
X01671Y00941*
G37*
G36*
X00185Y00888D02*
X00177Y00887D01*
X00173Y00885*
X00169Y00887*
X00161Y00888*
X00153Y00887*
X00149Y00885*
X00145Y00887*
X00137Y00888*
X00129Y00887*
X00122Y00884*
X00116Y00879*
X00111Y00873*
X00108Y00866*
X00107Y00858*
X00108Y0085*
X00111Y00843*
X00116Y00836*
X00122Y00832*
X00129Y00829*
X00137Y00828*
X00145Y00829*
X00149Y0083*
X00153Y00829*
X00161Y00828*
X00169Y00829*
X00173Y0083*
X00177Y00829*
X00185Y00828*
X00192Y00829*
X002Y00832*
X00206Y00836*
X00211Y00843*
X00214Y0085*
X00215Y00858*
X00214Y00866*
X00211Y00873*
X00206Y00879*
X002Y00884*
X00192Y00887*
X00185Y00888*
G37*
G36*
X00187Y00715D02*
X00179Y00714D01*
X00175Y00712*
X00171Y00714*
X00163Y00715*
X00155Y00714*
X0015Y00712*
X00145Y00714*
X00137Y00715*
X00129Y00714*
X00122Y00711*
X00116Y00706*
X00111Y007*
X00108Y00692*
X00107Y00685*
X00108Y00677*
X00111Y00669*
X00116Y00663*
X00122Y00658*
X00129Y00655*
X00137Y00654*
X00145Y00655*
X0015Y00657*
X00155Y00655*
X00163Y00654*
X00171Y00655*
X00175Y00657*
X00179Y00655*
X00187Y00654*
X00194Y00655*
X00202Y00658*
X00208Y00663*
X00213Y00669*
X00216Y00677*
X00217Y00685*
X00216Y00692*
X00213Y007*
X00208Y00706*
X00202Y00711*
X00194Y00714*
X00187Y00715*
G37*
G36*
X00905Y00689D02*
X00889Y00687D01*
X00874Y00683*
X0086Y00676*
X00848Y00666*
X00838Y00654*
X00831Y0064*
X00827Y00625*
X00825Y0061*
X00827Y00594*
X00831Y00579*
X00838Y00565*
X00848Y00553*
X0086Y00543*
X00874Y00536*
X00889Y00532*
X00905Y0053*
X0092Y00532*
X00935Y00536*
X00949Y00543*
X00961Y00553*
X00971Y00565*
X00978Y00579*
X00982Y00594*
X00984Y0061*
X00982Y00625*
X00978Y0064*
X00971Y00654*
X00961Y00666*
X00949Y00676*
X00935Y00683*
X0092Y00687*
X00905Y00689*
G37*
G36*
X0148Y00684D02*
X01464Y00682D01*
X01449Y00678*
X01435Y00671*
X01423Y00661*
X01413Y00649*
X01406Y00635*
X01402Y0062*
X014Y00605*
X01402Y00589*
X01406Y00574*
X01413Y0056*
X01423Y00548*
X01435Y00538*
X01449Y00531*
X01464Y00527*
X0148Y00525*
X01495Y00527*
X0151Y00531*
X01524Y00538*
X01536Y00548*
X01546Y0056*
X01553Y00574*
X01557Y00589*
X01559Y00605*
X01557Y0062*
X01553Y00635*
X01546Y00649*
X01536Y00661*
X01524Y00671*
X0151Y00678*
X01495Y00682*
X0148Y00684*
G37*
G36*
X0034D02*
X00324Y00682D01*
X00309Y00678*
X00295Y00671*
X00283Y00661*
X00273Y00649*
X00266Y00635*
X00262Y0062*
X0026Y00605*
X00262Y00589*
X00266Y00574*
X00273Y0056*
X00283Y00548*
X00295Y00538*
X00309Y00531*
X00324Y00527*
X0034Y00525*
X00355Y00527*
X0037Y00531*
X00384Y00538*
X00396Y00548*
X00406Y0056*
X00413Y00574*
X00417Y00589*
X00419Y00605*
X00417Y0062*
X00413Y00635*
X00406Y00649*
X00396Y00661*
X00384Y00671*
X0037Y00678*
X00355Y00682*
X0034Y00684*
G37*
G36*
X011Y00589D02*
X01084Y00587D01*
X01069Y00583*
X01055Y00576*
X01043Y00566*
X01033Y00554*
X01026Y0054*
X01022Y00525*
X0102Y0051*
X01022Y00494*
X01026Y00479*
X01033Y00465*
X01043Y00453*
X01055Y00443*
X01069Y00436*
X01084Y00432*
X011Y0043*
X01115Y00432*
X0113Y00436*
X01144Y00443*
X01156Y00453*
X01166Y00465*
X01173Y00479*
X01177Y00494*
X01179Y0051*
X01177Y00525*
X01173Y0054*
X01166Y00554*
X01156Y00566*
X01144Y00576*
X0113Y00583*
X01115Y00587*
X011Y00589*
G37*
G36*
X0052D02*
X00504Y00587D01*
X00489Y00583*
X00475Y00576*
X00463Y00566*
X00453Y00554*
X00446Y0054*
X00442Y00525*
X0044Y0051*
X00442Y00494*
X00446Y00479*
X00453Y00465*
X00463Y00453*
X00475Y00443*
X00489Y00436*
X00504Y00432*
X0052Y0043*
X00535Y00432*
X0055Y00436*
X00564Y00443*
X00576Y00453*
X00586Y00465*
X00593Y00479*
X00597Y00494*
X00599Y0051*
X00597Y00525*
X00593Y0054*
X00586Y00554*
X00576Y00566*
X00564Y00576*
X0055Y00583*
X00535Y00587*
X0052Y00589*
G37*
%LNflexnodepcb_copper_signal_2-3*%
%LPD*%
G54D13*
X0116Y00675D02*
X01193D01*
X01569Y0105*
Y01115*
X01175Y0064D02*
X0159Y01055D01*
Y01097*
G54D14*
X01173Y01403D02*
X01192Y01422D01*
X01346*
X01145Y01342D02*
X01173Y0137D01*
Y01403*
X01145Y01185D02*
Y01342D01*
G54D15*
X00781Y01306D02*
Y01307D01*
X00836Y01362D02*
X00838D01*
X00781Y01307D02*
X00836Y01362D01*
G54D89*
X011Y0051D03*
X0052D03*
X01295D03*
X00705D03*
G54D90*
X0096Y0207D03*
X01035D03*
G54D92*
X01681Y01748D03*
G54D93*
X01091Y01833D03*
X00766D03*
X00441D03*
G54D95*
X01705Y0155D03*
Y0165D03*
Y0145D03*
G54D96*
X0161Y01819D03*
X0154Y0189D03*
X01469Y0196D03*
X01398Y02031D03*
G54D97*
X00301Y01766D03*
Y02003D03*
Y01845D03*
Y01924D03*
G54D98*
X01248Y01833D03*
X00923D03*
X00598D03*
X00845D03*
X0117D03*
X0052D03*
G54D99*
X00905Y0061D03*
X0034Y00605D03*
X0148D03*
G54D100*
X00213Y01702D03*
Y01798D03*
X00452Y01772D03*
Y0175D03*
Y01727D03*
X00435Y01737D03*
X01087Y01717D03*
X00162Y0198D03*
X00435Y01762D03*
X00185Y01642D03*
X00212Y0159D03*
X00167D03*
X00095Y01798D03*
X00096Y01702D03*
X0026Y0158D03*
X0141Y0142D03*
X01408Y0145D03*
X01377Y01868D03*
X01407D03*
X0079Y0108D03*
X0078Y01057D03*
X00561Y01227D03*
X00537D03*
X00461Y01352D03*
X00513Y01227D03*
X01505Y01248D03*
X0153D03*
X0167Y01198D03*
X01556Y01248D03*
X01646Y00912D03*
X01531Y01223D03*
X01507Y01176D03*
X01556Y01196D03*
X00816Y01164D03*
X00859Y01175D03*
X01645Y0102D03*
X0167D03*
X01617D03*
X01547Y01317D03*
X01298Y01236D03*
Y01208D03*
X01719Y01007D03*
X01094Y00985D03*
X0094Y01296D03*
X00939Y01255D03*
X01008Y01211D03*
X00955Y0122D03*
X01074Y00985D03*
X01054D03*
X01308Y00983D03*
X01288D03*
X01719Y00967D03*
X01308Y00963D03*
X01288D03*
X01248Y00983D03*
X01268D03*
X01228D03*
X01268Y00963D03*
X01248D03*
X01718Y00887D03*
Y00847D03*
Y00927D03*
Y00807D03*
X01676Y0079D03*
X01651D03*
X01626Y00791D03*
X01329Y00963D03*
X01034Y00985D03*
X01188Y00983D03*
X01014Y00985D03*
X01208Y00983D03*
X01014Y00965D03*
X00994D03*
X00974Y00985D03*
X00994D03*
X00954D03*
X00974Y00965D03*
X01094D03*
X01188Y00963D03*
X01074Y00965D03*
X01228Y00963D03*
X01208D03*
X01034Y00965D03*
X01054D03*
X00954Y00964D03*
X00254Y01267D03*
X00214Y01268D03*
X00294Y01267D03*
X00179Y01047D03*
X00174Y01268D03*
X00128Y01269D03*
X00085Y01265D03*
X00084Y01221D03*
Y01181D03*
X00083Y01101D03*
Y01141D03*
X00146Y01047D03*
X00083Y01021D03*
Y01061D03*
X00335Y00987D03*
X00315D03*
X00255D03*
X00295D03*
X00275D03*
X00355D03*
X00375D03*
X00315Y00967D03*
X00355D03*
X00375D03*
X00335D03*
X00255D03*
X00275D03*
X00228Y00978D03*
X00295Y00967D03*
X00177Y00978D03*
X00205D03*
X00147D03*
X00164Y00913D03*
X00185D03*
X00139D03*
X00114Y00991D03*
X00113Y00962D03*
X00082Y00976D03*
Y00936D03*
X00165Y00739D03*
X00141D03*
X00187Y00738D03*
X00114D03*
X00082Y00896D03*
X00081Y00816D03*
Y00856D03*
Y00736D03*
Y00776D03*
X01261Y01931D03*
X01623Y01563D03*
X01599Y01462D03*
X01602Y01426D03*
X01627Y01589D03*
X01604Y01591D03*
X01346Y01422D03*
X01164Y01707D03*
X01139Y01718D03*
X01129Y01686D03*
X00546Y01588D03*
X00578D03*
X00672Y0174D03*
X00695Y0177D03*
X00722Y01745D03*
X01645Y01392D03*
X01452Y01497D03*
X00837Y01612D03*
X00615Y01622D03*
X00628Y0203D03*
X00662Y0204D03*
X00568Y01885D03*
X00537Y01905D03*
X00675Y01605D03*
X01335Y0171D03*
X0137Y01675D03*
X013D03*
X01405Y0164D03*
X01335D03*
X0137Y01605D03*
X01265Y0164D03*
X013Y01605D03*
X01335Y0157D03*
X0105Y0163D03*
X00905Y01537D03*
X00877Y01575D03*
X0116Y00675D03*
X00785Y01979D03*
X00855Y01965D03*
X00538Y01966D03*
X00566Y01966D03*
X0069Y0191D03*
X00512Y01966D03*
X00154Y01905D03*
X01403Y01482D03*
X01512Y01489D03*
X0064Y01598D03*
X00705Y01605D03*
X01175Y0064D03*
X0075Y01924D03*
X01611Y0172D03*
X00411Y01966D03*
X00985Y01772D03*
X00923Y01765D03*
X00955D03*
X0087D03*
X01163Y01631D03*
X00568Y02021D03*
X00538D03*
X00672Y0193D03*
X00677Y01958D03*
X01202Y01882D03*
X01269Y0188D03*
X00791Y02016D03*
X00666Y01989D03*
X0106Y01472D03*
X00547Y01555D03*
X01405Y01815D03*
X01509Y0157D03*
X0149Y0159D03*
X01325Y01813D03*
X00605Y01577D03*
X01095Y01495D03*
X01345Y018D03*
X01145Y01185D03*
X01517Y01645D03*
X0151Y0175D03*
X01365Y0195D03*
X0159Y01097D03*
X01205Y01755D03*
X01008Y01628D03*
X01321Y0186D03*
X01342Y0185D03*
X0138Y0182D03*
X01464Y0179D03*
X01485Y0177D03*
X01492Y0155D03*
X01015Y0189D03*
G54D101*
X004Y01549D03*
Y01506D03*
X00357Y01549D03*
Y01506D03*
X00314Y01549D03*
Y01506D03*
G54D102*
X01282Y01387D03*
X0131D03*
X01273Y01181D03*
X01227Y01387D03*
X01255D03*
X01199Y01387D03*
X01212Y01246D03*
Y01216D03*
X01232Y01181D03*
X0119D03*
X0121Y01165D03*
X01251D03*
X01144Y01387D03*
X01185Y01246D03*
X01081Y01387D03*
X01115D03*
X01185Y01216D03*
X00705Y0145D03*
Y01405D03*
X00665Y0149D03*
Y0145D03*
X01055Y01255D03*
X00973Y01179D03*
X00665Y01365D03*
X01007Y01179D03*
X01025Y01165D03*
X00954Y01166D03*
X0099Y01165D03*
X00837Y01164D03*
X00856Y01151D03*
X00806Y01142D03*
X0083D03*
X00862Y0113D03*
X01277Y01106D03*
X0121D03*
X01078D03*
X0124D03*
X01096Y01088D03*
X01061D03*
X01498Y01068D03*
X01513Y01089D03*
X01224Y01088D03*
X01257D03*
X01007Y01106D03*
X01043D03*
X00862D03*
X00972D03*
X0099Y01088D03*
X01025D03*
X00954D03*
X00801Y01059D03*
X00673Y01064D03*
X0062Y01405D03*
X00665D03*
X0062Y0149D03*
Y0145D03*
Y01365D03*
X0058Y0145D03*
Y01405D03*
X00127Y01234D03*
X00171D03*
X00257D03*
X00301D03*
X00214D03*
X00385Y01161D03*
X00651Y01072D03*
X0037Y01098D03*
X00368Y01179D03*
X00332D03*
X0035Y01161D03*
X00348Y01088D03*
X00324Y01098D03*
X00316Y01161D03*
X00236Y01222D03*
X00279D03*
X00238Y01098D03*
X00192Y01222D03*
X00149D03*
X00194Y01098D03*
X00151D03*
X00281D03*
X00259Y01088D03*
X00173Y0109D03*
X00216Y01088D03*
X00303D03*
X00187Y00685D03*
X00185Y00858D03*
X00161D03*
X00129Y01088D03*
X00137Y00858D03*
X00163Y00685D03*
X00137D03*
X01514Y01147D03*
X01496D03*
X01623Y00911D03*
X01671D03*
X01679Y00709D03*
X01651D03*
X01623D03*
X01625Y01222D03*
X01504Y01223D03*
X0068Y01084D03*
X00691Y0105D03*
X00702Y01084D03*
X00708Y01064D03*
X00702Y01023D03*
X00595Y0128D03*
X01569Y01115D03*
X0163Y0127D03*
G54D106*
X00792Y0175D03*
G54D107*
X00838Y01362D03*
X00781Y01306D03*
M02*