%FSTAX23Y23*%
%MOIN*%
%SFA1B1*%

%IPPOS*%
%AMD92*
4,1,4,0.000000,-0.043100,0.043100,0.000000,0.000000,0.043100,-0.043100,0.000000,0.000000,-0.043100,0.0*
%
%ADD89C,0.118110*%
%ADD90C,0.048000*%
G04~CAMADD=92~10~0.0~610.2~0.0~0.0~0.0~0.0~0~0.0~0.0~0.0~0.0~0~0.0~0.0~0.0~0.0~0~0.0~0.0~0.0~225.0~610.2~0.0*
%ADD92D92*%
%ADD93R,0.047244X0.047244*%
%ADD95C,0.060000*%
%ADD96C,0.061024*%
%ADD97C,0.051496*%
%ADD98C,0.047244*%
%ADD99C,0.118110*%
%ADD100C,0.018000*%
%ADD101C,0.019685*%
%ADD102C,0.020000*%
%ADD104R,0.100000X0.025000*%
%ADD105R,0.100000X0.025000*%
%ADD106C,0.030000*%
%ADD107C,0.035430*%
%LNflexnodepcb_copper_signal_1-1*%
%LPD*%
G36*
X01353Y02069D02*
X01354Y02069D01*
X0137Y02062*
X0137Y02062*
X01371Y02062*
X01371Y02056*
X01366Y02049*
X01363Y0204*
X01361Y02031*
X01363Y02021*
X01366Y02013*
X01372Y02005*
X0138Y01999*
X01389Y01995*
X01398Y01994*
X01408Y01995*
X01416Y01999*
X01424Y02005*
X01426Y02008*
X01431Y02008*
X01446Y01994*
X01446Y01989*
X01443Y01986*
X01437Y01979*
X01433Y0197*
X01432Y0196*
X01433Y01951*
X01437Y01942*
X01443Y01934*
X0145Y01928*
X01459Y01925*
X01469Y01923*
X01478Y01925*
X01487Y01928*
X01495Y01934*
X01497Y01937*
X01502Y01937*
X01517Y01923*
X01516Y01918*
X01513Y01916*
X01508Y01908*
X01504Y01899*
X01503Y0189*
X01504Y0188*
X01508Y01871*
X01513Y01863*
X01521Y01858*
X0153Y01854*
X0154Y01853*
X01549Y01854*
X01558Y01858*
X01566Y01863*
X01568Y01866*
X01573Y01867*
X01587Y01852*
X01587Y01847*
X01584Y01845*
X01578Y01837*
X01575Y01828*
X01573Y01819*
X01575Y01809*
X01578Y018*
X01584Y01793*
X01592Y01787*
X01601Y01783*
X0161Y01782*
X0162Y01783*
X01629Y01787*
X01636Y01793*
X01639Y01796*
X01644Y01796*
X01689Y0175*
X01689Y0175*
X0169Y0175*
X01701Y01737*
X0171Y01722*
X0171Y01722*
X01716Y01706*
X01716Y01706*
X0172Y01689*
X01721Y01686*
X01717Y01683*
X01714Y01685*
X01705Y01686*
X01695Y01685*
X01686Y01681*
X01679Y01675*
X01673Y01668*
X01669Y01659*
X01668Y0165*
X01669Y0164*
X01673Y01631*
X01679Y01624*
X01686Y01618*
X01695Y01614*
X01705Y01613*
X01714Y01614*
X01718Y01616*
X01722Y01613*
X01723Y01586*
X01718Y01583*
X01714Y01585*
X01705Y01586*
X01695Y01585*
X01686Y01581*
X01679Y01575*
X01673Y01568*
X01669Y01559*
X01668Y0155*
X01669Y0154*
X01673Y01531*
X01679Y01524*
X01686Y01518*
X01695Y01514*
X01705Y01513*
X01714Y01514*
X01718Y01516*
X01723Y01513*
X01723Y01486*
X01718Y01483*
X01714Y01485*
X01705Y01486*
X01695Y01485*
X01686Y01481*
X01679Y01475*
X01673Y01468*
X01669Y01459*
X01668Y0145*
X01669Y0144*
X01673Y01431*
X01679Y01424*
X01686Y01418*
X01695Y01414*
X01705Y01413*
X01714Y01414*
X01719Y01417*
X01724Y01413*
X01726Y01244*
X01722Y01241*
X01613*
Y01257*
X01618Y01258*
X01618Y01258*
X01623Y01254*
X0163Y01253*
X01636Y01254*
X01641Y01258*
X01645Y01263*
X01646Y0127*
X01645Y01276*
X01641Y01281*
X01636Y01285*
X0163Y01286*
X01623Y01285*
X01618Y01281*
X01618Y01281*
X01613Y01282*
Y01375*
X01612Y01376*
X01443*
X01428Y01362*
X01407Y0134*
X01345Y01401*
X01345Y01403*
X01347Y01406*
X01351Y01407*
X01356Y01411*
X0136Y01416*
X01361Y01422*
X0136Y01427*
X01356Y01432*
X01351Y01436*
X01346Y01437*
X0134Y01436*
X01335Y01432*
X01331Y01427*
X0133Y01422*
X01328Y01421*
X01325Y0142*
X0132Y01425*
X01317Y01427*
X01314Y01429*
X01314Y01429*
X01314Y01429*
X0131Y0143*
X01306Y01431*
X01306Y01431*
X01306Y01431*
X01302Y0143*
X01298Y01429*
X01294Y01427*
X01292Y01426*
X01292*
X01287Y01432*
X01014*
Y01229*
X00966*
X00965Y0123*
X0096Y01234*
X00955Y01235*
X00949Y01234*
X00944Y0123*
X00943Y01229*
X00887*
X00804Y01312*
X00804Y01315*
X00798Y01323*
X0079Y01329*
X00787Y01329*
X00757Y01359*
Y0153*
X00756Y01538*
X00751Y01545*
X00745Y01549*
X00737Y0155*
X00567*
X00562Y01555*
X00561Y0156*
X00558Y01565*
X00553Y01569*
X00553Y01569*
X00552Y01571*
X00552Y01574*
X00556Y01577*
X00559Y0158*
X0056Y01581*
X00563*
X00564Y0158*
X00567Y01577*
X00572Y01573*
X00578Y01572*
X00583Y01573*
X00585Y01574*
X0059Y01572*
X0059Y01571*
X00594Y01566*
X00599Y01563*
X00605Y01562*
X0061Y01563*
X00615Y01566*
X00619Y01571*
X0062Y01577*
X00619Y01583*
X00615Y01588*
X0061Y01591*
X00605Y01592*
X00599Y01591*
X00597Y0159*
X00592Y01593*
X00592Y01593*
X00588Y01598*
X00583Y01602*
X00578Y01603*
X00572Y01602*
X00567Y01598*
X00564Y01595*
X00563Y01594*
X0056*
X00559Y01595*
X00556Y01598*
X00551Y01602*
X00546Y01603*
X0054Y01602*
X00535Y01598*
X00531Y01593*
X0053Y01588*
X00531Y01582*
X00535Y01577*
X0054Y01573*
X0054Y01573*
X0054Y01571*
X0054Y01568*
X00536Y01565*
X00533Y0156*
X00532Y01555*
X00527Y0155*
X00477*
X00444Y01584*
X00437Y01588*
X00432Y01589*
X00432Y0159*
X00431*
X0043Y0159*
X00425*
X00423Y0159*
X00411*
Y01593*
X00299*
Y0159*
X00282*
X00279Y01586*
X00277Y01586*
X00273Y01587*
X00272Y01587*
X0027Y0159*
X00265Y01594*
X0026Y01595*
X00254Y01594*
X00249Y0159*
X00245Y01585*
X00244Y0158*
X00245Y01574*
X00249Y01569*
X00251Y01567*
X00252Y01561*
X00173Y01482*
X00057*
Y01685*
Y02035*
X00057Y02035*
Y02035*
X00059Y02045*
X00062Y02054*
X00069Y02062*
X00069Y02063*
X00077Y02069*
X00083Y02071*
X00928*
X00929Y0207*
X0093Y02062*
X00933Y02054*
X00938Y02048*
X00944Y02043*
X00952Y0204*
X0096Y02039*
X00967Y0204*
X00975Y02043*
X00981Y02048*
X00986Y02054*
X00989Y02062*
X0099Y0207*
X00991Y02071*
X01003*
X01004Y0207*
X01005Y02062*
X01008Y02054*
X01013Y02048*
X01019Y02043*
X01027Y0204*
X01035Y02039*
X01042Y0204*
X0105Y02043*
X01056Y02048*
X01061Y02054*
X01064Y02062*
X01065Y0207*
X01066Y02071*
X01343*
X01353Y02069*
G37*
G36*
X00469Y0153D02*
X00531D01*
X00532Y01529*
X00539Y01526*
X00547Y01525*
X00555Y01526*
X00562Y01529*
X00563Y0153*
X00737*
Y01346*
X00752Y01331*
X00748Y01325*
X00744Y01316*
X00743Y01306*
X00744Y01296*
X00748Y01287*
X00754Y01279*
X00762Y01273*
X00771Y01269*
X00781Y01268*
X00791Y01269*
X008Y01273*
X00806Y01277*
X00881Y01201*
X00932*
X00934Y01199*
X0094Y01194*
X00947Y01191*
X00955Y0119*
X00962Y01191*
X00969Y01194*
X00975Y01199*
X00975Y01199*
X00981Y01198*
X00982Y01196*
X00987Y0119*
X00993Y01185*
X01Y01182*
X01008Y01181*
X01015Y01182*
X01022Y01185*
X01028Y0119*
X01033Y01196*
X01035Y01201*
X01036*
Y01204*
X01037Y01211*
X01036Y01217*
Y01406*
X01302*
Y01408*
X01306Y0141*
X01411Y01308*
X01417Y01314*
X01455Y01355*
X01587*
Y01219*
X01712*
X01713Y01035*
X01711Y01035*
X01704Y01032*
X01702Y0103*
X01696Y01032*
X01695Y01034*
X0169Y0104*
X01684Y01045*
X01677Y01048*
X0167Y01049*
X01662Y01048*
X01657Y01046*
X01652Y01048*
X01645Y01049*
X01637Y01048*
X01631Y01045*
X01625Y01048*
X01617Y01049*
X01609Y01048*
X01602Y01045*
X01596Y0104*
X01592Y01034*
X01589Y01027*
X01588Y0102*
X01589Y01012*
X01592Y01005*
X01596Y00999*
X01602Y00994*
X01609Y00991*
X01617Y0099*
X01625Y00991*
X01631Y00994*
X01637Y00991*
X01645Y0099*
X01652Y00991*
X01657Y00993*
X01662Y00991*
X0167Y0099*
X01677Y00991*
X01684Y00994*
X01686Y00996*
X01692Y00994*
X01693Y00992*
X01697Y00987*
X01693Y00981*
X0169Y00974*
X01689Y00967*
X0169Y00959*
X01693Y00952*
X01697Y00947*
X01693Y00941*
X0169Y00934*
X01689Y00927*
X0169Y00919*
X01693Y00912*
X01697Y00907*
X01693Y00901*
X0169Y00894*
X01689Y00887*
X0169Y00879*
X01693Y00872*
X01697Y00867*
X01693Y00861*
X0169Y00854*
X01689Y00847*
X0169Y00839*
X01693Y00832*
X01697Y00827*
X01693Y00821*
X0169Y00815*
X01683Y00818*
X01676Y00819*
X01668Y00818*
X01663Y00816*
X01658Y00818*
X01651Y00819*
X01643Y00818*
X01639Y00816*
X01633Y00819*
X01626Y0082*
X01618Y00819*
X01611Y00816*
X01605Y00811*
X016Y00805*
X01597Y00798*
X01596Y00791*
X01597Y00783*
X016Y00776*
X01605Y0077*
X01611Y00765*
X01618Y00762*
X01626Y00761*
X01633Y00762*
X01637Y00764*
X01643Y00761*
X01651Y0076*
X01658Y00761*
X01663Y00763*
X01668Y00761*
X01676Y0076*
X01683Y00761*
X0169Y00764*
X01696Y00769*
X01701Y00775*
X01703Y00781*
X0171Y00778*
X01715Y00778*
Y00738*
X01715Y00733*
X01715Y00728*
X01714Y00709*
X01708Y00686*
X01699Y00663*
X01686Y00643*
X01672Y00626*
X0167Y00625*
X0167Y00625*
X01618*
X01608Y00623*
X016Y00618*
X01595Y0061*
X01593Y00601*
Y00546*
X01537Y0049*
X01536Y00489*
X01517Y00472*
X01494Y00456*
X0147Y00442*
X01444Y00432*
X01417Y00424*
X0139Y00419*
X01364Y00418*
X01362Y00418*
X00434*
X00433Y00418*
X00405Y00419*
X00376Y00424*
X00348Y00432*
X00321Y00443*
X00295Y00458*
X00271Y00475*
X00253Y00491*
X0025Y00494*
X00246Y00498*
X00236Y00508*
Y00548*
X00234Y00557*
X00229Y00565*
X00221Y0057*
X00212Y00572*
X00168*
X00114Y00625*
X00113Y00626*
X00099Y00643*
X00087Y00662*
X00078Y00683*
X00074Y00702*
X00078Y00707*
X00078Y00707*
X00081Y00706*
X00089Y00707*
X00096Y0071*
X00099Y00712*
X00099Y00712*
X00106Y00709*
X00114Y00708*
X00121Y00709*
X00128Y00712*
X00128Y00712*
X00133Y0071*
X00141Y00709*
X00148Y0071*
X00153Y00712*
X00157Y0071*
X00165Y00709*
X00172Y0071*
X00174Y00711*
X00179Y00709*
X00187Y00708*
X00194Y00709*
X00201Y00712*
X00207Y00717*
X00212Y00723*
X00215Y0073*
X00216Y00738*
X00215Y00745*
X00212Y00752*
X00207Y00758*
X00201Y00763*
X00194Y00766*
X00187Y00767*
X00179Y00766*
X00177Y00765*
X00172Y00767*
X00165Y00768*
X00157Y00767*
X00153Y00765*
X00148Y00767*
X00141Y00768*
X00133Y00767*
X00126Y00764*
X00126Y00764*
X00121Y00766*
X00114Y00767*
X00113Y00767*
X0011Y00771*
X0011Y00776*
X00109Y00783*
X00106Y0079*
X00102Y00796*
X00106Y00801*
X00109Y00808*
X0011Y00816*
X00109Y00823*
X00106Y0083*
X00102Y00836*
X00106Y00841*
X00109Y00848*
X0011Y00856*
X00109Y00863*
X00106Y0087*
X00102Y00875*
X00107Y00881*
X0011Y00888*
X0011Y00893*
X00116Y00895*
X00118Y00892*
X00124Y00887*
X00131Y00884*
X00139Y00883*
X00146Y00884*
X00151Y00886*
X00156Y00884*
X00164Y00883*
X00171Y00884*
X00174Y00885*
X00177Y00884*
X00185Y00883*
X00192Y00884*
X00199Y00887*
X00205Y00892*
X0021Y00898*
X00213Y00905*
X00214Y00913*
X00213Y0092*
X0021Y00927*
X00205Y00933*
X00199Y00938*
X00192Y00941*
X00185Y00942*
X00177Y00941*
X00174Y0094*
X00171Y00941*
X00164Y00942*
X00156Y00941*
X00151Y00939*
X00146Y00941*
X00141Y00941*
X00139Y00946*
X00141Y00949*
X00147Y00948*
X00154Y00949*
X00161Y00952*
X00162Y00952*
X00162Y00952*
X00169Y00949*
X00177Y00948*
X00184Y00949*
X00191Y00952*
X00197Y00949*
X00205Y00948*
X00212Y00949*
X00216Y00951*
X0022Y00949*
X00228Y00948*
X00232Y00949*
X00234Y00946*
X0024Y00942*
X00247Y00939*
X00255Y00938*
X00262Y00939*
X00265Y0094*
X00267Y00939*
X00275Y00938*
X00282Y00939*
X00285Y0094*
X00287Y00939*
X00295Y00938*
X00302Y00939*
X00305Y0094*
X00307Y00939*
X00315Y00938*
X00322Y00939*
X00325Y0094*
X00327Y00939*
X00335Y00938*
X00342Y00939*
X00345Y0094*
X00347Y00939*
X00355Y00938*
X00362Y00939*
X00365Y0094*
X00367Y00939*
X00375Y00938*
X00382Y00939*
X00389Y00942*
X00395Y00946*
X004Y00952*
X00403Y00959*
X00404Y00967*
X00403Y00975*
X00402Y00977*
X00403Y00979*
X00404Y00987*
X00403Y00995*
X004Y01002*
X00395Y01008*
X00389Y01012*
X00382Y01015*
X00375Y01016*
X00367Y01015*
X00365Y01014*
X00362Y01015*
X00355Y01016*
X00347Y01015*
X00345Y01014*
X00342Y01015*
X00335Y01016*
X00327Y01015*
X00325Y01014*
X00322Y01015*
X00315Y01016*
X00307Y01015*
X00305Y01014*
X00302Y01015*
X00295Y01016*
X00287Y01015*
X00285Y01014*
X00282Y01015*
X00275Y01016*
X00267Y01015*
X00265Y01014*
X00262Y01015*
X00255Y01016*
X00247Y01015*
X0024Y01012*
X00234Y01008*
X00233Y01006*
X00228Y01007*
X0022Y01006*
X00216Y01004*
X00212Y01006*
X00205Y01007*
X00197Y01006*
X00191Y01003*
X00184Y01006*
X00177Y01007*
X00169Y01006*
X00162Y01003*
X00162Y01003*
X00161Y01003*
X00154Y01006*
X00147Y01007*
X00139Y01006*
X00139Y01006*
X00135Y01011*
X00129Y01016*
X00122Y01019*
X00114Y0102*
X00112Y01024*
X00111Y01028*
X00108Y01035*
X00104Y01041*
X00108Y01046*
X00111Y01053*
X00112Y01061*
X00111Y01068*
X00108Y01075*
X00104Y01081*
X00108Y01086*
X00111Y01093*
X00112Y01101*
X00111Y01108*
X00108Y01115*
X00104Y01121*
X00108Y01126*
X00111Y01133*
X00112Y01141*
X00111Y01148*
X00108Y01155*
X00104Y0116*
X00109Y01166*
X00112Y01173*
X00113Y01181*
X00112Y01188*
X00109Y01195*
X00105Y01201*
X00109Y01206*
X00112Y01213*
X00113Y01221*
X00112Y01228*
X00109Y01235*
X00106Y01238*
X00105Y01243*
X00109Y01246*
X00113Y01243*
X0012Y0124*
X00128Y01239*
X00135Y0124*
X00142Y01243*
X00148Y01248*
X00153Y01248*
X00154Y01247*
X0016Y01242*
X00167Y01239*
X00174Y01238*
X00182Y01239*
X00189Y01242*
X00194Y01246*
X002Y01242*
X00207Y01239*
X00214Y01238*
X00222Y01239*
X00229Y01242*
X00234Y01246*
X0024Y01242*
X00247Y01239*
X00254Y01238*
X00262Y01239*
X00269Y01242*
X00274Y01246*
X0028Y01242*
X00287Y01239*
X00294Y01238*
X00302Y01239*
X00309Y01242*
X00315Y01246*
X0032Y01252*
X00323Y01259*
X00324Y01267*
X00323Y01275*
X0032Y01282*
X00315Y01288*
X00309Y01292*
X00302Y01295*
X00294Y01296*
X00287Y01295*
X0028Y01292*
X00274Y01288*
X00269Y01292*
X00262Y01295*
X00254Y01296*
X00247Y01295*
X0024Y01292*
X00235Y01288*
X00229Y01293*
X00222Y01296*
X00214Y01297*
X00207Y01296*
X002Y01293*
X00194Y01289*
X00189Y01293*
X00182Y01296*
X00174Y01297*
X00167Y01296*
X0016Y01293*
X00154Y01288*
X00149Y01288*
X00148Y01289*
X00142Y01294*
X00135Y01297*
X00128Y01298*
X0012Y01297*
X00113Y01294*
X00107Y01289*
X00104Y01286*
X00099Y0129*
X00092Y01293*
X00085Y01294*
X00077Y01293*
X00076Y01292*
X00071Y01295*
Y01455*
X00175*
X00274Y01554*
X0028Y01559*
X00285Y01565*
X00287Y01567*
X00425*
Y0157*
X0043*
X00469Y0153*
G37*
%LNflexnodepcb_copper_signal_1-2*%
%LPC*%
G36*
X00568Y02036D02*
X00562Y02035D01*
X00557Y02032*
X00556Y0203*
X0055*
X00549Y02032*
X00544Y02035*
X00538Y02036*
X00532Y02035*
X00527Y02032*
X00524Y02027*
X00523Y02021*
X00524Y02015*
X00527Y0201*
X00532Y02007*
X00538Y02005*
X00544Y02007*
X00549Y0201*
X0055Y02012*
X00556*
X00557Y0201*
X00562Y02007*
X00568Y02005*
X00574Y02007*
X00579Y0201*
X00582Y02015*
X00584Y02021*
X00582Y02027*
X00579Y02032*
X00574Y02035*
X00568Y02036*
G37*
G36*
X00662Y02055D02*
X00656Y02054D01*
X00651Y0205*
X00648Y02045*
X00647Y0204*
X00648Y02034*
X00651Y02029*
X00656Y02025*
X00662Y02024*
X00668Y02025*
X00673Y02029*
X00676Y02034*
X00677Y0204*
X00676Y02045*
X00673Y0205*
X00668Y02054*
X00662Y02055*
G37*
G36*
X00791Y02031D02*
X00785Y0203D01*
X0078Y02027*
X00777Y02022*
X00775Y02016*
X00777Y0201*
X0078Y02005*
X00785Y02002*
X00791Y02*
X00797Y02002*
X00802Y02005*
X00805Y0201*
X00806Y02016*
X00805Y02022*
X00802Y02027*
X00797Y0203*
X00791Y02031*
G37*
G36*
X00301Y02035D02*
X00293Y02034D01*
X00285Y0203*
X00278Y02025*
X00273Y02019*
X0027Y02011*
X00269Y02003*
X0027Y01994*
X00273Y01987*
X00278Y0198*
X00285Y01975*
X00293Y01972*
X00301Y01971*
X00309Y01972*
X00317Y01975*
X00324Y0198*
X00329Y01987*
X00332Y01994*
X00333Y02003*
X00332Y02011*
X00329Y02019*
X00324Y02025*
X00317Y0203*
X00309Y02034*
X00301Y02035*
G37*
G36*
X00162Y01995D02*
X00156Y01994D01*
X00151Y0199*
X00148Y01985*
X00147Y0198*
X00148Y01974*
X00151Y01969*
X00156Y01965*
X00162Y01964*
X00168Y01965*
X00173Y01969*
X00176Y01974*
X00177Y0198*
X00176Y01985*
X00173Y0199*
X00168Y01994*
X00162Y01995*
G37*
G36*
X00411Y01981D02*
X00405Y0198D01*
X004Y01977*
X00397Y01972*
X00395Y01966*
X00397Y0196*
X004Y01955*
X00405Y01952*
X00411Y01951*
X00417Y01952*
X00421Y01955*
X00425Y0196*
X00426Y01966*
X00425Y01972*
X00421Y01977*
X00417Y0198*
X00411Y01981*
G37*
G36*
X01365Y01965D02*
X01359Y01964D01*
X01354Y0196*
X0135Y01955*
X01349Y0195*
X0135Y01944*
X01354Y01939*
X01359Y01935*
X01365Y01934*
X0137Y01935*
X01375Y01939*
X01379Y01944*
X0138Y0195*
X01379Y01955*
X01375Y0196*
X0137Y01964*
X01365Y01965*
G37*
G36*
X00666Y02004D02*
X0066Y02003D01*
X00655Y02*
X00652Y01995*
X00651Y01989*
X00652Y01983*
X00655Y01978*
X0066Y01975*
X00665Y01974*
X00666Y0197*
X00666Y01969*
X00666Y01969*
X00663Y01964*
X00662Y01958*
X00663Y01952*
X00665Y01949*
X00666Y01946*
X00665Y01943*
X00661Y0194*
X00658Y01935*
X00657Y0193*
X00658Y01924*
X00661Y01919*
X00666Y01915*
X00672Y01914*
X00678Y01915*
X00683Y01919*
X00686Y01924*
X00687Y0193*
X00686Y01935*
X00684Y01939*
X00683Y01942*
X00684Y01945*
X00688Y01947*
X00691Y01952*
X00692Y01958*
X00691Y01964*
X00688Y01969*
X00683Y01972*
X00678Y01973*
X00677Y01978*
X00677Y01978*
X00677Y01978*
X0068Y01983*
X00681Y01989*
X0068Y01995*
X00677Y02*
X00672Y02003*
X00666Y02004*
G37*
G36*
X0075Y01939D02*
X00744Y01938D01*
X00739Y01935*
X00735Y0193*
X00734Y01924*
X00735Y01918*
X00739Y01913*
X00744Y0191*
X0075Y01908*
X00755Y0191*
X0076Y01913*
X00764Y01918*
X00765Y01924*
X00764Y0193*
X0076Y01935*
X00755Y01938*
X0075Y01939*
G37*
G36*
X00301Y01956D02*
X00293Y01955D01*
X00285Y01952*
X00278Y01947*
X00273Y0194*
X0027Y01932*
X00269Y01924*
X0027Y01916*
X00273Y01908*
X00278Y01901*
X00285Y01896*
X00293Y01893*
X00301Y01892*
X00309Y01893*
X00317Y01896*
X00324Y01901*
X00329Y01908*
X00332Y01916*
X00333Y01924*
X00332Y01932*
X00329Y0194*
X00324Y01947*
X00317Y01952*
X00309Y01955*
X00301Y01956*
G37*
G36*
X00537Y0192D02*
X00531Y01919D01*
X00527Y01915*
X00523Y0191*
X00522Y01905*
X00523Y01899*
X00527Y01894*
X00531Y0189*
X00537Y01889*
X00543Y0189*
X00548Y01894*
X00551Y01899*
X00553Y01905*
X00551Y0191*
X00548Y01915*
X00543Y01919*
X00537Y0192*
G37*
G36*
X01015Y01905D02*
X01009Y01904D01*
X01004Y019*
X01Y01895*
X00999Y0189*
X01Y01884*
X01004Y01879*
X01009Y01875*
X01015Y01874*
X0102Y01875*
X01025Y01879*
X01029Y01884*
X0103Y0189*
X01029Y01895*
X01025Y019*
X0102Y01904*
X01015Y01905*
G37*
G36*
X01202Y01897D02*
X01196Y01896D01*
X01191Y01893*
X01187Y01888*
X01186Y01882*
X01187Y01876*
X01191Y01871*
X01196Y01868*
X01202Y01867*
X01207Y01868*
X01212Y01871*
X01216Y01876*
X01217Y01882*
X01216Y01888*
X01212Y01893*
X01207Y01896*
X01202Y01897*
G37*
G36*
X01269Y01895D02*
X01263Y01894D01*
X01258Y01891*
X01255Y01886*
X01254Y0188*
X01255Y01874*
X01258Y01869*
X01263Y01866*
X01269Y01864*
X01275Y01866*
X0128Y01869*
X01283Y01874*
X01285Y0188*
X01283Y01886*
X0128Y01891*
X01275Y01894*
X01269Y01895*
G37*
G36*
X01377Y01884D02*
X01371Y01882D01*
X01366Y01879*
X01363Y01874*
X01362Y01868*
X01363Y01862*
X01366Y01857*
X01371Y01854*
X01377Y01853*
X01383Y01854*
X01388Y01857*
X01391Y01862*
X01392Y01868*
X01391Y01874*
X01388Y01879*
X01383Y01882*
X01377Y01884*
G37*
G36*
X01321Y01876D02*
X01315Y01874D01*
X0131Y01871*
X01306Y01866*
X01305Y0186*
X01306Y01854*
X0131Y01849*
X01315Y01846*
X01321Y01845*
X01322Y01845*
X01328Y01844*
X01331Y01839*
X01336Y01835*
X01342Y01834*
X01348Y01835*
X01353Y01839*
X01356Y01844*
X01357Y0185*
X01356Y01855*
X01353Y0186*
X01348Y01864*
X01342Y01865*
X0134Y01864*
X01335Y01866*
X01331Y01871*
X01326Y01874*
X01321Y01876*
G37*
G36*
X00301Y01877D02*
X00293Y01876D01*
X00285Y01873*
X00278Y01868*
X00273Y01861*
X0027Y01853*
X00269Y01845*
X0027Y01837*
X00273Y01829*
X00278Y01822*
X00285Y01817*
X00293Y01814*
X00301Y01813*
X00309Y01814*
X00317Y01817*
X00324Y01822*
X00329Y01829*
X00332Y01837*
X00333Y01845*
X00332Y01853*
X00329Y01861*
X00324Y01868*
X00317Y01873*
X00309Y01876*
X00301Y01877*
G37*
G36*
X01248Y01863D02*
X01241Y01862D01*
X01233Y01859*
X01227Y01854*
X01222Y01848*
X01219Y01841*
X01218Y01833*
X01219Y01825*
X01222Y01818*
X01227Y01812*
X01233Y01807*
X01241Y01804*
X01248Y01803*
X01256Y01804*
X01263Y01807*
X01269Y01812*
X01274Y01818*
X01277Y01825*
X01278Y01833*
X01277Y01841*
X01274Y01848*
X01269Y01854*
X01263Y01859*
X01256Y01862*
X01248Y01863*
G37*
G36*
X0117D02*
X01162Y01862D01*
X01155Y01859*
X01148Y01854*
X01144Y01848*
X01141Y01841*
X0114Y01833*
X01141Y01825*
X01144Y01818*
X01148Y01812*
X01155Y01807*
X01162Y01804*
X0117Y01803*
X01177Y01804*
X01184Y01807*
X01191Y01812*
X01195Y01818*
X01198Y01825*
X01199Y01833*
X01198Y01841*
X01195Y01848*
X01191Y01854*
X01184Y01859*
X01177Y01862*
X0117Y01863*
G37*
G36*
X00923D02*
X00916Y01862D01*
X00908Y01859*
X00902Y01854*
X00897Y01848*
X00894Y01841*
X00893Y01833*
X00894Y01825*
X00897Y01818*
X00902Y01812*
X00908Y01807*
X00916Y01804*
X00923Y01803*
X00931Y01804*
X00938Y01807*
X00944Y01812*
X00949Y01818*
X00952Y01825*
X00953Y01833*
X00952Y01841*
X00949Y01848*
X00944Y01854*
X00938Y01859*
X00931Y01862*
X00923Y01863*
G37*
G36*
X00845D02*
X00837Y01862D01*
X0083Y01859*
X00823Y01854*
X00819Y01848*
X00816Y01841*
X00815Y01833*
X00816Y01825*
X00819Y01818*
X00823Y01812*
X0083Y01807*
X00837Y01804*
X00845Y01803*
X00852Y01804*
X00859Y01807*
X00866Y01812*
X0087Y01818*
X00873Y01825*
X00874Y01833*
X00873Y01841*
X0087Y01848*
X00866Y01854*
X00859Y01859*
X00852Y01862*
X00845Y01863*
G37*
G36*
X00598D02*
X00591Y01862D01*
X00583Y01859*
X00577Y01854*
X00572Y01848*
X00569Y01841*
X00568Y01833*
X00569Y01825*
X00572Y01818*
X00577Y01812*
X00583Y01807*
X00591Y01804*
X00598Y01803*
X00606Y01804*
X00613Y01807*
X00619Y01812*
X00624Y01818*
X00627Y01825*
X00628Y01833*
X00627Y01841*
X00624Y01848*
X00619Y01854*
X00613Y01859*
X00606Y01862*
X00598Y01863*
G37*
G36*
X0052D02*
X00512Y01862D01*
X00505Y01859*
X00498Y01854*
X00494Y01848*
X00491Y01841*
X0049Y01833*
X00491Y01825*
X00494Y01818*
X00498Y01812*
X00505Y01807*
X00512Y01804*
X0052Y01803*
X00527Y01804*
X00534Y01807*
X00541Y01812*
X00545Y01818*
X00548Y01825*
X00549Y01833*
X00548Y01841*
X00545Y01848*
X00541Y01854*
X00534Y01859*
X00527Y01862*
X0052Y01863*
G37*
G36*
X0138Y01835D02*
X01374Y01834D01*
X01369Y0183*
X01365Y01825*
X01364Y0182*
X01365Y01814*
X01369Y01809*
X01374Y01805*
X0138Y01804*
X01385Y01805*
X01386Y01806*
X0139Y01809*
X01393Y01805*
X01394Y01804*
X01399Y018*
X01405Y01799*
X0141Y018*
X01415Y01804*
X01419Y01809*
X0142Y01815*
X01419Y0182*
X01415Y01825*
X0141Y01829*
X01405Y0183*
X01399Y01829*
X01398Y01828*
X01394Y01825*
X01391Y01829*
X0139Y0183*
X01385Y01834*
X0138Y01835*
G37*
G36*
X01325Y01828D02*
X01319Y01827D01*
X01314Y01824*
X0131Y01819*
X01309Y01813*
X0131Y01807*
X01314Y01802*
X01319Y01799*
X01325Y01798*
X01329Y01798*
X0133Y01794*
X01334Y01789*
X01339Y01785*
X01345Y01784*
X0135Y01785*
X01355Y01789*
X01359Y01794*
X0136Y018*
X01359Y01805*
X01355Y0181*
X0135Y01814*
X01345Y01815*
X0134Y01814*
X01339Y01819*
X01335Y01824*
X0133Y01827*
X01325Y01828*
G37*
G36*
X00213Y01814D02*
X00207Y01812D01*
X00202Y01809*
X00199Y01804*
X00198Y01798*
X00199Y01792*
X00202Y01787*
X00207Y01784*
X00213Y01783*
X00219Y01784*
X00224Y01787*
X00227Y01792*
X00229Y01798*
X00227Y01804*
X00224Y01809*
X00219Y01812*
X00213Y01814*
G37*
G36*
X00452Y01787D02*
X00446Y01786D01*
X00441Y01783*
X00438Y01778*
X00438Y01777*
X00435Y01777*
X00429Y01776*
X00424Y01773*
X0042Y01768*
X00419Y01762*
X0042Y01756*
X00422Y01753*
X00423Y0175*
X00422Y01746*
X0042Y01743*
X00419Y01737*
X0042Y01731*
X00424Y01726*
X00429Y01723*
X00435Y01722*
X00438Y01722*
X00438Y01721*
X00441Y01716*
X00446Y01713*
X00452Y01712*
X00458Y01713*
X00463Y01716*
X00466Y01721*
X00467Y01727*
X00466Y01733*
X00465Y01734*
X00463Y01738*
X00465Y01742*
X00466Y01744*
X00467Y0175*
X00466Y01755*
X00465Y01757*
X00463Y01761*
X00465Y01765*
X00466Y01766*
X00467Y01772*
X00466Y01778*
X00463Y01783*
X00458Y01786*
X00452Y01787*
G37*
G36*
X00985Y01787D02*
X00979Y01786D01*
X00974Y01782*
X0097Y01777*
X0097Y01777*
X00967Y01776*
X00965Y01776*
X0096Y01779*
X00955Y0178*
X00949Y01779*
X00944Y01775*
X00942Y01772*
X00941Y01772*
X00936*
X00936Y01772*
X00934Y01775*
X00929Y01779*
X00923Y0178*
X00917Y01779*
X00912Y01775*
X00909Y0177*
X00908Y01765*
X00909Y01759*
X00912Y01754*
X00917Y0175*
X00923Y01749*
X00929Y0175*
X00934Y01754*
X00936Y01757*
X00936Y01757*
X00941*
X00942Y01757*
X00944Y01754*
X00949Y0175*
X00955Y01749*
X0096Y0175*
X00965Y01754*
X00969Y01759*
X00969Y01759*
X00972Y0176*
X00974Y0176*
X00979Y01757*
X00985Y01756*
X0099Y01757*
X00995Y01761*
X00999Y01766*
X01Y01772*
X00999Y01777*
X00995Y01782*
X0099Y01786*
X00985Y01787*
G37*
G36*
X00695Y01785D02*
X00689Y01784D01*
X00684Y0178*
X0068Y01775*
X00679Y0177*
X0068Y01764*
X00684Y01759*
X00689Y01755*
X00695Y01754*
X007Y01755*
X00705Y01759*
X00709Y01764*
X0071Y0177*
X00709Y01775*
X00705Y0178*
X007Y01784*
X00695Y01785*
G37*
G36*
X0087Y0178D02*
X00864Y01779D01*
X00859Y01775*
X00855Y0177*
X00854Y01765*
X00855Y01759*
X00859Y01754*
X00864Y0175*
X0087Y01749*
X00875Y0175*
X0088Y01754*
X00884Y01759*
X00885Y01765*
X00884Y0177*
X0088Y01775*
X00875Y01779*
X0087Y0178*
G37*
G36*
X01205Y0177D02*
X01199Y01769D01*
X01194Y01765*
X0119Y0176*
X01189Y01755*
X0119Y01749*
X01194Y01744*
X01199Y0174*
X01205Y01739*
X0121Y0174*
X01215Y01744*
X01219Y01749*
X0122Y01755*
X01219Y0176*
X01215Y01765*
X0121Y01769*
X01205Y0177*
G37*
G36*
X01464Y01805D02*
X01458Y01804D01*
X01453Y018*
X0145Y01795*
X01448Y0179*
X0145Y01784*
X01453Y01779*
X01458Y01775*
X01464Y01774*
X01465Y01774*
X01469Y0177*
X01469Y0177*
X0147Y01764*
X01474Y01759*
X01479Y01755*
X01485Y01754*
X0149Y01755*
X01495Y01752*
X01494Y0175*
X01495Y01744*
X01499Y01739*
X01504Y01735*
X0151Y01734*
X01515Y01735*
X0152Y01739*
X01524Y01744*
X01525Y0175*
X01524Y01755*
X0152Y0176*
X01515Y01764*
X0151Y01765*
X01504Y01764*
X01499Y01767*
X015Y0177*
X01499Y01775*
X01495Y0178*
X0149Y01784*
X01485Y01785*
X01483Y01785*
X01479Y01789*
X01479Y0179*
X01478Y01795*
X01474Y018*
X0147Y01804*
X01464Y01805*
G37*
G36*
X00722Y0176D02*
X00716Y01759D01*
X00711Y01755*
X00708Y0175*
X00707Y01745*
X00708Y01739*
X00711Y01734*
X00716Y0173*
X00722Y01729*
X00728Y0173*
X00733Y01734*
X00736Y01739*
X00737Y01745*
X00736Y0175*
X00733Y01755*
X00728Y01759*
X00722Y0176*
G37*
G36*
X00792Y01771D02*
X00784Y01769D01*
X00777Y01765*
X00772Y01758*
X00771Y0175*
X00772Y01741*
X00777Y01734*
X00784Y0173*
X00792Y01728*
X008Y0173*
X00807Y01734*
X00812Y01741*
X00813Y0175*
X00812Y01758*
X00807Y01765*
X008Y01769*
X00792Y01771*
G37*
G36*
X01611Y01735D02*
X01606Y01734D01*
X01601Y0173*
X01597Y01725*
X01596Y0172*
X01597Y01714*
X01601Y01709*
X01606Y01705*
X01611Y01704*
X01617Y01705*
X01622Y01709*
X01626Y01714*
X01627Y0172*
X01626Y01725*
X01622Y0173*
X01617Y01734*
X01611Y01735*
G37*
G36*
X01087Y01732D02*
X01081Y01731D01*
X01076Y01728*
X01073Y01723*
X01072Y01717*
X01073Y01711*
X01076Y01706*
X01081Y01703*
X01087Y01702*
X01093Y01703*
X01098Y01706*
X01101Y01711*
X01102Y01717*
X01101Y01723*
X01098Y01728*
X01093Y01731*
X01087Y01732*
G37*
G36*
X01164Y01722D02*
X01158Y01721D01*
X01153Y01717*
X01149Y01712*
X01148Y01707*
X01149Y01701*
X01153Y01696*
X01158Y01692*
X01164Y01691*
X01169Y01692*
X01174Y01696*
X01178Y01701*
X01179Y01707*
X01178Y01712*
X01174Y01717*
X01169Y01721*
X01164Y01722*
G37*
G36*
X00213Y01717D02*
X00207Y01716D01*
X00202Y01713*
X00199Y01708*
X00198Y01702*
X00199Y01696*
X00202Y01691*
X00207Y01688*
X00213Y01687*
X00219Y01688*
X00224Y01691*
X00227Y01696*
X00229Y01702*
X00227Y01708*
X00224Y01713*
X00219Y01716*
X00213Y01717*
G37*
G36*
X01129Y01701D02*
X01123Y017D01*
X01118Y01696*
X01114Y01691*
X01113Y01686*
X01114Y0168*
X01118Y01675*
X01123Y01671*
X01129Y0167*
X01134Y01671*
X01139Y01675*
X01143Y0168*
X01144Y01686*
X01143Y01691*
X01139Y01696*
X01134Y017*
X01129Y01701*
G37*
G36*
X01517Y0166D02*
X01511Y01659D01*
X01506Y01655*
X01503Y0165*
X01502Y01645*
X01503Y01639*
X01506Y01634*
X01511Y0163*
X01517Y01629*
X01523Y0163*
X01528Y01634*
X01531Y01639*
X01532Y01645*
X01531Y0165*
X01528Y01655*
X01523Y01659*
X01517Y0166*
G37*
G36*
X00185Y01657D02*
X00179Y01656D01*
X00174Y01653*
X0017Y01648*
X00169Y01642*
X0017Y01636*
X00174Y01631*
X00179Y01628*
X00185Y01627*
X0019Y01628*
X00195Y01631*
X00199Y01636*
X002Y01642*
X00199Y01648*
X00195Y01653*
X0019Y01656*
X00185Y01657*
G37*
G36*
X01163Y01647D02*
X01158Y01646D01*
X01153Y01642*
X01149Y01637*
X01148Y01631*
X01149Y01626*
X01153Y01621*
X01158Y01617*
X01163Y01616*
X01169Y01617*
X01174Y01621*
X01178Y01626*
X01179Y01631*
X01178Y01637*
X01174Y01642*
X01169Y01646*
X01163Y01647*
G37*
G36*
X01008Y01643D02*
X01002Y01642D01*
X00997Y01639*
X00994Y01634*
X00993Y01628*
X00994Y01622*
X00997Y01617*
X01002Y01614*
X01008Y01613*
X01014Y01614*
X01019Y01617*
X01022Y01622*
X01024Y01628*
X01022Y01634*
X01019Y01639*
X01014Y01642*
X01008Y01643*
G37*
G36*
X00705Y0162D02*
X00699Y01619D01*
X00694Y01615*
X0069Y0161*
X00689Y01605*
X0069Y01599*
X00694Y01594*
X00699Y0159*
X00705Y01589*
X0071Y0159*
X00715Y01594*
X00719Y01599*
X0072Y01605*
X00719Y0161*
X00715Y01615*
X0071Y01619*
X00705Y0162*
G37*
G36*
X00615Y01637D02*
X00609Y01636D01*
X00604Y01633*
X006Y01628*
X00599Y01622*
X006Y01616*
X00604Y01611*
X00609Y01608*
X00615Y01607*
X0062Y01608*
X00623Y01609*
X00624Y0161*
X00628Y01607*
X00627Y01606*
X00625Y01603*
X00624Y01598*
X00625Y01592*
X00629Y01587*
X00634Y01583*
X0064Y01582*
X00645Y01583*
X0065Y01587*
X00654Y01592*
X00655Y01598*
X00654Y01603*
X0065Y01608*
X00645Y01612*
X0064Y01613*
X00634Y01612*
X00631Y0161*
X0063Y01609*
X00626Y01613*
X00627Y01614*
X00629Y01616*
X0063Y01622*
X00629Y01628*
X00625Y01633*
X0062Y01636*
X00615Y01637*
G37*
G36*
X00212Y01605D02*
X00206Y01604D01*
X00201Y016*
X00198Y01595*
X00197Y0159*
X00198Y01584*
X00201Y01579*
X00206Y01575*
X00212Y01574*
X00218Y01575*
X00223Y01579*
X00226Y01584*
X00227Y0159*
X00226Y01595*
X00223Y016*
X00218Y01604*
X00212Y01605*
G37*
G36*
X00167D02*
X00161Y01604D01*
X00156Y016*
X00153Y01595*
X00152Y0159*
X00153Y01584*
X00156Y01579*
X00161Y01575*
X00167Y01574*
X00173Y01575*
X00178Y01579*
X00181Y01584*
X00182Y0159*
X00181Y01595*
X00178Y016*
X00173Y01604*
X00167Y01605*
G37*
G36*
X01604Y01606D02*
X01598Y01605D01*
X01593Y01601*
X01589Y01596*
X01588Y01591*
X01589Y01585*
X01593Y0158*
X01598Y01576*
X01604Y01575*
X01607Y01576*
X01611Y01572*
X01608Y01568*
X01607Y01563*
X01608Y01557*
X01612Y01552*
X01617Y01548*
X01623Y01547*
X01628Y01548*
X01633Y01552*
X01637Y01557*
X01638Y01563*
X01637Y01568*
X01635Y01571*
X01634Y01574*
X01636Y01577*
X01638Y01579*
X01642Y01584*
X01643Y01589*
X01642Y01595*
X01638Y016*
X01633Y01604*
X01627Y01605*
X01622Y01604*
X0162Y01602*
X01615Y01601*
X01612Y01603*
X01609Y01605*
X01604Y01606*
G37*
G36*
X0149Y01605D02*
X01484Y01604D01*
X01479Y016*
X01476Y01595*
X01475Y0159*
X01476Y01584*
X01479Y01579*
X01484Y01575*
X0149Y01574*
X01491Y01574*
X01494Y01571*
X01494Y0157*
X01494Y01567*
X01492Y01565*
X01486Y01564*
X01481Y0156*
X01478Y01555*
X01477Y0155*
X01478Y01544*
X01481Y01539*
X01486Y01535*
X01492Y01534*
X01498Y01535*
X01503Y01539*
X01506Y01544*
X01507Y0155*
X01507Y01552*
X01509Y01554*
X01515Y01555*
X0152Y01559*
X01523Y01564*
X01525Y0157*
X01523Y01575*
X0152Y0158*
X01515Y01584*
X01509Y01585*
X01508Y01585*
X01505Y01588*
X01505Y0159*
X01504Y01595*
X01501Y016*
X01496Y01604*
X0149Y01605*
G37*
G36*
X01452Y01512D02*
X01446Y01511D01*
X01441Y01508*
X01438Y01503*
X01437Y01497*
X01438Y01491*
X01441Y01486*
X01446Y01483*
X01452Y01482*
X01458Y01483*
X01463Y01486*
X01466Y01491*
X01467Y01497*
X01466Y01503*
X01463Y01508*
X01458Y01511*
X01452Y01512*
G37*
G36*
X01095Y0151D02*
X01089Y01509D01*
X01084Y01505*
X0108Y015*
X01079Y01495*
X0108Y01489*
X01084Y01484*
X01089Y0148*
X01095Y01479*
X011Y0148*
X01105Y01484*
X01109Y01489*
X0111Y01495*
X01109Y015*
X01105Y01505*
X011Y01509*
X01095Y0151*
G37*
G36*
X01512Y01505D02*
X01506Y01503D01*
X01501Y015*
X01498Y01495*
X01496Y01489*
X01498Y01483*
X01501Y01478*
X01506Y01475*
X01512Y01474*
X01518Y01475*
X01523Y01478*
X01526Y01483*
X01527Y01489*
X01526Y01495*
X01523Y015*
X01518Y01503*
X01512Y01505*
G37*
G36*
X0106Y01487D02*
X01054Y01486D01*
X01049Y01483*
X01045Y01478*
X01044Y01472*
X01045Y01466*
X01049Y01461*
X01054Y01458*
X0106Y01457*
X01065Y01458*
X0107Y01461*
X01074Y01466*
X01075Y01472*
X01074Y01478*
X0107Y01483*
X01065Y01486*
X0106Y01487*
G37*
G36*
X01403Y01497D02*
X01397Y01496D01*
X01392Y01493*
X01389Y01488*
X01388Y01482*
X01389Y01476*
X01392Y01471*
X01397Y01468*
X01399Y01468*
X014Y01462*
X01397Y0146*
X01394Y01455*
X01393Y0145*
X01394Y01444*
X01397Y01439*
X01402Y01435*
X01408Y01434*
X01414Y01435*
X01419Y01439*
X01422Y01444*
X01424Y0145*
X01422Y01455*
X01419Y0146*
X01414Y01464*
X01412Y01464*
X01411Y01469*
X01414Y01471*
X01417Y01476*
X01419Y01482*
X01417Y01488*
X01414Y01493*
X01409Y01496*
X01403Y01497*
G37*
G36*
X00838Y01386D02*
X00829Y01384D01*
X00821Y01379*
X00816Y01371*
X00814Y01362*
X00816Y01353*
X00821Y01345*
X00829Y0134*
X00838Y01338*
X00847Y0134*
X00855Y01345*
X0086Y01353*
X00862Y01362*
X0086Y01371*
X00855Y01379*
X00847Y01384*
X00838Y01386*
G37*
G36*
X0094Y01311D02*
X00934Y0131D01*
X00929Y01306*
X00925Y01301*
X00924Y01296*
X00925Y0129*
X00929Y01285*
X00934Y01281*
X0094Y0128*
X00945Y01281*
X0095Y01285*
X00954Y0129*
X00955Y01296*
X00954Y01301*
X0095Y01306*
X00945Y0131*
X0094Y01311*
G37*
G36*
X00939Y0127D02*
X00933Y01269D01*
X00928Y01265*
X00925Y0126*
X00924Y01255*
X00925Y01249*
X00928Y01244*
X00933Y0124*
X00939Y01239*
X00945Y0124*
X0095Y01244*
X00953Y01249*
X00954Y01255*
X00953Y0126*
X0095Y01265*
X00945Y01269*
X00939Y0127*
G37*
G36*
X01547Y01346D02*
X01539Y01345D01*
X01532Y01342*
X01526Y01338*
X01522Y01332*
X01519Y01325*
X01518Y01317*
X01519Y01309*
X01522Y01302*
X01526Y01296*
X01532Y01292*
X01539Y01289*
X01547Y01288*
X01555Y01289*
X01562Y01292*
X01568Y01296*
X01572Y01302*
X01575Y01309*
X01576Y01317*
X01575Y01325*
X01572Y01332*
X01568Y01338*
X01562Y01342*
X01555Y01345*
X01547Y01346*
G37*
G36*
X00595Y0131D02*
X00587Y01309D01*
X00579Y01306*
X00573Y01301*
X00568Y01295*
X00565Y01287*
X00564Y0128*
X00565Y01272*
X00568Y01264*
X00573Y01258*
X00579Y01253*
X00587Y0125*
X00595Y01249*
X00602Y0125*
X0061Y01253*
X00616Y01258*
X00621Y01264*
X00624Y01272*
X00625Y0128*
X00624Y01287*
X00621Y01295*
X00616Y01301*
X0061Y01306*
X00602Y01309*
X00595Y0131*
G37*
G36*
X01298Y01265D02*
X0129Y01264D01*
X01283Y01261*
X01277Y01256*
X01273Y0125*
X0127Y01243*
X01269Y01236*
X0127Y01228*
X01272Y01222*
X0127Y01215*
X01269Y01208*
X0127Y012*
X01273Y01193*
X01277Y01187*
X01283Y01182*
X0129Y01179*
X01298Y01178*
X01306Y01179*
X01313Y01182*
X01319Y01187*
X01323Y01193*
X01326Y012*
X01327Y01208*
X01326Y01215*
X01324Y01222*
X01326Y01228*
X01327Y01236*
X01326Y01243*
X01323Y0125*
X01319Y01256*
X01313Y01261*
X01306Y01264*
X01298Y01265*
G37*
G36*
X01145Y01214D02*
X01137Y01213D01*
X0113Y0121*
X01124Y01205*
X01119Y01199*
X01116Y01192*
X01115Y01185*
X01116Y01177*
X01119Y0117*
X01124Y01164*
X0113Y01159*
X01137Y01156*
X01145Y01155*
X01152Y01156*
X01159Y01159*
X01165Y01164*
X0117Y0117*
X01173Y01177*
X01174Y01185*
X01173Y01192*
X0117Y01199*
X01165Y01205*
X01159Y0121*
X01152Y01213*
X01145Y01214*
G37*
G36*
X00179Y01076D02*
X00171Y01075D01*
X00164Y01072*
X00162Y0107*
X0016Y01072*
X00153Y01075*
X00146Y01076*
X00138Y01075*
X00131Y01072*
X00125Y01067*
X0012Y01061*
X00117Y01054*
X00116Y01047*
X00117Y01039*
X0012Y01032*
X00125Y01026*
X00131Y01021*
X00138Y01018*
X00146Y01017*
X00153Y01018*
X0016Y01021*
X00162Y01023*
X00164Y01021*
X00171Y01018*
X00179Y01017*
X00186Y01018*
X00193Y01021*
X00199Y01026*
X00204Y01032*
X00207Y01039*
X00208Y01047*
X00207Y01054*
X00204Y01061*
X00199Y01067*
X00193Y01072*
X00186Y01075*
X00179Y01076*
G37*
G36*
X01569Y01145D02*
X01561Y01144D01*
X01553Y01141*
X01547Y01136*
X01542Y0113*
X01539Y01122*
X01538Y01115*
X01539Y01107*
X01542Y01099*
X01547Y01093*
X01553Y01088*
X01561Y01085*
X01563Y01085*
X01564Y01082*
X01569Y01076*
X01575Y01072*
X01582Y01069*
X0159Y01068*
X01597Y01069*
X01604Y01072*
X0161Y01076*
X01615Y01082*
X01618Y01089*
X01619Y01097*
X01618Y01105*
X01615Y01112*
X0161Y01118*
X01604Y01122*
X01597Y01125*
X01596Y01125*
X01595Y0113*
X0159Y01136*
X01584Y01141*
X01576Y01144*
X01569Y01145*
G37*
G36*
X01094Y01014D02*
X01086Y01013D01*
X01084Y01012*
X01081Y01013*
X01074Y01014*
X01066Y01013*
X01064Y01012*
X01061Y01013*
X01054Y01014*
X01046Y01013*
X01044Y01012*
X01041Y01013*
X01034Y01014*
X01026Y01013*
X01024Y01012*
X01021Y01013*
X01014Y01014*
X01006Y01013*
X01004Y01012*
X01001Y01013*
X00994Y01014*
X00986Y01013*
X00984Y01012*
X00981Y01013*
X00974Y01014*
X00966Y01013*
X00964Y01012*
X00961Y01013*
X00954Y01014*
X00946Y01013*
X00939Y0101*
X00933Y01005*
X00928Y00999*
X00925Y00992*
X00924Y00985*
X00925Y00977*
X00926Y00974*
X00925Y00971*
X00924Y00964*
X00925Y00956*
X00928Y00949*
X00933Y00943*
X00939Y00938*
X00946Y00935*
X00954Y00934*
X00961Y00935*
X00965Y00937*
X00966Y00936*
X00974Y00935*
X00981Y00936*
X00984Y00937*
X00986Y00936*
X00994Y00935*
X01001Y00936*
X01004Y00937*
X01006Y00936*
X01014Y00935*
X01021Y00936*
X01024Y00937*
X01026Y00936*
X01034Y00935*
X01041Y00936*
X01044Y00937*
X01046Y00936*
X01054Y00935*
X01061Y00936*
X01064Y00937*
X01066Y00936*
X01074Y00935*
X01081Y00936*
X01084Y00937*
X01086Y00936*
X01094Y00935*
X01101Y00936*
X01108Y00939*
X01114Y00944*
X01119Y0095*
X01122Y00957*
X01123Y00965*
X01122Y00972*
X01121Y00975*
X01122Y00977*
X01123Y00985*
X01122Y00992*
X01119Y00999*
X01114Y01005*
X01108Y0101*
X01101Y01013*
X01094Y01014*
G37*
G36*
X01308Y01012D02*
X013Y01011D01*
X01298Y0101*
X01296Y01011*
X01288Y01012*
X0128Y01011*
X01278Y0101*
X01276Y01011*
X01268Y01012*
X0126Y01011*
X01258Y0101*
X01256Y01011*
X01248Y01012*
X0124Y01011*
X01238Y0101*
X01236Y01011*
X01228Y01012*
X0122Y01011*
X01218Y0101*
X01216Y01011*
X01208Y01012*
X012Y01011*
X01198Y0101*
X01196Y01011*
X01188Y01012*
X0118Y01011*
X01173Y01008*
X01167Y01004*
X01163Y00998*
X0116Y00991*
X01159Y00983*
X0116Y00975*
X01161Y00973*
X0116Y00971*
X01159Y00963*
X0116Y00955*
X01163Y00948*
X01167Y00942*
X01173Y00938*
X0118Y00935*
X01188Y00934*
X01196Y00935*
X01198Y00936*
X012Y00935*
X01208Y00934*
X01216Y00935*
X01218Y00936*
X0122Y00935*
X01228Y00934*
X01236Y00935*
X01238Y00936*
X0124Y00935*
X01248Y00934*
X01256Y00935*
X01258Y00936*
X0126Y00935*
X01268Y00934*
X01276Y00935*
X01278Y00936*
X0128Y00935*
X01288Y00934*
X01296Y00935*
X01298Y00936*
X013Y00935*
X01308Y00934*
X01316Y00935*
X01318Y00936*
X01321Y00934*
X01329Y00933*
X01336Y00934*
X01343Y00937*
X01349Y00942*
X01354Y00948*
X01357Y00955*
X01358Y00963*
X01357Y0097*
X01354Y00977*
X01349Y00983*
X01343Y00988*
X01336Y00991*
X01333Y00998*
X01329Y01004*
X01323Y01008*
X01316Y01011*
X01308Y01012*
G37*
G36*
X0116Y00704D02*
X01152Y00703D01*
X01145Y007*
X01139Y00695*
X01134Y00689*
X01131Y00682*
X0113Y00675*
X01131Y00667*
X01134Y0066*
X01139Y00654*
X01145Y00649*
X01147Y00648*
X01146Y00647*
X01145Y0064*
X01146Y00632*
X01149Y00625*
X01154Y00619*
X0116Y00614*
X01167Y00611*
X01175Y0061*
X01182Y00611*
X01189Y00614*
X01195Y00619*
X012Y00625*
X01203Y00632*
X01204Y0064*
X01203Y00647*
X012Y00654*
X01195Y0066*
X01189Y00665*
X01187Y00666*
X01188Y00667*
X01189Y00675*
X01188Y00682*
X01185Y00689*
X0118Y00695*
X01174Y007*
X01167Y00703*
X0116Y00704*
G37*
G36*
X00905Y00689D02*
X00889Y00687D01*
X00874Y00683*
X0086Y00676*
X00848Y00666*
X00838Y00654*
X00831Y0064*
X00827Y00625*
X00825Y0061*
X00827Y00594*
X00831Y00579*
X00838Y00565*
X00848Y00553*
X0086Y00543*
X00874Y00536*
X00889Y00532*
X00905Y0053*
X0092Y00532*
X00935Y00536*
X00949Y00543*
X00961Y00553*
X00971Y00565*
X00978Y00579*
X00982Y00594*
X00984Y0061*
X00982Y00625*
X00978Y0064*
X00971Y00654*
X00961Y00666*
X00949Y00676*
X00935Y00683*
X0092Y00687*
X00905Y00689*
G37*
G36*
X0148Y00684D02*
X01464Y00682D01*
X01449Y00678*
X01435Y00671*
X01423Y00661*
X01413Y00649*
X01406Y00635*
X01402Y0062*
X014Y00605*
X01402Y00589*
X01406Y00574*
X01413Y0056*
X01423Y00548*
X01435Y00538*
X01449Y00531*
X01464Y00527*
X0148Y00525*
X01495Y00527*
X0151Y00531*
X01524Y00538*
X01536Y00548*
X01546Y0056*
X01553Y00574*
X01557Y00589*
X01559Y00605*
X01557Y0062*
X01553Y00635*
X01546Y00649*
X01536Y00661*
X01524Y00671*
X0151Y00678*
X01495Y00682*
X0148Y00684*
G37*
G36*
X0034D02*
X00324Y00682D01*
X00309Y00678*
X00295Y00671*
X00283Y00661*
X00273Y00649*
X00266Y00635*
X00262Y0062*
X0026Y00605*
X00262Y00589*
X00266Y00574*
X00273Y0056*
X00283Y00548*
X00295Y00538*
X00309Y00531*
X00324Y00527*
X0034Y00525*
X00355Y00527*
X0037Y00531*
X00384Y00538*
X00396Y00548*
X00406Y0056*
X00413Y00574*
X00417Y00589*
X00419Y00605*
X00417Y0062*
X00413Y00635*
X00406Y00649*
X00396Y00661*
X00384Y00671*
X0037Y00678*
X00355Y00682*
X0034Y00684*
G37*
G36*
X01295Y00589D02*
X01279Y00587D01*
X01264Y00583*
X0125Y00576*
X01238Y00566*
X01228Y00554*
X01221Y0054*
X01217Y00525*
X01215Y0051*
X01217Y00494*
X01221Y00479*
X01228Y00465*
X01238Y00453*
X0125Y00443*
X01264Y00436*
X01279Y00432*
X01295Y0043*
X0131Y00432*
X01325Y00436*
X01339Y00443*
X01351Y00453*
X01361Y00465*
X01368Y00479*
X01372Y00494*
X01374Y0051*
X01372Y00525*
X01368Y0054*
X01361Y00554*
X01351Y00566*
X01339Y00576*
X01325Y00583*
X0131Y00587*
X01295Y00589*
G37*
G36*
X00705D02*
X00689Y00587D01*
X00674Y00583*
X0066Y00576*
X00648Y00566*
X00638Y00554*
X00631Y0054*
X00627Y00525*
X00625Y0051*
X00627Y00494*
X00631Y00479*
X00638Y00465*
X00648Y00453*
X0066Y00443*
X00674Y00436*
X00689Y00432*
X00705Y0043*
X0072Y00432*
X00735Y00436*
X00749Y00443*
X00761Y00453*
X00771Y00465*
X00778Y00479*
X00782Y00494*
X00784Y0051*
X00782Y00525*
X00778Y0054*
X00771Y00554*
X00761Y00566*
X00749Y00576*
X00735Y00583*
X0072Y00587*
X00705Y00589*
G37*
%LNflexnodepcb_copper_signal_1-3*%
%LPD*%
G54D89*
X011Y0051D03*
X0052D03*
X01295D03*
X00705D03*
G54D90*
X0096Y0207D03*
X01035D03*
G54D92*
X01681Y01748D03*
G54D93*
X01091Y01833D03*
X00766D03*
X00441D03*
G54D95*
X01705Y0155D03*
Y0165D03*
Y0145D03*
G54D96*
X0161Y01819D03*
X0154Y0189D03*
X01469Y0196D03*
X01398Y02031D03*
G54D97*
X00301Y01766D03*
Y02003D03*
Y01845D03*
Y01924D03*
G54D98*
X01248Y01833D03*
X00923D03*
X00598D03*
X00845D03*
X0117D03*
X0052D03*
G54D99*
X00905Y0061D03*
X0034Y00605D03*
X0148D03*
G54D100*
X00213Y01702D03*
Y01798D03*
X00452Y01772D03*
Y0175D03*
Y01727D03*
X00435Y01737D03*
X01087Y01717D03*
X00162Y0198D03*
X00435Y01762D03*
X00185Y01642D03*
X00212Y0159D03*
X00167D03*
X00095Y01798D03*
X00096Y01702D03*
X0026Y0158D03*
X0141Y0142D03*
X01408Y0145D03*
X01377Y01868D03*
X01407D03*
X0079Y0108D03*
X0078Y01057D03*
X00561Y01227D03*
X00537D03*
X00461Y01352D03*
X00513Y01227D03*
X01505Y01248D03*
X0153D03*
X0167Y01198D03*
X01556Y01248D03*
X01646Y00912D03*
X01531Y01223D03*
X01507Y01176D03*
X01556Y01196D03*
X00816Y01164D03*
X00859Y01175D03*
X01645Y0102D03*
X0167D03*
X01617D03*
X01547Y01317D03*
X01298Y01236D03*
Y01208D03*
X01719Y01007D03*
X01094Y00985D03*
X0094Y01296D03*
X00939Y01255D03*
X01008Y01211D03*
X00955Y0122D03*
X01074Y00985D03*
X01054D03*
X01308Y00983D03*
X01288D03*
X01719Y00967D03*
X01308Y00963D03*
X01288D03*
X01248Y00983D03*
X01268D03*
X01228D03*
X01268Y00963D03*
X01248D03*
X01718Y00887D03*
Y00847D03*
Y00927D03*
Y00807D03*
X01676Y0079D03*
X01651D03*
X01626Y00791D03*
X01329Y00963D03*
X01034Y00985D03*
X01188Y00983D03*
X01014Y00985D03*
X01208Y00983D03*
X01014Y00965D03*
X00994D03*
X00974Y00985D03*
X00994D03*
X00954D03*
X00974Y00965D03*
X01094D03*
X01188Y00963D03*
X01074Y00965D03*
X01228Y00963D03*
X01208D03*
X01034Y00965D03*
X01054D03*
X00954Y00964D03*
X00254Y01267D03*
X00214Y01268D03*
X00294Y01267D03*
X00179Y01047D03*
X00174Y01268D03*
X00128Y01269D03*
X00085Y01265D03*
X00084Y01221D03*
Y01181D03*
X00083Y01101D03*
Y01141D03*
X00146Y01047D03*
X00083Y01021D03*
Y01061D03*
X00335Y00987D03*
X00315D03*
X00255D03*
X00295D03*
X00275D03*
X00355D03*
X00375D03*
X00315Y00967D03*
X00355D03*
X00375D03*
X00335D03*
X00255D03*
X00275D03*
X00228Y00978D03*
X00295Y00967D03*
X00177Y00978D03*
X00205D03*
X00147D03*
X00164Y00913D03*
X00185D03*
X00139D03*
X00114Y00991D03*
X00113Y00962D03*
X00082Y00976D03*
Y00936D03*
X00165Y00739D03*
X00141D03*
X00187Y00738D03*
X00114D03*
X00082Y00896D03*
X00081Y00816D03*
Y00856D03*
Y00736D03*
Y00776D03*
X01261Y01931D03*
X01623Y01563D03*
X01599Y01462D03*
X01602Y01426D03*
X01627Y01589D03*
X01604Y01591D03*
X01346Y01422D03*
X01164Y01707D03*
X01139Y01718D03*
X01129Y01686D03*
X00546Y01588D03*
X00578D03*
X00672Y0174D03*
X00695Y0177D03*
X00722Y01745D03*
X01645Y01392D03*
X01452Y01497D03*
X00837Y01612D03*
X00615Y01622D03*
X00628Y0203D03*
X00662Y0204D03*
X00568Y01885D03*
X00537Y01905D03*
X00675Y01605D03*
X01335Y0171D03*
X0137Y01675D03*
X013D03*
X01405Y0164D03*
X01335D03*
X0137Y01605D03*
X01265Y0164D03*
X013Y01605D03*
X01335Y0157D03*
X0105Y0163D03*
X00905Y01537D03*
X00877Y01575D03*
X0116Y00675D03*
X00785Y01979D03*
X00855Y01965D03*
X00538Y01966D03*
X00566Y01966D03*
X0069Y0191D03*
X00512Y01966D03*
X00154Y01905D03*
X01403Y01482D03*
X01512Y01489D03*
X0064Y01598D03*
X00705Y01605D03*
X01175Y0064D03*
X0075Y01924D03*
X01611Y0172D03*
X00411Y01966D03*
X00985Y01772D03*
X00923Y01765D03*
X00955D03*
X0087D03*
X01163Y01631D03*
X00568Y02021D03*
X00538D03*
X00672Y0193D03*
X00677Y01958D03*
X01202Y01882D03*
X01269Y0188D03*
X00791Y02016D03*
X00666Y01989D03*
X0106Y01472D03*
X00547Y01555D03*
X01405Y01815D03*
X01509Y0157D03*
X0149Y0159D03*
X01325Y01813D03*
X00605Y01577D03*
X01095Y01495D03*
X01345Y018D03*
X01145Y01185D03*
X01517Y01645D03*
X0151Y0175D03*
X01365Y0195D03*
X0159Y01097D03*
X01205Y01755D03*
X01008Y01628D03*
X01321Y0186D03*
X01342Y0185D03*
X0138Y0182D03*
X01464Y0179D03*
X01485Y0177D03*
X01492Y0155D03*
X01015Y0189D03*
G54D101*
X004Y01549D03*
Y01506D03*
X00357Y01549D03*
Y01506D03*
X00314Y01549D03*
Y01506D03*
G54D102*
X01282Y01387D03*
X0131D03*
X01273Y01181D03*
X01227Y01387D03*
X01255D03*
X01199Y01387D03*
X01212Y01246D03*
Y01216D03*
X01232Y01181D03*
X0119D03*
X0121Y01165D03*
X01251D03*
X01144Y01387D03*
X01185Y01246D03*
X01081Y01387D03*
X01115D03*
X01185Y01216D03*
X00705Y0145D03*
Y01405D03*
X00665Y0149D03*
Y0145D03*
X01055Y01255D03*
X00973Y01179D03*
X00665Y01365D03*
X01007Y01179D03*
X01025Y01165D03*
X00954Y01166D03*
X0099Y01165D03*
X00837Y01164D03*
X00856Y01151D03*
X00806Y01142D03*
X0083D03*
X00862Y0113D03*
X01277Y01106D03*
X0121D03*
X01078D03*
X0124D03*
X01096Y01088D03*
X01061D03*
X01498Y01068D03*
X01513Y01089D03*
X01224Y01088D03*
X01257D03*
X01007Y01106D03*
X01043D03*
X00862D03*
X00972D03*
X0099Y01088D03*
X01025D03*
X00954D03*
X00801Y01059D03*
X00673Y01064D03*
X0062Y01405D03*
X00665D03*
X0062Y0149D03*
Y0145D03*
Y01365D03*
X0058Y0145D03*
Y01405D03*
X00127Y01234D03*
X00171D03*
X00257D03*
X00301D03*
X00214D03*
X00385Y01161D03*
X00651Y01072D03*
X0037Y01098D03*
X00368Y01179D03*
X00332D03*
X0035Y01161D03*
X00348Y01088D03*
X00324Y01098D03*
X00316Y01161D03*
X00236Y01222D03*
X00279D03*
X00238Y01098D03*
X00192Y01222D03*
X00149D03*
X00194Y01098D03*
X00151D03*
X00281D03*
X00259Y01088D03*
X00173Y0109D03*
X00216Y01088D03*
X00303D03*
X00187Y00685D03*
X00185Y00858D03*
X00161D03*
X00129Y01088D03*
X00137Y00858D03*
X00163Y00685D03*
X00137D03*
X01514Y01147D03*
X01496D03*
X01623Y00911D03*
X01671D03*
X01679Y00709D03*
X01651D03*
X01623D03*
X01625Y01222D03*
X01504Y01223D03*
X0068Y01084D03*
X00691Y0105D03*
X00702Y01084D03*
X00708Y01064D03*
X00702Y01023D03*
X00595Y0128D03*
X01569Y01115D03*
X0163Y0127D03*
G54D104*
X00355Y01575D03*
G54D105*
X00355Y016D03*
G54D106*
X00792Y0175D03*
G54D107*
X00838Y01362D03*
X00781Y01306D03*
M02*