%FSTAX23Y23*%
%MOIN*%
%SFA1B1*%

%IPPOS*%
%AMD39*
4,1,8,-0.015900,0.000000,-0.015900,0.000000,-0.011600,-0.004300,0.011600,-0.004300,0.015900,0.000000,0.015900,0.000000,0.011600,0.004300,-0.011600,0.004300,-0.015900,0.000000,0.0*
1,1,0.008633,-0.011600,0.000000*
1,1,0.008633,-0.011600,0.000000*
1,1,0.008633,0.011600,0.000000*
1,1,0.008633,0.011600,0.000000*
%
%AMD47*
4,1,8,-0.004300,0.011600,-0.004300,-0.011600,0.000000,-0.015900,0.000000,-0.015900,0.004300,-0.011600,0.004300,0.011600,0.000000,0.015900,0.000000,0.015900,-0.004300,0.011600,0.0*
1,1,0.008633,0.000000,0.011600*
1,1,0.008633,0.000000,-0.011600*
1,1,0.008633,0.000000,-0.011600*
1,1,0.008633,0.000000,0.011600*
%
%AMD65*
4,1,8,-0.015600,-0.008200,0.015600,-0.008200,0.023700,0.000000,0.023700,0.000000,0.015600,0.008200,-0.015600,0.008200,-0.023700,0.000000,-0.023700,0.000000,-0.015600,-0.008200,0.0*
1,1,0.016335,-0.015600,0.000000*
1,1,0.016335,0.015600,0.000000*
1,1,0.016335,0.015600,0.000000*
1,1,0.016335,-0.015600,0.000000*
%
%AMD92*
4,1,4,0.000000,-0.043100,0.043100,0.000000,0.000000,0.043100,-0.043100,0.000000,0.000000,-0.043100,0.0*
%
%ADD10C,0.018000*%
%ADD11C,0.016000*%
%ADD12C,0.012000*%
%ADD13C,0.008000*%
%ADD14C,0.006000*%
%ADD15C,0.015000*%
%ADD16R,0.161000X0.052000*%
%ADD17O,0.023622X0.057087*%
%ADD18R,0.019685X0.019685*%
%ADD19R,0.023852X0.023866*%
%ADD20R,0.027559X0.027559*%
%ADD21R,0.019685X0.023622*%
%ADD22R,0.039370X0.070866*%
%ADD23R,0.045000X0.023622*%
%ADD24R,0.020163X0.022876*%
%ADD25R,0.059055X0.072835*%
%ADD26R,0.049590X0.024000*%
%ADD27R,0.018601X0.022033*%
%ADD28R,0.019685X0.019685*%
%ADD29R,0.020289X0.018601*%
%ADD30R,0.022538X0.024226*%
%ADD31R,0.127952X0.092913*%
%ADD32R,0.070866X0.039370*%
%ADD33R,0.039370X0.068000*%
%ADD34R,0.040000X0.068000*%
%ADD35R,0.065284X0.037135*%
%ADD36R,0.010000X0.010000*%
%ADD37R,0.017716X0.019685*%
%ADD38R,0.150000X0.168000*%
G04~CAMADD=39~8~0.0~0.0~86.3~318.8~43.2~0.0~15~0.0~0.0~0.0~0.0~0~0.0~0.0~0.0~0.0~0~0.0~0.0~0.0~90.0~318.0~86.0*
%ADD39D39*%
%ADD40R,0.023866X0.023852*%
%ADD41R,0.010000X0.010000*%
%ADD42R,0.037135X0.065284*%
%ADD43R,0.012000X0.017000*%
%ADD44R,0.011811X0.025591*%
%ADD45R,0.017000X0.012000*%
%ADD46R,0.037401X0.064000*%
G04~CAMADD=47~8~0.0~0.0~318.8~86.3~43.2~0.0~15~0.0~0.0~0.0~0.0~0~0.0~0.0~0.0~0.0~0~0.0~0.0~0.0~90.0~86.0~318.0*
%ADD47D47*%
%ADD48R,0.019685X0.017716*%
%ADD49R,0.173622X0.179134*%
%ADD50R,0.026000X0.033000*%
%ADD51R,0.037401X0.066929*%
%ADD52R,0.033465X0.011811*%
%ADD53R,0.011811X0.033465*%
%ADD54R,0.224409X0.224409*%
%ADD55R,0.008633X0.031876*%
%ADD56R,0.020000X0.020000*%
%ADD57R,0.020000X0.020000*%
%ADD58R,0.005000X0.005000*%
%ADD59R,0.091000X0.049000*%
%ADD60R,0.125984X0.043307*%
%ADD61R,0.021654X0.017716*%
%ADD62R,0.018601X0.020289*%
%ADD63R,0.026772X0.025197*%
%ADD64R,0.020472X0.020472*%
G04~CAMADD=65~8~0.0~0.0~474.5~163.4~81.7~0.0~15~0.0~0.0~0.0~0.0~0~0.0~0.0~0.0~0.0~0~0.0~0.0~0.0~180.0~476.0~164.0*
%ADD65D65*%
%ADD66R,0.031496X0.035433*%
%ADD67R,0.018321X0.018601*%
%ADD68R,0.022047X0.020472*%
%ADD69R,0.022876X0.020163*%
%ADD70R,0.018364X0.018601*%
%ADD71R,0.022638X0.013780*%
%ADD72R,0.013780X0.022638*%
%ADD73R,0.026306X0.026476*%
%ADD74R,0.028163X0.026476*%
%ADD75R,0.018432X0.018601*%
%ADD76R,0.017716X0.021654*%
%ADD77R,0.047450X0.016336*%
%ADD78R,0.019685X0.043307*%
%ADD79C,0.038000*%
%ADD80C,0.020000*%
%ADD81C,0.026000*%
%ADD82C,0.010000*%
%ADD83C,0.032000*%
%ADD84C,0.024000*%
%ADD85C,0.005000*%
%ADD86C,0.008500*%
%ADD87C,0.014000*%
%ADD88C,0.013000*%
%ADD89C,0.118110*%
%ADD90C,0.048000*%
%ADD91O,0.060000X0.030000*%
G04~CAMADD=92~10~0.0~610.2~0.0~0.0~0.0~0.0~0~0.0~0.0~0.0~0.0~0~0.0~0.0~0.0~0.0~0~0.0~0.0~0.0~225.0~610.2~0.0*
%ADD92D92*%
%ADD93R,0.047244X0.047244*%
%ADD94R,0.051496X0.051496*%
%ADD95C,0.060000*%
%ADD96C,0.061024*%
%ADD97C,0.051496*%
%ADD98C,0.047244*%
%ADD99C,0.118110*%
%ADD100C,0.018000*%
%ADD101C,0.019685*%
%ADD102C,0.020000*%
%ADD103C,0.034000*%
%LNflexnodepcb_copper_signal_top-1*%
%LPD*%
G36*
X00946Y02049D02*
X00946Y0205D01*
X00946Y0205*
X00945Y0205*
X00945Y0205*
X00944Y02049*
X00944Y02049*
X00943Y02049*
X00943Y02048*
X00942Y02048*
X00942Y02047*
X00937Y02052*
X00938Y02052*
X00938Y02053*
X00939Y02053*
X00939Y02054*
X00939Y02054*
X0094Y02055*
X0094Y02055*
X0094Y02056*
X0094Y02056*
X00939Y02056*
X00946Y02049*
G37*
G36*
X00882Y02031D02*
X00883Y0203D01*
X00884Y0203*
X00885Y02029*
X00885Y02029*
X00886Y02028*
X00887Y02028*
X00888Y02028*
X00889Y02028*
X0089Y02028*
X00881Y02019*
X00881Y0202*
X00881Y02021*
X00881Y02022*
X00881Y02023*
X0088Y02023*
X0088Y02024*
X00879Y02025*
X00879Y02026*
X00878Y02027*
X00877Y02028*
X00881Y02032*
X00882Y02031*
G37*
G36*
X00842Y02003D02*
X00842Y02004D01*
X00841Y02005*
X00841Y02006*
X0084Y02007*
X00839Y02008*
X00837Y02008*
X00836Y02009*
X00834Y02009*
X00832Y02009*
X0083Y02009*
Y02021*
X00832Y02021*
X00834Y02021*
X00836Y02022*
X00837Y02022*
X00839Y02023*
X0084Y02023*
X00841Y02024*
X00841Y02025*
X00842Y02026*
X00842Y02027*
Y02003*
G37*
G36*
X00469Y01997D02*
X00469Y01998D01*
X00469Y01998*
X00468Y01998*
X00467Y01999*
X00465Y01999*
X00462Y01999*
X00453Y01999*
Y02015*
X00457Y02015*
X00467Y02016*
X00468Y02016*
X00469Y02016*
X00469Y02017*
X00469Y02017*
Y01997*
G37*
G36*
X00222Y02023D02*
X00222Y02021D01*
X00223Y02018*
X00224Y02016*
X00225Y02014*
X00226Y02012*
X00227Y02009*
X00229Y02007*
X00231Y02005*
X00233Y02003*
X00222Y01991*
X0022Y01993*
X00217Y01995*
X00215Y01997*
X00213Y01999*
X00211Y02*
X00208Y02001*
X00206Y02002*
X00204Y02002*
X00202Y02003*
X00199Y02003*
X00222Y02025*
X00222Y02023*
G37*
G36*
X00702Y01982D02*
X00702Y01983D01*
X00702Y01983*
X00701Y01983*
X007Y01983*
X00698Y01983*
X0069Y01983*
Y01995*
X00693Y01995*
X00702Y01996*
X00702Y01996*
Y01982*
G37*
G36*
X00285Y01982D02*
X00285Y01982D01*
X00284Y01983*
X00284Y01982*
X00283Y01982*
X00283Y01982*
X00282Y01981*
X00281Y01981*
X0028Y0198*
X00278Y01978*
X00267Y0199*
X00269Y01991*
X00275Y01999*
X00275Y01999*
X00275Y01999*
X00285Y01982*
G37*
G36*
X01322Y01988D02*
X01322Y01988D01*
X01323Y01987*
X01324Y01987*
X01325Y01987*
X01326Y01986*
X01326Y01986*
X01327Y01986*
X01328Y01986*
X01329Y01986*
Y0198*
X01328Y0198*
X01327Y0198*
X01326Y0198*
X01326Y01979*
X01325Y01979*
X01324Y01979*
X01323Y01978*
X01322Y01978*
X01322Y01977*
X01321Y01977*
Y01989*
X01322Y01988*
G37*
G36*
X00161Y01969D02*
X00159Y01969D01*
X00152Y01968*
X00151Y01968*
X00149Y01967*
X00148Y01967*
X00148Y01966*
X00147Y01966*
X00147Y01965*
Y01989*
X00161Y01989*
Y01969*
G37*
G36*
X00702Y01963D02*
X00702Y01964D01*
X00702Y01964*
X00702Y01965*
X00701Y01965*
X00701Y01965*
X007Y01966*
X00699Y01966*
X00699Y01966*
X00698Y01966*
X00696Y01966*
X00696Y01972*
X00698Y01972*
X00699Y01972*
X00699Y01972*
X007Y01973*
X00701Y01973*
X00701Y01973*
X00702Y01974*
X00702Y01974*
X00702Y01975*
X00702Y01975*
Y01963*
G37*
G36*
X00357Y0197D02*
X00357Y01969D01*
X00356Y01969*
X00355Y01968*
X00355Y01967*
X00354Y01966*
X00354Y01965*
X00354Y01964*
X00353Y01963*
X00353Y01963*
X00353Y01962*
X00345Y0197*
X00346Y0197*
X00346Y0197*
X00347Y01971*
X00348Y01971*
X00349Y01971*
X0035Y01972*
X00351Y01972*
X00352Y01973*
X00352Y01974*
X00353Y01974*
X00357Y0197*
G37*
G36*
X01157Y01977D02*
X01158Y01976D01*
X01158Y01975*
X01159Y01974*
X0116Y01974*
X01162Y01973*
X01163Y01973*
X01165Y01972*
X01167Y01972*
X01169Y01972*
Y0196*
X01167Y0196*
X01165Y0196*
X01163Y0196*
X01162Y01959*
X0116Y01959*
X01159Y01958*
X01158Y01957*
X01158Y01956*
X01157Y01955*
X01157Y01954*
Y01978*
X01157Y01977*
G37*
G36*
X00584Y01979D02*
X00584Y01978D01*
X00585Y01977*
X00586Y01976*
X00587Y01975*
X00589Y01975*
X00591Y01974*
X00593Y01974*
X00595Y01974*
X00598Y01974*
Y01958*
X00595Y01958*
X00593Y01958*
X00591Y01957*
X00589Y01957*
X00587Y01956*
X00586Y01956*
X00585Y01955*
X00584Y01954*
X00584Y01953*
X00584Y01952*
Y0198*
X00584Y01979*
G37*
G36*
X00493Y01952D02*
X00493Y01953D01*
X00492Y01954*
X00492Y01955*
X00491Y01956*
X0049Y01956*
X00488Y01957*
X00486Y01957*
X00484Y01958*
X00482Y01958*
X00479Y01958*
Y01974*
X00482Y01974*
X00484Y01974*
X00486Y01974*
X00488Y01975*
X0049Y01975*
X00491Y01976*
X00492Y01977*
X00492Y01978*
X00493Y01979*
X00493Y0198*
Y01952*
G37*
G36*
X01198Y0195D02*
X01197Y0195D01*
X01197Y01951*
X01196Y01951*
X01195Y01951*
X01192Y01951*
X01184Y01951*
Y01963*
X01186Y01963*
X01197Y01964*
X01197Y01964*
X01198Y01964*
Y0195*
G37*
G36*
X00869Y0195D02*
X00869Y0195D01*
X00868Y01951*
X00868Y01951*
X00867Y01951*
X00865Y01951*
X00862Y01951*
X00855Y01952*
Y01978*
X00857Y01978*
X00868Y01978*
X00868Y01978*
X00869Y01979*
X00869Y01979*
Y0195*
G37*
G36*
X00702Y01943D02*
X00702Y01943D01*
X00702Y01944*
X00702Y01944*
X00701Y01944*
X00701Y01944*
X007Y01944*
X007Y01944*
X00699Y01944*
X00698Y01944*
X00697Y01944*
X00697Y0195*
X00698Y0195*
X00699Y01951*
X007Y01951*
X007Y01952*
X00701Y01952*
X00701Y01953*
X00702Y01953*
X00702Y01954*
X00702Y01954*
X00702Y01955*
Y01943*
G37*
G36*
X00118Y01968D02*
X00119Y01968D01*
X00119Y01968*
X00121Y01965*
X00119Y01965*
X00117Y01965*
X00116Y01964*
X00113Y01958*
X00111Y01955*
X00109Y01949*
X00108Y01947*
X00107Y01944*
X00107Y01941*
X00107Y01939*
X00087Y01958*
X00091Y01965*
X00091Y01965*
X00102Y01989*
X00118Y01968*
G37*
G36*
X00239Y01947D02*
X00222Y01928D01*
X00209Y01951*
X0021Y01951*
X00212Y01952*
X00213Y01952*
X00215Y01953*
X00216Y01954*
X00218Y01955*
X0022Y01956*
X00223Y01959*
X00225Y01961*
X00239Y01947*
G37*
G36*
X01198Y01925D02*
X01197Y01925D01*
X01197Y01925*
X01196Y01925*
X01195Y01925*
X01192Y01926*
X01184Y01926*
Y01938*
X01186Y01938*
X01197Y01938*
X01197Y01939*
X01198Y01939*
Y01925*
G37*
G36*
X01282Y01924D02*
X01282Y01924D01*
X01281Y01924*
X0128Y01924*
X01274Y01924*
X01267Y01924*
X01266Y01938*
X01269Y01938*
X01282Y01939*
X01282Y0194*
Y01924*
G37*
G36*
X00469Y01915D02*
X00469Y01915D01*
X00469Y01915*
X00468Y01916*
X00467Y01916*
X00465Y01916*
X00462Y01916*
X00453Y01917*
Y01933*
X00457Y01933*
X00467Y01933*
X00468Y01933*
X00469Y01934*
X00469Y01934*
X00469Y01934*
Y01915*
G37*
G36*
X00637Y01915D02*
X00617D01*
Y01935*
X00629*
Y01939*
X00637*
Y01915*
G37*
G36*
X00205Y01928D02*
X00203Y01928D01*
X002Y01927*
X00197Y01927*
X00194Y01926*
X00191Y01924*
X00188Y01923*
X00186Y01921*
X00183Y01919*
X0018Y01916*
X00177Y01914*
X00163Y01928*
X00177Y01951*
X00205Y01928*
G37*
G36*
X01157Y01934D02*
X01158Y01933D01*
X01158Y01932*
X01159Y01931*
X0116Y0193*
X01162Y0193*
X01163Y01929*
X01165Y01929*
X01167Y01929*
X01169Y01929*
Y01917*
X01167Y01917*
X01165Y01917*
X01163Y01916*
X01162Y01916*
X0116Y01915*
X01159Y01915*
X01158Y01914*
X01158Y01913*
X01157Y01912*
X01157Y01911*
Y01935*
X01157Y01934*
G37*
G36*
X00384Y01923D02*
X00382Y01921D01*
X00375Y01913*
X00374Y01912*
X00373Y01911*
X00373Y0191*
X00373Y01909*
X00358Y01923*
X00359Y01924*
X0036Y01924*
X00361Y01924*
X00362Y01925*
X00363Y01926*
X00367Y01929*
X00373Y01935*
X00384Y01923*
G37*
G36*
X00786Y0192D02*
X00786Y01919D01*
X00786Y01918*
X00786Y01918*
X00787Y01917*
X00787Y01916*
X00788Y01915*
X00789Y01914*
X00789Y01913*
X0079Y01913*
X00786Y01908*
X00785Y01909*
X00784Y0191*
X00783Y0191*
X00782Y01911*
X00782Y01911*
X00781Y01912*
X0078Y01912*
X00779Y01912*
X00778Y01912*
X00777Y01913*
X00786Y01921*
X00786Y0192*
G37*
G36*
X00107Y01928D02*
X00108Y01928D01*
X00109Y01928*
X0011Y01927*
X00111Y01927*
X00116Y01927*
X00122Y01927*
X00125Y01927*
Y01909*
X00122Y01909*
X0011Y01908*
X00109Y01907*
X00108Y01907*
X00107Y01907*
X00107Y01906*
Y01929*
X00107Y01928*
G37*
G36*
X00547Y01915D02*
X00546Y01914D01*
X00545Y01914*
X00545Y01913*
X00544Y01912*
X00544Y01911*
X00544Y0191*
X00543Y01908*
X00543Y01906*
X00543Y01905*
X00531*
X00531Y01906*
X00531Y0191*
X00531Y01911*
X00531Y01912*
X0053Y01913*
X0053Y01914*
X0053Y01914*
X00529Y01915*
X00529Y01915*
X00547*
X00547Y01915*
G37*
G36*
X01031Y01911D02*
X01029Y0191D01*
X01028Y01909*
X01027Y01908*
X01026Y01906*
X01025Y01904*
X01024Y01902*
X01024Y01899*
X01024Y01896*
X01024Y01893*
X01006*
X01005Y01896*
X01005Y01899*
X01005Y01902*
X01004Y01904*
X01003Y01906*
X01002Y01908*
X01001Y01909*
X01Y0191*
X00998Y01911*
X00997Y01911*
X01033*
X01031Y01911*
G37*
G36*
X00803Y01897D02*
X00803Y01896D01*
X00803Y01895*
X00803Y01895*
X00804Y01894*
X00804Y01894*
X00804Y01893*
X00805Y01893*
X00805Y01893*
X00806Y01893*
X00794*
X00795Y01893*
X00795Y01893*
X00796Y01893*
X00796Y01894*
X00796Y01894*
X00797Y01895*
X00797Y01895*
X00797Y01896*
X00797Y01897*
X00797Y01898*
X00803*
X00803Y01897*
G37*
G36*
X00638Y01901D02*
X00639Y019D01*
X00639Y019*
X0064Y01899*
X00641Y01899*
X00642Y01898*
X00643Y01898*
X00644Y01898*
X00645Y01898*
X00645Y01898*
X00637Y01889*
X00637Y0189*
X00637Y01891*
X00637Y01892*
X00636Y01893*
X00636Y01893*
X00635Y01894*
X00635Y01895*
X00634Y01896*
X00633Y01897*
X00633Y01898*
X00637Y01902*
X00638Y01901*
G37*
G36*
X00462Y01895D02*
X00461Y01894D01*
X0046Y01893*
X0046Y01893*
X00459Y01892*
X00459Y01891*
X00458Y0189*
X00458Y01889*
X00458Y01888*
X00458Y01887*
X00458Y01887*
X00449Y01895*
X0045Y01895*
X00451Y01895*
X00452Y01895*
X00453Y01896*
X00454Y01896*
X00454Y01897*
X00455Y01897*
X00456Y01898*
X00457Y01899*
X00458Y01899*
X00462Y01895*
G37*
G36*
X00351Y01871D02*
X00343Y0187D01*
Y01882*
X00344Y01882*
X00347Y01883*
X00348Y01883*
X00349Y01883*
X0035Y01883*
X00351Y01884*
X00351Y01884*
X00351Y01884*
X00351Y01885*
Y01871*
G37*
G36*
X00752Y0187D02*
X00752Y0187D01*
X00752Y0187*
X00751Y0187*
X00751Y01871*
X00751Y01871*
X0075Y01871*
X00749Y01871*
X00749Y01871*
X00748Y01871*
X00747Y01871*
Y01877*
X00748Y01877*
X00749Y01877*
X0075Y01878*
X00751Y01878*
X00751Y01878*
X00751Y01878*
X00752Y01878*
X00752Y01879*
X00752Y01879*
Y0187*
G37*
G36*
X01023Y01883D02*
X01024Y01869D01*
X01024Y01869*
X01004*
X01005Y01869*
X01005Y01869*
X01005Y0187*
X01005Y01872*
X01005Y01878*
X01005Y01887*
X01023*
X01023Y01883*
G37*
G36*
X01416Y01878D02*
X01416Y01875D01*
X01418*
X01417Y01874*
X01417Y01874*
X01417Y01873*
X01417Y01872*
X01417Y01871*
X01417Y0187*
X01417Y01868*
X01417Y01867*
X01418Y01865*
X01418Y01865*
X01419Y01864*
X0142Y01864*
X01416*
X01416Y01863*
X01416Y01857*
X01398*
X01398Y0186*
X01398Y01864*
X01396*
X01396Y01864*
X01397Y01865*
X01397Y01865*
X01397Y01867*
X01397Y01868*
X01397Y0187*
X01397Y01872*
X01397Y01873*
X01396Y01874*
X01396Y01874*
X01395Y01875*
X01398*
X01398Y01882*
X01416*
X01416Y01878*
G37*
G36*
X01386D02*
X01386Y01875D01*
X01389*
X01388Y01874*
X01388Y01874*
X01387Y01873*
X01387Y01872*
X01387Y0187*
X01387Y01869*
X01387Y01867*
X01387Y01865*
X01387Y01865*
X01388Y01864*
X01388Y01864*
X01386*
X01386Y01863*
X01386Y01857*
X01368*
X01368Y0186*
X01368Y01864*
X01364*
X01365Y01864*
X01366Y01865*
X01366Y01865*
X01367Y01867*
X01367Y01868*
X01367Y0187*
X01367Y01873*
X01367Y01874*
X01367Y01874*
X01366Y01875*
X01368*
X01368Y01878*
X01368Y01882*
X01386*
X01386Y01878*
G37*
G36*
X00937Y01867D02*
X00937Y01866D01*
X00937Y01865*
X00936Y01863*
X00936Y01858*
X00936Y01842*
X0091*
X0091Y01846*
X00908Y01863*
X00908Y01865*
X00907Y01866*
X00907Y01867*
X00906Y01868*
X00938*
X00937Y01867*
G37*
G36*
X00862D02*
X00861Y01866D01*
X00861Y01865*
X0086Y01863*
X0086Y01861*
X00859Y01858*
X00859Y01851*
X00859Y01842*
X00833*
X00831Y01868*
X00863*
X00862Y01867*
G37*
G36*
X00653Y01851D02*
X00653Y0185D01*
X00654Y0185*
X00655Y01849*
X00656Y01849*
X00657Y01848*
X00658Y01848*
X00658Y01848*
X00659Y01848*
X0066Y01848*
X00652Y01839*
X00652Y0184*
X00652Y01841*
X00651Y01842*
X00651Y01843*
X00651Y01843*
X0065Y01844*
X0065Y01845*
X00649Y01846*
X00648Y01847*
X00647Y01848*
X00652Y01852*
X00653Y01851*
G37*
G36*
X00994Y0185D02*
X00994Y0185D01*
X00994Y01849*
X00994Y01847*
X00994Y01841*
X00994Y01832*
X00976*
X00976Y01836*
X00975Y0185*
X00975Y0185*
X00995*
X00994Y0185*
G37*
G36*
X00678Y0183D02*
X00678Y01829D01*
X00678Y01828*
X00679Y01827*
X00679Y01826*
X0068Y01825*
X00681Y01823*
X00683Y01821*
X00684Y0182*
X0068Y01816*
X00679Y01817*
X00677Y01819*
X00675Y01819*
X00674Y0182*
X00673Y0182*
X00672Y01821*
X00672Y01821*
X00671Y01821*
X0067Y01821*
X00678Y0183*
X00678Y0183*
G37*
G36*
X00728Y01815D02*
X00728Y01814D01*
X00727Y01813*
X00726Y01813*
X00726Y01812*
X00725Y01811*
X00725Y0181*
X00725Y01808*
X00724Y01807*
X00724Y01806*
X00724Y01805*
X00718Y01803*
X00718Y01804*
X00718Y01805*
X00718Y01806*
X00717Y01807*
X00717Y01808*
X00716Y01808*
X00715Y01809*
X00714Y01809*
X00713Y01809*
X00712Y01809*
X00714Y01815*
X00715Y01815*
X00716Y01815*
X00717Y01816*
X00718Y01816*
X00719Y01816*
X0072Y01817*
X00721Y01817*
X00722Y01818*
X00723Y01819*
X00724Y0182*
X00728Y01815*
G37*
G36*
X01348Y01798D02*
X01349Y01795D01*
X01349Y01794*
X01349Y01793*
X01349Y01793*
X0135Y01792*
X0135Y01792*
X0135Y01792*
X01339*
X01339Y01792*
X01339Y01792*
X0134Y01793*
X0134Y01793*
X0134Y01794*
X0134Y01795*
X0134Y01796*
X0134Y01798*
X0134Y01799*
X01348*
X01348Y01798*
G37*
G36*
X01308Y01797D02*
X01308Y01796D01*
X01308Y01795*
X01308Y01794*
X01308Y01793*
X01309Y01793*
X01309Y01792*
X0131Y01792*
X0131Y01792*
X01311Y01792*
X01299*
X013Y01792*
X013Y01792*
X013Y01792*
X01301Y01793*
X01301Y01793*
X01301Y01794*
X01302Y01795*
X01302Y01796*
X01302Y01797*
X01302Y01798*
X01308*
X01308Y01797*
G37*
G36*
X01273Y01794D02*
X01271Y01792D01*
X01263*
X01264Y01792*
X01264Y01792*
X01265Y01792*
X01265Y01793*
X01266Y01793*
X01266Y01794*
X01267Y01795*
X01267Y01796*
X01268Y01797*
X01268Y01798*
X01273Y01794*
G37*
G36*
X01459Y0178D02*
X01457Y0178D01*
X01453Y0178*
X01452Y01779*
X01451Y01779*
X0145Y01779*
X01449Y01778*
X01449Y01777*
X01449Y01777*
X01449Y01776*
Y01792*
X01459Y01792*
Y0178*
G37*
G36*
X00653Y01775D02*
X00653Y01775D01*
Y01763*
X00653Y01763*
Y01759*
X00653Y0176*
X00652Y01761*
X00652Y01761*
X00651Y01762*
X0065Y01762*
X00648Y01763*
X00647Y01763*
X00646Y01763*
X00644Y01762*
X00643Y01762*
X00642Y01761*
X00642Y01761*
X00641Y0176*
X00641Y01759*
Y01763*
X00641Y01763*
Y01775*
X00641Y01775*
Y01779*
X00641Y01779*
X00642Y01778*
X00642Y01777*
X00643Y01777*
X00644Y01776*
X00646Y01776*
X00647Y01776*
X00648Y01776*
X0065Y01776*
X00651Y01777*
X00652Y01777*
X00652Y01778*
X00653Y01779*
X00653Y01779*
Y01775*
G37*
G36*
X01156Y01788D02*
X01156Y01787D01*
X01157Y01786*
X01158Y01785*
X01159Y01784*
X0116Y01784*
X01162Y01784*
X01163Y01783*
X01166Y01783*
X01168Y01783*
Y01771*
X01166Y01771*
X01163Y01771*
X01162Y0177*
X0116Y0177*
X01159Y0177*
X01158Y01769*
X01157Y01768*
X01156Y01767*
X01156Y01766*
X01156Y01765*
Y01789*
X01156Y01788*
G37*
G36*
X00817Y01739D02*
X00817Y01739D01*
X00817Y01738*
X00818Y01738*
X00818Y01738*
X00819Y01737*
X00815Y01732*
X00812Y01735*
X00817Y01739*
X00817Y01739*
G37*
G36*
X01094Y01727D02*
X01097Y01727D01*
X011Y01727*
Y01707*
X01097Y01707*
X01094Y01707*
Y01706*
X01094Y01707*
X01094Y01707*
X01093Y01707*
X01093Y01707*
X01088Y01706*
X01085Y01706*
X01084Y01706*
X01082Y01705*
X01081Y01704*
X01081Y01703*
X0108Y01702*
Y01707*
X01074Y01707*
Y01727*
X01078Y01727*
X0108Y01727*
Y0173*
X01081Y01729*
X01081Y01729*
X01082Y01728*
X01084Y01728*
X01085Y01728*
X01087Y01728*
X01089Y01728*
X01091Y01728*
X01093Y01729*
X01094Y01729*
X01094Y0173*
X01094Y0173*
Y01727*
G37*
G36*
X01182Y01734D02*
Y01725D01*
X01182Y01726*
X01182Y01726*
X01182Y01727*
X01181Y01727*
X01181Y01727*
X0118Y01728*
X01179Y01728*
X01178Y01728*
X01177Y01728*
X01176Y01728*
Y01734*
X01182Y01734*
G37*
G36*
X00624Y01856D02*
X00627Y01854D01*
X00628Y01854*
X00637Y01845*
Y01806*
X00617Y01786*
Y0175*
X00617Y0175*
X00632*
X00635Y01747*
Y0173*
X00574*
X00573Y0173*
X00565*
X0055Y01715*
X00512*
X00502Y01725*
Y0178*
X00518Y01796*
X00533*
X0056Y01822*
Y01842*
X00587Y0187*
X0061*
X00624Y01856*
G37*
G36*
X00465Y01777D02*
Y01722D01*
X00457Y01715*
X00432*
X00422Y01725*
X00395*
Y01775*
X00407Y01787*
X00455*
X00465Y01777*
G37*
G36*
X00981Y0171D02*
X00981Y01711D01*
X00981Y01711*
X00981Y01712*
X0098Y01712*
X0098Y01712*
X00979Y01713*
X00978Y01713*
X00977Y01713*
X00976Y01713*
X00975Y01713*
Y01719*
X00976Y01719*
X00977Y01719*
X00978Y01719*
X00979Y0172*
X0098Y0172*
X0098Y0172*
X00981Y01721*
X00981Y01721*
X00981Y01722*
X00981Y01722*
Y0171*
G37*
G36*
X01487Y01714D02*
X01487Y01713D01*
X01487Y01713*
X01488Y01712*
X01488Y01712*
X01489Y01712*
X0149Y01712*
X01491Y01712*
X01492Y01711*
X01493Y01711*
Y01705*
X01492Y01705*
X01491Y01705*
X0149Y01705*
X01489Y01705*
X01488Y01705*
X01488Y01704*
X01487Y01704*
X01487Y01704*
X01487Y01703*
X01487Y01703*
Y01714*
X01487Y01714*
G37*
G36*
X00295Y01722D02*
X00295Y01721D01*
X00296Y0172*
X00296Y01719*
X00297Y01719*
X00299Y01718*
X003Y01718*
X00302Y01718*
X00304Y01717*
X00306Y01717*
Y01705*
X00304Y01705*
X00302Y01705*
X003Y01705*
X00299Y01705*
X00297Y01704*
X00296Y01703*
X00296Y01703*
X00295Y01702*
X00295Y01701*
X00294Y017*
Y01723*
X00295Y01722*
G37*
G36*
X0034Y01706D02*
X0032Y01697D01*
X0032Y01698*
X00319Y01699*
X00319Y017*
X00319Y01701*
X00318Y01702*
X00318Y01703*
X00317Y01704*
X00317Y01704*
X00316Y01705*
X00315Y01705*
X00325Y01715*
X0034Y01706*
G37*
G36*
X00478Y01703D02*
X00478Y017D01*
X00478Y01698*
X00479Y01697*
X00479Y01696*
X0048Y01695*
X0048Y01694*
X00481Y01694*
X00481Y01694*
X00462*
X00463Y01694*
X00463Y01694*
X00464Y01695*
X00464Y01696*
X00465Y01697*
X00465Y01698*
X00465Y017*
X00466Y01701*
X00466Y01706*
X00478*
X00478Y01703*
G37*
G36*
X00111Y01704D02*
X00112Y01691D01*
X00112Y0169*
X00113Y0169*
X00078*
X00078Y0169*
X00079Y01691*
X00079Y01691*
X00079Y01693*
X00079Y01696*
X00079Y01707*
X00111*
X00111Y01704*
G37*
G36*
X01487Y01694D02*
X01487Y01693D01*
X01487Y01693*
X01488Y01693*
X01488Y01692*
X01489Y01692*
X0149Y01692*
X01491Y01692*
X01492Y01692*
X01493Y01692*
Y01686*
X01492Y01686*
X01491Y01686*
X0149Y01685*
X01489Y01685*
X01488Y01685*
X01488Y01685*
X01487Y01684*
X01487Y01684*
X01487Y01683*
X01487Y01683*
Y01694*
X01487Y01694*
G37*
G36*
X01182Y01683D02*
X01182Y01683D01*
X01182Y01683*
X01182Y01684*
X01181Y01684*
X01181Y01684*
X0118Y01684*
X01179Y01684*
X01177Y01684*
X01176Y01684*
Y0169*
X01177Y0169*
X01178Y0169*
X01179Y0169*
X0118Y01691*
X01181Y01691*
X01181Y01691*
X01182Y01692*
X01182Y01692*
X01182Y01693*
X01182Y01693*
Y01683*
G37*
G36*
X00369Y01696D02*
X0037Y01695D01*
X0037Y01694*
X0037Y01693*
X00371Y01692*
X00371Y01691*
X00372Y0169*
X00373Y01689*
X00373Y01689*
X00374Y01688*
X00363Y01679*
X00349Y01688*
X00369Y01697*
X00369Y01696*
G37*
G36*
X01487Y01674D02*
X01487Y01674D01*
X01488Y01674*
X01488Y01674*
X01489Y01673*
X0149Y01673*
X01491Y01673*
X01493Y01673*
X01495Y01673*
Y01665*
X01493Y01665*
X0149Y01665*
X01489Y01665*
X01488Y01664*
X01488Y01664*
X01487Y01664*
X01487Y01664*
X01487Y01663*
Y01675*
X01487Y01674*
G37*
G36*
X01447Y01676D02*
X01447Y01676D01*
X01447Y01675*
X01448Y01674*
X01449Y01674*
X01449Y01674*
X01451Y01673*
X01451Y01673*
X01452Y01673*
X01452Y01674*
X01453Y01674*
X01453Y01674*
X01454Y01674*
X01454Y01675*
Y01673*
X01455Y01673*
Y01665*
X01454Y01665*
Y01663*
X01454Y01664*
X01453Y01664*
X01453Y01664*
X01452Y01664*
X01452Y01665*
X01451Y01665*
X01451Y01665*
X01449Y01664*
X01449Y01664*
X01448Y01664*
X01447Y01663*
X01447Y01662*
X01447Y01662*
X01447Y01661*
Y01665*
X01446Y01665*
Y01673*
X01447Y01673*
Y01677*
X01447Y01676*
G37*
G36*
X01182Y01663D02*
X01182Y01664D01*
X01182Y01664*
X01182Y01665*
X01181Y01665*
X01181Y01665*
X0118Y01666*
X01179Y01666*
X01178Y01666*
X01177Y01666*
X01176Y01666*
Y01672*
X01177Y01672*
X01178Y01672*
X01179Y01672*
X0118Y01672*
X01181Y01673*
X01181Y01673*
X01182Y01673*
X01182Y01674*
X01182Y01674*
X01182Y01675*
Y01663*
G37*
G36*
X0108Y01674D02*
X01081Y01674D01*
X01081Y01673*
X01081Y01673*
X01082Y01673*
X01083Y01673*
X01083Y01672*
X01084Y01672*
X01085Y01672*
X01086Y01672*
Y01666*
X01085Y01666*
X01084Y01666*
X01083Y01666*
X01083Y01666*
X01082Y01665*
X01081Y01665*
X01081Y01665*
X01081Y01664*
X0108Y01664*
X0108Y01663*
Y01675*
X0108Y01674*
G37*
G36*
X00441Y0167D02*
X00441Y0167D01*
X0044Y01669*
X00439Y01668*
X00439Y01667*
X00439Y01666*
X00438Y01664*
X00438Y01663*
X00438Y01661*
X00438Y01658*
X00426*
X00426Y01661*
X00426Y01664*
X00425Y01666*
X00425Y01667*
X00425Y01668*
X00424Y01669*
X00424Y0167*
X00423Y0167*
X00423Y0167*
X00442*
X00441Y0167*
G37*
G36*
X0029Y01673D02*
X0029Y01671D01*
X00294*
X00294Y01671*
X00293Y01671*
X00292Y0167*
X00292Y01669*
X00291Y01667*
X00291Y01666*
X00291Y01665*
X00291Y01663*
X00291Y01662*
X00292Y01658*
X00292Y01657*
X00293Y01656*
X0029*
X0029Y01655*
X00274*
X00274Y01656*
X00271*
X00272Y01657*
X00272Y01658*
X00273Y0166*
X00273Y01662*
X00274Y01666*
X00274Y01668*
X00274Y01676*
X0029*
X0029Y01673*
G37*
G36*
X01008Y01669D02*
X01009Y01668D01*
X01009Y01667*
X01009Y01666*
X0101Y01665*
X0101Y01664*
X01011Y01663*
X01012Y01661*
X01013Y0166*
X01014Y01659*
X01008Y01654*
X01007Y01655*
X01006Y01656*
X01005Y01656*
X01004Y01657*
X01003Y01658*
X01002Y01658*
X01Y01659*
X00999Y01659*
X00998Y01659*
X00997Y01659*
X01008Y01671*
X01008Y01669*
G37*
G36*
X01541Y01666D02*
X01542Y01665D01*
X01544Y01664*
X01545Y01664*
X01546Y01663*
X01548Y01662*
X01549Y01662*
X01551Y01662*
X01552Y01662*
X01554Y01662*
X01556Y01654*
X01554Y01653*
X01553Y01653*
X01552Y01653*
X01551Y01652*
X0155Y01652*
X01549Y01651*
X01549Y0165*
X01548Y01648*
X01548Y01647*
X01548Y01646*
X0154Y01648*
X0154Y01649*
X0154Y01651*
X01539Y01652*
X01539Y01654*
X01539Y01655*
X01538Y01657*
X01537Y01658*
X01536Y01659*
X01535Y0166*
X01534Y01662*
X0154Y01667*
X01541Y01666*
G37*
G36*
X01686Y01626D02*
X01685Y01626D01*
X01684Y01627*
X01683Y01627*
X01682Y01628*
X0168Y01628*
X01679Y01628*
X01678Y01628*
X01676Y01628*
X01675Y01627*
X01673Y01627*
X01671Y01632*
X01672Y01633*
X01673Y01634*
X01674Y01634*
X01675Y01635*
X01675Y01636*
X01676Y01637*
X01676Y01638*
X01676Y01639*
X01676Y0164*
X01676Y01641*
X01686Y01626*
G37*
G36*
X01591Y01635D02*
X01591Y01635D01*
X01592Y01634*
X01592Y01634*
X01593Y01633*
X01593Y01633*
X01594Y01633*
X01595Y01633*
X01596Y01633*
X01597Y01633*
Y01627*
X01596Y01627*
X01595Y01626*
X01594Y01626*
X01593Y01626*
X01593Y01626*
X01592Y01626*
X01592Y01625*
X01591Y01625*
X01591Y01624*
X01591Y01624*
Y01636*
X01591Y01635*
G37*
G36*
X01573Y0162D02*
X01573Y0162D01*
X01573Y0162*
X01572Y01621*
X01572Y01621*
X01571Y01621*
X01571Y01621*
X0157Y01621*
X01569Y01621*
X01567Y01622*
Y01628*
X01568Y01628*
X01569Y01628*
X0157Y01628*
X01571Y01628*
X01571Y01628*
X01572Y01629*
X01572Y01629*
X01573Y01629*
X01573Y0163*
X01573Y01631*
Y0162*
G37*
G36*
X01487Y01615D02*
X01487Y01615D01*
X01487Y01614*
X01488Y01614*
X01488Y01614*
X01489Y01613*
X0149Y01613*
X01491Y01613*
X01492Y01613*
X01493Y01613*
Y01607*
X01492Y01607*
X01491Y01607*
X0149Y01607*
X01489Y01607*
X01488Y01606*
X01488Y01606*
X01487Y01606*
X01487Y01605*
X01487Y01605*
X01487Y01604*
Y01616*
X01487Y01615*
G37*
G36*
X01182Y01604D02*
X01178Y01604D01*
Y0161*
X01179Y0161*
X01181Y0161*
X01181Y0161*
X01181Y0161*
X01182Y01611*
X01182Y01611*
X01182Y01611*
X01182Y01611*
Y01604*
G37*
G36*
X01097Y01602D02*
X01097Y01602D01*
X01097Y01603*
X01096Y01604*
X01096Y01604*
X01095Y01605*
X01094Y01605*
X01093Y01605*
X01092Y01605*
X0109Y01605*
X01089Y01606*
Y01614*
X0109Y01614*
X01092Y01614*
X01093Y01614*
X01094Y01614*
X01095Y01615*
X01096Y01615*
X01096Y01615*
X01097Y01616*
X01097Y01617*
X01097Y01618*
Y01602*
G37*
G36*
X00393Y01615D02*
X00393Y01613D01*
X00394Y01612*
X00394Y01611*
X00394Y0161*
X00394Y01609*
X00395Y01608*
X00395Y01607*
X00396Y01606*
X00397Y01605*
X0039Y016*
X0039Y01601*
X00389Y01602*
X00388Y01603*
X00387Y01604*
X00386Y01604*
X00385Y01605*
X00384Y01605*
X00383Y01606*
X00382Y01606*
X00381Y01606*
X00394Y01616*
X00393Y01615*
G37*
G36*
X00745Y01603D02*
X00745Y01603D01*
X00745Y01602*
X00745Y01602*
X00745Y01601*
X00745Y01599*
X00737*
X00737Y01603*
X00745*
X00745Y01603*
G37*
G36*
X01182Y01585D02*
X01182Y01585D01*
X01182Y01585*
X01182Y01585*
X01181Y01585*
X01178Y01585*
X01176Y01585*
Y01591*
X01177Y01591*
X01178Y01591*
X01179Y01591*
X0118Y01591*
X01181Y01592*
X01181Y01592*
X01182Y01592*
X01182Y01593*
X01182Y01593*
X01182Y01594*
Y01585*
G37*
G36*
X00838Y01584D02*
X00837Y01583D01*
X00836Y01581*
X00835Y01581*
X00835Y0158*
X00834Y01579*
X00834Y01578*
X00834Y01578*
X00834Y01577*
X00834Y01577*
X00827Y01584*
X00827Y01584*
X00828Y01584*
X00828Y01584*
X00829Y01584*
X0083Y01585*
X0083Y01585*
X00831Y01586*
X00833Y01587*
X00834Y01588*
X00838Y01584*
G37*
G36*
X00751Y01567D02*
X00751Y01567D01*
X00751Y01568*
X00751Y01569*
X0075Y01569*
X00749Y0157*
X00748Y0157*
X00747Y0157*
X00746Y0157*
X00745Y0157*
X00743Y01571*
Y01579*
X00745Y01579*
X00746Y01579*
X00747Y01579*
X00748Y01579*
X00749Y0158*
X0075Y0158*
X00751Y0158*
X00751Y01581*
X00751Y01582*
X00751Y01583*
Y01567*
G37*
G36*
X00865Y01583D02*
X00866Y01583D01*
X00866Y01583*
X00867Y01583*
X00868Y01583*
X00871Y01583*
X00877Y01583*
Y01567*
X00875Y01566*
X00866Y01566*
X00866Y01566*
X00865Y01566*
X00865Y01565*
Y01584*
X00865Y01583*
G37*
G36*
X01182Y01565D02*
X01182Y01565D01*
X01182Y01566*
X01182Y01566*
X01181Y01567*
X01181Y01567*
X0118Y01567*
X01179Y01567*
X01178Y01567*
X01177Y01568*
X01176Y01568*
Y01574*
X01177Y01574*
X01178Y01574*
X01179Y01574*
X0118Y01574*
X01181Y01574*
X01181Y01575*
X01182Y01575*
X01182Y01575*
X01182Y01576*
X01182Y01576*
Y01565*
G37*
G36*
X00636Y01557D02*
X00637Y01554D01*
X00637Y01553*
X00637Y01552*
X00637Y01552*
X00637Y01551*
X00637Y01551*
X00629*
X0063Y01551*
X0063Y01552*
X0063Y01552*
X0063Y01553*
X0063Y01554*
X0063Y01555*
X0063Y01557*
X0063Y01558*
X00636*
X00636Y01557*
G37*
G36*
X00576Y01553D02*
X0057Y01548D01*
X0057Y01549*
X0057Y0155*
X0057Y0155*
X00569Y01551*
X00569Y01552*
X00569Y01553*
X00568Y01554*
X00568Y01554*
X00567Y01555*
X00566Y01556*
X00571Y0156*
X00576Y01553*
G37*
G36*
X00591Y01557D02*
X00595Y01554D01*
X00595Y01553*
X00596Y01553*
X0059Y01546*
X0059Y01547*
X0059Y01547*
X00589Y01548*
X00589Y01549*
X00589Y0155*
X00588Y01551*
X00588Y01552*
X00587Y01553*
X00586Y01553*
X00586Y01554*
X00591Y01558*
X00591Y01557*
G37*
G36*
X01182Y01545D02*
X01182Y01546D01*
X01182Y01546*
X01182Y01547*
X01181Y01547*
X01181Y01547*
X0118Y01547*
X01179Y01548*
X01178Y01548*
X01177Y01548*
X01176Y01548*
Y01554*
X01177Y01554*
X01178Y01554*
X01179Y01554*
X0118Y01554*
X01181Y01555*
X01181Y01555*
X01182Y01555*
X01182Y01556*
X01182Y01556*
X01182Y01557*
Y01545*
G37*
G36*
X00702Y01554D02*
X00701Y01553D01*
X007Y01552*
X00699Y01551*
X00699Y0155*
X00698Y01549*
X00698Y01548*
X00697Y01546*
X00697Y01545*
X00697Y01544*
X00697Y01543*
X00691Y01553*
X00698Y01561*
X00702Y01554*
G37*
G36*
X00722Y01554D02*
X00721Y01553D01*
X0072Y01552*
X00719Y01551*
X00718Y0155*
X00718Y01549*
X00717Y01547*
X00717Y01546*
X00717Y01545*
X00716Y01544*
X00716Y01543*
X0071Y01553*
X00718Y01561*
X00722Y01554*
G37*
G36*
X00872Y01547D02*
X00871Y01546D01*
X0087Y01545*
X0087Y01544*
X00869Y01543*
X00869Y01543*
X00868Y01542*
X00868Y01541*
X00868Y0154*
X00868Y01539*
X00868Y01538*
X00859Y01546*
X00859Y01546*
X0086Y01546*
X00861Y01547*
X00862Y01547*
X00863Y01547*
X00864Y01548*
X00864Y01548*
X00865Y01549*
X00866Y0155*
X00867Y0155*
X00872Y01547*
G37*
G36*
X01636Y01597D02*
Y01536D01*
X01566*
Y01597*
X01578Y01609*
X01624*
X01636Y01597*
G37*
G36*
X00782Y01529D02*
X00782Y0153D01*
X00782Y0153*
X00781Y01531*
X00781Y01532*
X0078Y01532*
X00779Y01532*
X00778Y01533*
X00777Y01533*
X00776Y01533*
X00774Y01533*
Y01541*
X00776Y01541*
X00777Y01541*
X00778Y01541*
X00779Y01542*
X0078Y01542*
X00781Y01542*
X00781Y01543*
X00782Y01544*
X00782Y01544*
X00782Y01545*
Y01529*
G37*
G36*
X00736Y01544D02*
X00736Y01544D01*
X00737Y01543*
X00737Y01542*
X00738Y01542*
X00739Y01542*
X0074Y01541*
X00741Y01541*
X00743Y01541*
X00744Y01541*
Y01533*
X00743Y01533*
X00741Y01533*
X0074Y01533*
X00739Y01532*
X00738Y01532*
X00737Y01532*
X00737Y01531*
X00736Y0153*
X00736Y0153*
X00736Y01529*
Y01545*
X00736Y01544*
G37*
G36*
X00232Y01738D02*
X00232Y01592D01*
X00232Y01583*
X00228Y01565*
X00221Y01548*
X00211Y01533*
X00204Y01527*
X0013*
X00115Y01542*
X0014Y01567*
Y01597*
X00166Y01623*
Y01677*
X00228Y0174*
X00232Y01738*
G37*
G36*
X0052Y01523D02*
X0052Y01522D01*
X0052Y01521*
X0052Y01521*
X00521Y0152*
X00521Y01519*
X00521Y01519*
X00522Y01519*
X00522Y01518*
X00523Y01518*
X00515Y01516*
X00514Y01524*
X0052Y01524*
X0052Y01523*
G37*
G36*
X01487Y01525D02*
X01486Y01525D01*
X01486Y01524*
X01486Y01524*
X01486Y01522*
X01486Y0152*
X01486Y01513*
X01474*
X01473Y01516*
X01473Y01518*
X01473Y0152*
X01473Y01521*
X01472Y01522*
X01471Y01524*
X01471Y01524*
X0147Y01525*
X01469Y01525*
X01468Y01525*
X01487*
X01487Y01525*
G37*
G36*
X00515Y01502D02*
X00516Y01501D01*
X00517Y01501*
X00518Y015*
X00519Y015*
X0052Y01499*
X0052Y01499*
X00521Y01499*
X00522Y01499*
X00523Y01499*
X00515Y01493*
X00515Y01493*
X00515Y01493*
X00515Y01494*
X00515Y01494*
X00514Y01495*
X00511Y01498*
X00515Y01503*
X00515Y01502*
G37*
G36*
X0122Y01487D02*
X01214Y01487D01*
Y01493*
X01216Y01493*
X01217Y01493*
X01218Y01493*
X01218Y01493*
X01219Y01494*
X01219Y01494*
X0122Y01494*
X0122Y01495*
X0122Y01495*
X0122Y01496*
Y01487*
G37*
G36*
X0135Y01487D02*
X01349Y01487D01*
X01349Y01487*
X01348Y01486*
X01348Y01486*
X01348Y01485*
X01348Y01484*
X01347Y01483*
X01347Y01482*
X01347Y01481*
X01341*
X01341Y01482*
X01341Y01483*
X01341Y01484*
X01341Y01485*
X01341Y01486*
X0134Y01486*
X0134Y01487*
X0134Y01487*
X01339Y01487*
X01339Y01487*
X0135*
X0135Y01487*
G37*
G36*
X0133D02*
X01329Y01487D01*
X01329Y01487*
X01329Y01486*
X01328Y01486*
X01328Y01485*
X01328Y01484*
X01328Y01483*
X01328Y01482*
X01328Y01481*
X01322*
X01322Y01482*
X01322Y01483*
X01321Y01484*
X01321Y01485*
X01321Y01486*
X01321Y01486*
X0132Y01487*
X0132Y01487*
X01319Y01487*
X01319Y01487*
X0133*
X0133Y01487*
G37*
G36*
X0131D02*
X01309Y01487D01*
X01309Y01487*
X01309Y01486*
X01308Y01486*
X01308Y01485*
X01308Y01484*
X01308Y01483*
X01308Y01482*
X01308Y01481*
X01302*
X01301Y01482*
X01301Y01484*
X01301Y01485*
X01301Y01486*
X01301Y01486*
X013Y01487*
X013Y01487*
X013Y01487*
X01299Y01487*
X01311*
X0131Y01487*
G37*
G36*
X01291D02*
X0129Y01487D01*
X0129Y01487*
X01289Y01486*
X01289Y01486*
X01289Y01485*
X01289Y01484*
X01288Y01483*
X01288Y01482*
X01288Y01481*
X01282*
X01282Y01482*
X01282Y01483*
X01282Y01484*
X01282Y01485*
X01282Y01486*
X01281Y01486*
X01281Y01487*
X01281Y01487*
X0128Y01487*
X0128Y01487*
X01291*
X01291Y01487*
G37*
G36*
X01271D02*
X0127Y01487D01*
X0127Y01487*
X0127Y01486*
X01269Y01486*
X01269Y01485*
X01269Y01484*
X01269Y01483*
X01269Y01482*
X01269Y01481*
X01263*
X01263Y01482*
X01262Y01483*
X01262Y01484*
X01262Y01485*
X01262Y01486*
X01262Y01486*
X01261Y01487*
X01261Y01487*
X0126Y01487*
X0126Y01487*
X01271*
X01271Y01487*
G37*
G36*
X01429Y01479D02*
X01421D01*
X01421Y01481*
X01421Y01482*
X01421Y01483*
X0142Y01484*
X0142Y01485*
X0142Y01486*
X01419Y01486*
X01419Y01487*
X01418Y01487*
X01417Y01487*
X01429*
X01429Y01479*
G37*
G36*
X00547Y01476D02*
X00547Y01476D01*
X00547Y01475*
X00547Y01475*
X00548Y01474*
X00549Y01473*
X0055Y01471*
X00551Y0147*
X00547Y01466*
X00546Y01467*
X00545Y01468*
X00544Y01468*
X00543Y01469*
X00543Y01469*
X00542Y0147*
X00541Y0147*
X0054Y0147*
X00539Y0147*
X00538Y0147*
X00547Y01476*
X00547Y01476*
G37*
G36*
X00515Y01463D02*
X00516Y01462D01*
X00517Y01461*
X00518Y01461*
X00519Y0146*
X00519Y0146*
X0052Y0146*
X00521Y01459*
X00522Y01459*
X00523Y01459*
X00515Y01453*
X00515Y01454*
X00515Y01454*
X00515Y01454*
X00514Y01455*
X00512Y01458*
X00511Y01458*
X00514Y01463*
X00515Y01463*
G37*
G36*
X01387Y01462D02*
X01397Y01452D01*
X01396Y01448*
X0138Y01442*
X01365Y01457*
Y01515*
X01387*
Y01462*
G37*
G36*
X01417Y01427D02*
X01417Y01427D01*
Y01411*
X01417Y01411*
Y01409*
X01417Y01409*
X01416Y0141*
X01416Y0141*
X01414Y0141*
X01413Y01411*
X01411Y01411*
X0141Y01411*
X01409Y01411*
X01407Y01411*
X01405Y0141*
X01404Y0141*
X01403Y01409*
X01402Y01409*
X01401Y01408*
X01401Y01407*
Y01411*
X01401Y01411*
Y01427*
X01401Y01427*
Y01431*
X01401Y0143*
X01402Y01429*
X01403Y01429*
X01404Y01429*
X01405Y01428*
X01407Y01428*
X01408Y01428*
X01411Y01428*
X01413Y01428*
X01414Y01429*
X01416Y01429*
X01416Y0143*
X01417Y01431*
X01417Y01431*
Y01427*
G37*
G36*
X00551Y0144D02*
X0055Y01439D01*
X00548Y01436*
X00547Y01435*
X00547Y01435*
X00547Y01435*
X00548Y01435*
X00549Y01433*
X0055Y01432*
X00551Y01431*
X00547Y01427*
X00546Y01428*
X00545Y01428*
X00544Y01429*
X00543Y0143*
X00543Y0143*
X00542Y0143*
X00541Y01431*
X0054Y01431*
X00539Y01431*
X00538Y01431*
X00544Y01435*
X00538Y0144*
X00539Y0144*
X0054Y0144*
X00541Y0144*
X00542Y0144*
X00543Y01441*
X00543Y01441*
X00544Y01442*
X00545Y01442*
X00546Y01443*
X00547Y01444*
X00551Y0144*
G37*
G36*
X00515Y01423D02*
X00516Y01423D01*
X00517Y01422*
X00518Y01421*
X00518Y01421*
X00519Y01421*
X0052Y0142*
X00521Y0142*
X00522Y0142*
X00523Y0142*
X00515Y01414*
X00515Y01414*
X00515Y01414*
X00515Y01415*
X00512Y01417*
X0051Y0142*
X00514Y01424*
X00515Y01423*
G37*
G36*
X0151Y01413D02*
X01513D01*
X01512Y01413*
X01512Y01412*
X01511Y01412*
X01511Y01411*
X01511Y0141*
X0151Y01408*
X0151Y01408*
X01511Y01406*
X01511Y01405*
X01511Y01404*
X01512Y01403*
X01512Y01403*
X01513Y01402*
X01514Y01402*
X0151*
X0151Y01401*
X01498*
X01498Y01402*
X01495*
X01496Y01402*
X01496Y01403*
X01497Y01403*
X01497Y01404*
X01497Y01405*
X01498Y01406*
X01498Y01407*
X01497Y01408*
X01497Y0141*
X01497Y01411*
X01496Y01412*
X01496Y01412*
X01495Y01413*
X01495Y01413*
X01498*
X01498Y01414*
X0151*
X0151Y01413*
G37*
G36*
X00551Y014D02*
X0055Y01399D01*
X00548Y01397*
X00547Y01396*
X00547Y01396*
X00547Y01395*
X00547Y01395*
X00547Y01394*
X00538Y014*
X00539Y014*
X0054Y014*
X00541Y01401*
X00542Y01401*
X00543Y01401*
X00543Y01402*
X00544Y01402*
X00545Y01403*
X00546Y01404*
X00547Y01404*
X00551Y014*
G37*
G36*
X00516Y01404D02*
X00517Y01403D01*
X00518Y01402*
X00518Y01402*
X00519Y01401*
X0052Y01401*
X00521Y01401*
X00522Y014*
X00523Y014*
X00524Y014*
X00515Y01394*
X00515Y01395*
X00515Y01395*
X00515Y01396*
X00514Y01396*
X00514Y01397*
X00513Y01398*
X00512Y01399*
X00511Y014*
X00515Y01404*
X00516Y01404*
G37*
G36*
X00361Y0138D02*
X00349D01*
X0035Y0138*
X0035Y0138*
X00351Y0138*
X00352Y01381*
X00352Y01382*
X00352Y01383*
X00353Y01384*
X00353Y01385*
X00353Y01386*
X00353Y01388*
X00361*
X00361Y0138*
G37*
G36*
X00442Y01397D02*
X00441Y01395D01*
X00441Y01394*
X0044Y01392*
X00439Y01387*
X00439Y01386*
X00439Y01383*
X0044Y01382*
X0044Y01382*
X0044Y01381*
X00441Y01381*
X00439*
X00439Y0138*
X00439Y01378*
X00423Y0138*
X00423Y01381*
X00418*
X00419Y01381*
X0042Y01382*
X00421Y01382*
X00421Y01383*
X00422Y01385*
X00422Y01387*
X00422Y01389*
X00422Y01389*
X00422Y01396*
X00422Y01397*
X00421Y01398*
X00421Y01399*
X00443*
X00442Y01397*
G37*
G36*
X01636Y01461D02*
Y01439D01*
X01632Y01435*
X01659Y01408*
Y01381*
X01655Y01377*
X01635*
X01617Y01395*
X0155*
X01535Y0141*
Y01465*
X01548Y01478*
X01619*
X01636Y01461*
G37*
G36*
X00272Y01457D02*
D01*
X00276Y01457*
X00285Y01454*
X00291Y01447*
X00294Y01439*
Y01435*
X00295Y01398*
X00294*
X00295Y01397*
X00294Y01396*
X00294Y01394*
X00293Y01393*
X00292Y01392*
X00292Y0136*
X00289Y01357*
X00273*
X00273Y01361*
X00272Y01369*
X00269Y01376*
X00264Y01382*
X00259Y01388*
X00252Y01392*
X00245Y01395*
X00237Y01397*
X00233Y01397*
X00088*
X00084Y01399*
X00081Y01401*
X0008Y01405*
Y01428*
X00081Y01434*
X00083Y0144*
X00087Y01445*
X00091Y0145*
X00097Y01453*
X00103Y01456*
X00109Y01457*
X00272*
X00272Y01457*
G37*
G36*
X00394Y01362D02*
X00393Y01362D01*
X00391Y01362*
X0039Y01361*
X00389Y01361*
X00388Y01361*
X00387Y0136*
X00386Y01359*
X00384Y01359*
X00383Y01358*
X00382Y01357*
X00374Y0136*
X00375Y01361*
X00376Y01362*
X00377Y01363*
X00378Y01364*
X00378Y01365*
X00379Y01367*
X00379Y01368*
X0038Y01369*
X0038Y0137*
X0038Y01371*
X00394Y01362*
G37*
G36*
X00568Y01348D02*
X00568Y01349D01*
X00568Y0135*
X00568Y0135*
X00567Y01351*
X00566Y01351*
X00565Y01352*
X00564Y01352*
X00563Y01352*
X00561Y01352*
X0056Y01352*
Y01361*
X00561Y01361*
X00563Y01361*
X00564Y01361*
X00565Y01362*
X00566Y01362*
X00567Y01362*
X00568Y01363*
X00568Y01364*
X00568Y01364*
X00568Y01365*
Y01348*
G37*
G36*
X01567Y01342D02*
X01571Y01342D01*
Y01316*
X01567Y01316*
Y01311*
X01566Y01312*
X01566Y01313*
X01564Y01314*
X01563Y01314*
X0156Y01315*
X01558Y01315*
X01554Y01315*
X01551Y01314*
X01549Y01313*
X01547Y01312*
X01546Y01311*
X01545Y0131*
X01545Y01309*
Y01315*
X01541Y01316*
Y01342*
X01545Y01342*
Y01348*
X01545Y01347*
X01546Y01346*
X01547Y01345*
X01549Y01344*
X01551Y01343*
X01554Y01343*
X01555Y01343*
X01557Y01343*
X0156Y01344*
X01563Y01345*
X01564Y01346*
X01566Y01347*
X01566Y01349*
X01567Y01351*
Y01342*
G37*
G36*
X00367Y01343D02*
X00366Y01342D01*
X00365Y01341*
X00364Y0134*
X00363Y01339*
X00363Y01338*
X00362Y01337*
X00362Y01336*
X00361Y01335*
X00361Y01334*
X00361Y01333*
X00352Y01346*
X00353Y01346*
X00355Y01346*
X00356Y01347*
X00357Y01347*
X00358Y01347*
X00359Y01348*
X00361Y01349*
X00362Y0135*
X00363Y0135*
X00364Y01351*
X00367Y01343*
G37*
G36*
X00736Y01315D02*
X00736Y01314D01*
X00737Y01312*
X00737Y01311*
X00738Y01309*
X00739Y01308*
X0074Y01307*
X00741Y01305*
X00742Y01304*
X00743Y01302*
X00741Y01291*
X00739Y01292*
X00735Y01296*
X00734Y01296*
X00733Y01297*
X00733Y01297*
X00732Y01297*
X00732Y01297*
X00736Y01316*
X00736Y01315*
G37*
G36*
X00716Y01307D02*
X00717Y01306D01*
X00717Y01305*
X00718Y01303*
X00718Y01302*
X00719Y01301*
X0072Y01299*
X00721Y01298*
X00722Y01297*
X00724Y01295*
X00718Y01287*
X0071Y01298*
X00716Y01309*
X00716Y01307*
G37*
G36*
X00642Y01319D02*
X0064Y01317D01*
X00639Y01311*
Y01259*
X00613*
X00613Y01259*
Y01278*
X00625Y0129*
Y01298*
X00627Y01302*
Y01325*
X00642*
Y01319*
G37*
G36*
X0062Y01302D02*
X00618Y013D01*
Y01296*
X00606Y01284*
Y01255*
X00574*
Y01278*
X00588Y01292*
Y01325*
X0062*
Y01302*
G37*
G36*
X00581Y01295D02*
X00581Y01294D01*
X00579*
X00565Y0128*
Y01253*
X00532*
Y01278*
X00535Y01281*
X00538*
X00543Y01282*
X00548Y01285*
X00554Y01291*
X00565*
Y01305*
X00566Y01306*
Y01323*
X00581*
Y01295*
G37*
G36*
X00736Y01254D02*
X00718Y01236D01*
X00718Y01238*
X00717Y0124*
X00717Y01243*
X00716Y01245*
X00715Y01247*
X00714Y01249*
X00713Y01251*
X00711Y01253*
X00709Y01255*
X00707Y01257*
X00716Y0127*
X00736Y01254*
G37*
G36*
X00456Y01239D02*
X00446D01*
X00445Y01233*
X0044Y01239*
X0044Y01238*
X00439Y01239*
X00441*
X00449Y01249*
X00456Y01239*
G37*
G36*
X00598Y01229D02*
Y01219D01*
X00595Y01216*
X00501*
Y01236*
X00591*
X00598Y01229*
G37*
G36*
X00472Y0123D02*
X00468Y01214D01*
X00465Y01216*
X0046Y0122*
X00459Y0122*
X00458Y01221*
X00457Y01221*
X00457Y01221*
X00456Y0122*
X00456Y01219*
Y01239*
X00472Y0123*
G37*
G36*
X00798Y01212D02*
X00797Y01212D01*
X00797Y01211*
X00796Y0121*
X00796Y01209*
X00795Y01208*
X00795Y01207*
X00795Y01206*
X00795Y01204*
X00795Y01202*
X00785*
X00784Y01204*
X00784Y01207*
X00784Y01208*
X00783Y01209*
X00783Y0121*
X00782Y01211*
X00782Y01212*
X00781Y01212*
X0078Y01212*
X00799*
X00798Y01212*
G37*
G36*
X00996Y01266D02*
Y0123D01*
X01001*
X01024Y01207*
Y012*
X00935*
X00935Y012*
X00918Y01217*
Y01309*
X00953*
X00996Y01266*
G37*
G36*
X0132Y01228D02*
Y01212D01*
X0131Y01203*
X01303Y01196*
X01292*
X01291Y01198*
X01286Y01201*
X0128Y01202*
X01278*
X01273Y01203*
X01268Y01202*
X01245*
Y01263*
X01285*
X0132Y01228*
G37*
G36*
X00736Y01204D02*
X00736Y01204D01*
X00735Y01204*
X00734Y01203*
X00731Y012*
X00719Y01189*
X00707Y01198*
X00709Y012*
X00711Y01203*
X00713Y01205*
X00714Y01207*
X00715Y01209*
X00716Y01211*
X00717Y01213*
X00717Y01215*
X00718Y01217*
X00718Y0122*
X00736Y01204*
G37*
G36*
X00828Y01198D02*
X00817Y01187D01*
X00806Y01197*
X00816Y01208*
X00828Y01198*
G37*
G36*
X01343Y01197D02*
X01342Y01195D01*
X01341Y01193*
X0134Y01191*
X0134Y01189*
X01345Y01186*
X01343Y01181*
X01343Y01181*
X01345Y01179*
X0134Y01174*
X01334Y01161*
X01334Y01162*
X01333Y01164*
X01333Y01166*
X01332Y01168*
X01331Y01169*
X0133Y01171*
X0133Y01172*
X01328Y01172*
X01326Y01173*
X01324Y01173*
X01322Y01173*
X0132Y01172*
X01319Y01171*
X01317Y0117*
X01316Y01168*
X01315Y01166*
X01315Y01163*
X01314Y01161*
X01314Y01159*
X01314Y01157*
X01295Y01172*
X01313Y01188*
X01317Y01184*
X01319Y01194*
X01345Y01199*
X01343Y01197*
G37*
G36*
X01137Y01162D02*
X01149Y01128D01*
X01147Y0113*
X01146Y01131*
X01144Y01132*
X01143Y01133*
X01142Y01133*
X01141Y01133*
X0114Y01132*
X01139Y01131*
X01139Y01129*
X01139Y01127*
X01124Y01138*
X01124Y01141*
X01123Y01144*
X01123Y01147*
X01122Y0115*
X01121Y01152*
X0112Y01155*
X01119Y01157*
X01117Y01159*
X01115Y01162*
X01113Y01164*
X01137Y01162*
G37*
G36*
X01389Y01133D02*
X01389Y01124D01*
X0139Y01123*
X0139Y01122*
X0139Y01121*
X01391Y01121*
X01391Y0112*
X01375*
X01374Y01135*
X01389*
X01389Y01133*
G37*
G36*
X01345Y01108D02*
X01345Y01108D01*
X01345Y01107*
X01344Y01107*
X01342Y01105*
X01334Y01097*
X01323Y01108*
X01325Y0111*
X01332Y01118*
X01333Y01119*
X01333Y0112*
X01334Y0112*
X01334Y01121*
X01345Y01108*
G37*
G36*
X00865Y01172D02*
Y01098D01*
X00857Y01089*
X00853Y01091*
Y01091*
X00831*
X00828Y01091*
X00826Y01091*
X00803*
Y01068*
X00803Y01066*
X00803Y01063*
Y01048*
X00779*
Y01132*
X00795Y01149*
X00796Y01149*
Y01149*
X00796Y01149*
X00807Y0116*
X00809Y01163*
X0081Y01164*
X00811*
X00819Y01165*
X00825Y01168*
X00829Y01171*
X00831Y01172*
X00836Y01178*
X00848*
Y01182*
X00853Y01184*
X00865Y01172*
G37*
G36*
X01598Y01095D02*
X01598Y0109D01*
X01598Y01089*
X01599Y01088*
X01599Y01087*
X01599Y01087*
X016Y01086*
X016Y01086*
X0158*
X0158Y01086*
X0158Y01087*
X01581Y01087*
X01581Y01088*
X01581Y01089*
X01582Y0109*
X01582Y01091*
X01582Y01095*
X01582Y01097*
X01598*
X01598Y01095*
G37*
G36*
X00832Y01085D02*
X00831Y01085D01*
X0083Y01085*
X00829Y01084*
X00829Y01084*
X00829Y01083*
X00829Y01082*
X0083Y01081*
X00831Y0108*
X00832Y01079*
X00819Y01078*
X00817Y0108*
X00816Y01081*
X00814Y01082*
X00813Y01083*
X00812Y01084*
X0081Y01084*
X00809Y01085*
X00807Y01085*
X00806Y01085*
X00805Y01085*
X00833*
X00832Y01085*
G37*
G36*
X00313Y01191D02*
X0038D01*
X00384Y01187*
X00383Y01185*
X00384Y01177*
X00386Y01173*
Y01155*
X00395*
X004Y0115*
X00399Y01147*
X00401Y01139*
X00402Y01137*
Y01098*
X0038Y01076*
X00117*
Y01246*
X00313*
Y01191*
G37*
G36*
X01228Y01193D02*
X01229D01*
Y01187*
X0128*
Y01173*
X0128Y01173*
X0128Y01172*
Y01171*
X0128Y0117*
X0128Y0117*
Y01137*
Y01107*
X01283*
X01284Y01106*
X01289Y01099*
X01301Y01087*
X013Y01082*
X01273*
Y01072*
X01204*
Y01126*
X01202Y01133*
X01198Y01139*
X01172Y01165*
Y01184*
X01166*
X01166Y01185*
X01164Y01193*
X0116Y012*
X01153Y01204*
X01145Y01206*
X01136Y01204*
X01129Y012*
X01127Y01196*
X01121Y01195*
X01113Y01203*
X0111Y01205*
X01107Y01207*
X01107*
X01107Y01207*
X01103Y01208*
X01099Y01208*
X01088*
X01044Y01252*
Y01263*
X01228*
Y01193*
G37*
G36*
X01046Y01169D02*
X01046Y01169D01*
Y01169*
X01048Y01167*
X01052Y01164*
X01052Y01164*
X01052Y01164*
X01055Y01163*
X01058Y01162*
X01058*
X01058Y01162*
X01062Y01161*
X01066Y01161*
X01066Y01161*
X01066Y01161*
X01088*
X01097Y01151*
X01098Y01151*
X01098Y01151*
X01098Y0115*
X011Y01148*
X01101Y01147*
X01101Y01146*
X01102Y01145*
X01102Y01144*
X01103Y01143*
X01103Y01142*
X01103Y01141*
X01103Y0114*
X01104Y01138*
X01104Y01137*
Y01127*
X01105Y0112*
X01106Y01117*
Y01088*
Y01072*
X00952*
Y0118*
X01024*
X01031Y01181*
X01033Y01182*
X01046Y01169*
G37*
G36*
X016Y01267D02*
Y01259D01*
X01603Y01255*
X01603Y01254*
X01608Y01248*
X01614Y01243*
X01615Y01243*
X01616Y01242*
X01617*
X01622Y0124*
X0163Y01239*
X01637Y0124*
X01642Y01242*
X0166*
X0168Y01222*
Y01147*
X01535*
Y01117*
X01535Y01116*
X01532Y0111*
X01532Y01106*
X01527*
Y01054*
X01491*
X01488Y01057*
X01488Y01068*
X01488Y01068*
X01488Y01068*
X01487Y01073*
X01486Y01077*
Y01085*
X01486Y01088*
X01486Y0109*
Y01113*
X0147*
X01467Y01115*
X01457Y01117*
X01454*
Y01126*
X01476Y01149*
X01482Y01157*
X01484Y01167*
Y01262*
X01484Y01262*
X01491Y0127*
X01599*
X016Y01267*
G37*
G36*
X00575Y01065D02*
X00577Y01064D01*
Y01056*
X00583Y0105*
Y01034*
X00532*
Y01049*
X00533Y0105*
X00534Y01055*
Y01065*
X00534Y01065*
Y01146*
X00575*
Y01065*
G37*
G36*
X00719Y01096D02*
Y01011D01*
X00686*
Y00977*
X00682*
Y00969*
X00663*
Y00976*
X00629*
Y01028*
X00643*
Y0105*
X00643Y01053*
X00643Y01055*
Y01078*
X00635*
Y01091*
X00638Y01094*
X007*
X00704Y01095*
X00709Y01096*
X00709Y01096*
X00709Y01096*
X00713Y01098*
X00714Y01099*
X00719Y01096*
G37*
G36*
X00718Y00987D02*
X00718Y00987D01*
X00718Y00985*
X00718Y00984*
X00718Y00984*
X00719Y00983*
X00719Y00983*
X0072Y00983*
X0072Y00983*
X00721Y00983*
X00722Y00984*
X00732Y00974*
Y00974*
X00733Y00973*
X00718Y00965*
Y00988*
X00718Y00987*
G37*
G36*
X00483Y00968D02*
X00484Y00961D01*
X00484Y0096*
X00484Y00958*
X00485Y00957*
X00485Y00957*
X00486Y00956*
X00487Y00956*
X00467*
X00467Y00956*
X00468Y00957*
X00468Y00957*
X00468Y00958*
X00468Y00963*
X00468Y00971*
X00483*
X00483Y00968*
G37*
G36*
X01423Y00957D02*
X01423Y00955D01*
X01423Y00953*
X01424Y00951*
X01425Y00949*
X01425Y00948*
X01426Y00947*
X01428Y00946*
X01429Y00945*
X0143Y00945*
X01411*
X01408Y0096*
X01423*
X01423Y00957*
G37*
G36*
X01323Y00991D02*
X01324Y00988D01*
X01324Y00985*
X01325Y00984*
X01325Y00983*
X01326Y00981*
X01328Y00978*
X01352Y00948*
Y00906*
X01169*
Y01022*
X01192Y01045*
X01323*
Y00991*
G37*
G36*
X01116Y00906D02*
X0093D01*
Y01045*
X01116*
Y00906*
G37*
G36*
X00872Y00903D02*
X00745D01*
Y00945*
X00773Y00973*
Y00986*
X00775Y00989*
X00775Y00989*
X00775Y00989*
X00776Y00992*
X00778Y00996*
Y00996*
X00778Y00996*
X00778Y01*
X00779Y01003*
X00779Y01003*
X00779Y01003*
Y01028*
X00872*
Y00903*
G37*
G36*
X01469Y01033D02*
X01533D01*
Y00978*
X01589*
Y00899*
X0145*
Y00943*
X0145Y00943*
X0145Y00944*
Y00944*
X01451Y00945*
X0145Y00946*
Y00965*
X01445*
X01442Y00969*
X01442Y00969*
X01442Y00969*
X01442Y00969*
X01441Y00973*
X01439Y00976*
X01439Y00976*
X01439Y00976*
X01437Y00979*
X01435Y00982*
X01425Y00992*
X01421Y00997*
X01418Y01*
Y01049*
X01453*
X01469Y01033*
G37*
G36*
X00608Y00976D02*
X0061Y00968D01*
X00614Y00962*
X00618Y00959*
Y00899*
X00509*
Y00974*
X00523Y00988*
X00527Y00994*
X0053Y01*
X00531Y01007*
Y01014*
X00608*
Y00976*
G37*
G36*
X00466Y00879D02*
X00467Y00878D01*
X00468Y00877*
X0047Y00876*
X00471Y00875*
X00473Y00875*
X00474Y00874*
X00475Y00874*
X00477Y00873*
X00478Y00873*
X00465Y00858*
X00465Y00859*
X00465Y00861*
X00465Y00862*
X00464Y00864*
X00464Y00865*
X00463Y00867*
X00462Y00868*
X00461Y00869*
X0046Y00871*
X00458Y00872*
X00464Y0088*
X00466Y00879*
G37*
G36*
X01687Y00856D02*
X0161D01*
Y00928*
X01687*
Y00856*
G37*
G36*
X01728Y01014D02*
X01729Y00928D01*
Y00797*
X01704Y00772*
X01623*
X01602Y00793*
Y00817*
X01614Y00829*
X01685*
X01692Y00836*
X01695Y00837*
X01702Y00841*
X01706Y00848*
X01708Y00856*
Y00928*
X01706Y00935*
X01702Y00942*
X01697Y00945*
Y00956*
X01679Y00974*
X01609*
Y00978*
X01607Y00986*
X01603Y00993*
X01596Y00997*
X01589Y00999*
X01584*
Y01035*
X016Y01051*
X01692*
X01728Y01014*
G37*
G36*
X01118Y0072D02*
X01116Y00718D01*
X01115Y00716*
X01113Y00713*
X01112Y00711*
X0111Y00709*
X0111Y00707*
X01109Y00705*
X01108Y00703*
X01108Y00701*
X01108Y00699*
Y00739*
X01108Y00737*
X01108Y00736*
X01109Y00735*
X0111Y00735*
X0111Y00735*
X01112Y00736*
X01113Y00736*
X01115Y00738*
X01116Y00739*
X01118Y00741*
Y0072*
G37*
G36*
X0041Y0072D02*
X00408Y00718D01*
X00406Y00716*
X00404Y00713*
X00403Y00711*
X00402Y00709*
X00401Y00707*
X004Y00705*
X004Y00703*
X00399Y00701*
X00399Y00699*
Y00739*
X00399Y00737*
X004Y00736*
X004Y00735*
X00401Y00735*
X00402Y00735*
X00403Y00736*
X00404Y00736*
X00406Y00738*
X00408Y00739*
X0041Y00741*
Y0072*
G37*
G36*
X01355Y00741D02*
Y0072D01*
X01353Y00718*
X01351Y00716*
X01349Y00713*
X01348Y00711*
X01347Y00709*
X01346Y00707*
X01345Y00705*
X01344Y00703*
X01344Y00701*
X01344Y00699*
Y00739*
X01344Y00737*
X01344Y00736*
X01345Y00735*
X01346Y00735*
X01347Y00735*
X01348Y00736*
X01349Y00736*
X01351Y00738*
X01353Y00739*
X01355Y00741*
G37*
G36*
X00312Y01292D02*
X00312D01*
Y0126*
X00309Y01257*
X001*
X00098Y01254*
X00097Y01246*
Y01076*
X00098Y01069*
X00098Y01068*
X00103Y01061*
X00109Y01057*
X00117Y01055*
X00215*
Y01049*
X00336*
Y0105*
X00341Y01055*
X00388*
X00422Y01089*
Y01144*
X00419Y01147*
X00421Y01152*
X00455*
X00459Y01148*
Y01091*
X00457Y01089*
Y01069*
X00423Y01035*
X00393Y01006*
Y00906*
X00282*
Y00765*
X00278*
Y00759*
X00203*
Y00757*
X00199*
Y00727*
X00125*
X00117Y00726*
X00111Y00721*
X00108Y00718*
X00106Y00715*
X00105Y00707*
Y00696*
X00075*
X00073Y00706*
X00071Y00727*
X00071Y00729*
Y00737*
Y00738*
Y00739*
Y00741*
Y00783*
Y00792*
Y00891*
Y00902*
Y00902*
Y00904*
Y00904*
Y00956*
Y00957*
Y00957*
Y00958*
Y00971*
Y01007*
Y01021*
Y01027*
Y01035*
Y01049*
Y01055*
Y01055*
Y01057*
Y01061*
Y01068*
Y01325*
X00075*
Y01327*
X00277*
X00312Y01292*
G37*
G36*
X01589Y00727D02*
X01587Y0072D01*
Y00645*
X01589Y00638*
Y00581*
X01506Y00499*
X01437*
X01357Y0058*
X01331*
X01325Y00583*
X0131Y00587*
X01295Y00589*
X01279Y00587*
X01264Y00583*
X01258Y0058*
X0121*
Y00664*
X01192Y00678*
X01188*
X01188Y00682*
X01185Y00689*
X0118Y00695*
X01174Y007*
X01172Y00701*
Y00706*
X01166*
Y00713*
X0117Y00717*
X01175Y00725*
X01177Y00734*
Y00738*
X01304*
Y00675*
X01305*
Y00675*
X01357*
X01357Y00675*
X01364*
Y00683*
X01371Y0069*
Y00705*
X01404Y00738*
X01589*
Y00727*
G37*
G36*
X0064Y0068D02*
X00545Y00585D01*
X00535Y00587*
X0052Y00589*
X00504Y00587*
X00489Y00583*
X00475Y00576*
X00463Y00566*
X00453Y00554*
X00446Y0054*
X00442Y00525*
X0044Y0051*
X00441Y00503*
X00437Y005*
X00335*
X00334Y00499*
X003*
X00221Y00577*
Y00738*
X0036*
Y00675*
X00367*
X00367Y00675*
X00412*
X00412Y00675*
X00419*
Y00683*
X0043Y00693*
Y00712*
X0044Y00722*
X00445Y00728*
X00448Y00734*
X00448Y00738*
X0064*
Y0068*
G37*
G36*
X01152Y00682D02*
X01152Y00682D01*
X01153Y00682*
X01153Y00682*
X01154Y00682*
X01155Y00681*
X01156Y00681*
X01158Y00681*
X0116Y00681*
Y00669*
X01158Y00669*
X01155Y00669*
X01154Y00669*
X01153Y00669*
X01153Y00669*
X01152Y00668*
X01152Y00668*
X01152Y00668*
Y00683*
X01152Y00682*
G37*
G36*
X01691Y00645D02*
X01608D01*
Y0072*
X01691*
Y00645*
G37*
G36*
X00199Y00635D02*
X00125D01*
Y00707*
X00199*
Y00635*
G37*
G36*
X01068Y00675D02*
X0107D01*
Y00599*
X00969Y00499*
X00801*
X00783Y00521*
X00782Y00525*
X00778Y0054*
X00771Y00554*
X00761Y00566*
X00749Y00576*
X00735Y00583*
X00729Y00585*
X007Y0062*
Y00738*
X01068*
Y00675*
G37*
%LNflexnodepcb_copper_signal_top-2*%
%LPC*%
G36*
X00197Y00904D02*
X00189D01*
X00188Y00904*
X00187Y00904*
X00185Y00904*
X00182Y00904*
X00181Y00904*
X0018Y00904*
X00168*
X00167Y00904*
X00166Y00904*
X00164Y00904*
X00161Y00904*
X0016Y00904*
X00159Y00904*
X00143*
X00142Y00904*
X00141Y00904*
X00139Y00904*
X00136Y00904*
X00135Y00904*
X00134Y00904*
X00117*
X00109Y00903*
X00104Y00899*
X00103Y00898*
X00098Y00892*
X00097Y00884*
Y0081*
X00098Y00802*
X00103Y00796*
X00107Y00792*
Y00783*
X00208*
Y00793*
X00211Y00796*
X00216Y00802*
X00217Y0081*
Y00884*
X00216Y00892*
X00211Y00898*
X0021Y00899*
X00209Y009*
X00208Y00901*
X00205Y00903*
X00197Y00904*
G37*
%LNflexnodepcb_copper_signal_top-3*%
%LPD*%
G36*
X00197Y0081D02*
X00117D01*
Y00884*
X00134*
X00139Y00883*
X00143Y00884*
X00159*
X00164Y00883*
X00168Y00884*
X0018*
X00185Y00883*
X00189Y00884*
X00197*
Y0081*
G37*
G54D10*
X00127Y01979D02*
D01*
D01*
G75*
G03X00097Y01949I-0J-00029D01*
G74*G01*
X00095Y01847D02*
D01*
D01*
G75*
G03X00097Y01849I-0J00001D01*
G74*G01*
X00154Y01905D02*
D01*
D01*
G75*
G03X00142Y01918I-00012J0D01*
G74*G01*
X00097Y01946D02*
Y01949D01*
X01407Y01853D02*
X01408Y01852D01*
X01407Y01853D02*
Y01884D01*
X01406Y01885D02*
X01407Y01884D01*
X01377D02*
X01378Y01885D01*
X01377Y01853D02*
Y01884D01*
X01376Y01852D02*
X01377Y01853D01*
X00097Y01849D02*
Y01918D01*
X00142*
X01138Y01718D02*
X01139Y01718D01*
Y01718D02*
Y01718D01*
X00985Y01772D02*
Y0186D01*
X00985Y01772D02*
X00985Y01772D01*
X00845Y01833D02*
X00846Y01834D01*
X01015Y0189D02*
Y01926D01*
X01014Y01889D02*
X01015Y0189D01*
X01014Y0186D02*
Y01889D01*
G54D11*
X00285Y01683D02*
D01*
D01*
G75*
G03X00282Y0168I0J-00002D01*
G74*G01*
X00427Y01332D02*
D01*
D01*
G75*
G03X0043Y01335I0J00002D01*
G74*G01*
X00282Y01635D02*
Y0168D01*
X01408Y0145D02*
X01426D01*
Y01419D02*
X01427Y0142D01*
X0139Y01419D02*
X01426D01*
X0139Y01419D02*
X0139Y01419D01*
X01426Y0145D02*
X01427Y01449D01*
X0139Y0145D02*
X01408D01*
X0139Y0145D02*
X0139Y0145D01*
X0039Y01332D02*
X00427D01*
X00431Y01419D02*
X00432Y0142D01*
X00431Y0137D02*
Y01419D01*
X0043Y01369D02*
X00431Y0137D01*
X0043Y01335D02*
X0043Y01335D01*
X0046*
X00461Y01335*
X00461Y01352D02*
Y01369D01*
Y01335D02*
X00461D01*
X00461D02*
Y01352D01*
X00461Y0137D02*
X00461Y01369D01*
X01326Y01957D02*
X01342D01*
X013D02*
X01326D01*
X0159Y0108D02*
X01593Y01077D01*
X01112Y01777D02*
Y01811D01*
X01091Y01833D02*
X01112Y01811D01*
X0156Y01102D02*
X01569Y01111D01*
Y01115*
X0156Y01075D02*
Y01102D01*
X01559Y01075D02*
X0156Y01075D01*
X0089Y01537D02*
X00905D01*
X00598Y01925D02*
Y01966D01*
X00566D02*
X00598D01*
X00597Y01925D02*
X00598Y01925D01*
X00479Y01966D02*
X00512D01*
X00479Y02007D02*
X00479Y02007D01*
X00479Y01966D02*
Y02007D01*
Y01925D02*
Y01966D01*
X0045Y02007D02*
X00479D01*
X00479Y01925D02*
X00479Y01925D01*
X0045D02*
X00479D01*
X00856Y01575D02*
X00877D01*
X01326Y01957D02*
X01326Y01957D01*
X00411Y01966D02*
X00434D01*
X00387D02*
X00411D01*
X0038Y0196D02*
Y01961D01*
Y01931D02*
Y0196D01*
X00922Y01885D02*
X0093Y01893D01*
Y01905*
X00987Y01962D02*
X01007D01*
X0093Y01905D02*
X00987Y01962D01*
X01007D02*
X01012Y01967D01*
X00384Y01962D02*
X00387Y01966D01*
X0038Y01961D02*
X00381Y01962D01*
X00384*
X00364Y01915D02*
X0038Y01931D01*
X00362Y01915D02*
X00364D01*
X00291Y02003D02*
X00301D01*
X00273Y01984D02*
X00291Y02003D01*
X00245Y01984D02*
X00273D01*
X00245D02*
Y01985D01*
X00242Y01987D02*
X00245Y01985D01*
X00237Y01987D02*
X00242D01*
X0021Y02014D02*
X00237Y01987D01*
X002Y02014D02*
X0021D01*
X01364Y01949D02*
X01364D01*
X01363Y01951D02*
X01364Y01949D01*
X0159Y0108D02*
Y01097D01*
X0159Y01097D02*
X0159Y01097D01*
X01342Y01957D02*
X01356D01*
X01342Y01957D02*
X01342Y01957D01*
X01363Y01951D02*
X01363D01*
X01356Y01957D02*
X01363Y01951D01*
X00923Y01834D02*
X00923Y01833D01*
G54D12*
X00382Y01399D02*
D01*
D01*
G75*
G03X00383Y01396I00007J0D01*
G74*G01*
X00359Y01697D02*
D01*
D01*
G75*
G03X00374Y01682I00015J0D01*
G74*G01*
X0033Y01697D02*
D01*
D01*
G75*
G03X00315Y01711I-00014J0D01*
G74*G01*
X00301Y01766D02*
D01*
D01*
G75*
G03X00285Y0175I0J-00016D01*
G74*G01*
X01105Y01717D02*
X01106Y01718D01*
X01067Y01716D02*
X01068Y01717D01*
X00472Y01682D02*
Y01707D01*
X00452Y01727D02*
X00472Y01707D01*
X0147Y01531D02*
X01479D01*
X0148Y01479D02*
Y01531D01*
Y01479D02*
X01504Y01455D01*
X01479Y01531D02*
X0148Y01531D01*
X01504Y01392D02*
X01505Y01391D01*
X01504Y01392D02*
Y01422D01*
X01504Y01422D02*
X01504Y01422D01*
X01504Y01422D02*
X01504Y01422D01*
Y01454*
X01505Y01455*
X01504D02*
X01505D01*
X00383Y01396D02*
X0039Y01389D01*
Y01372D02*
Y01389D01*
X00382Y01399D02*
Y0142D01*
X00332Y014D02*
Y0142D01*
X00324Y01392D02*
X00332Y014D01*
X00324Y01367D02*
Y01392D01*
X00432Y01635D02*
Y01682D01*
X00432*
X00374D02*
X00432D01*
X00285Y01711D02*
X00315D01*
X00285D02*
Y0175D01*
X00282Y01635D02*
X00332D01*
X01172Y01966D02*
X01181Y01957D01*
X01133Y01966D02*
X01172D01*
X01181Y01957D02*
X01217D01*
X01182Y01932D02*
X01211D01*
X01173Y01923D02*
X01182Y01932D01*
X01133Y01923D02*
X01173D01*
X00759Y01924D02*
Y01942D01*
X00607Y01615D02*
X00621Y01629D01*
X00352Y01876D02*
X00362D01*
X01141Y00675D02*
X0116D01*
X00628Y0203D02*
Y02051D01*
Y02009D02*
Y0203D01*
X01509Y01649D02*
X01516Y01642D01*
X01517*
X00662Y0174D02*
X00662Y0174D01*
X00672*
X00672Y0174*
X00694Y01769D02*
X00695Y0177D01*
X00662Y01769D02*
X00694D01*
X00662Y01769D02*
X00662Y01769D01*
X00662Y01769D02*
D01*
X00632D02*
X00662D01*
X00854Y02015D02*
X00855Y02015D01*
X00791Y02015D02*
X00854D01*
X00791Y02016D02*
X00791Y02015D01*
X00664Y02052D02*
X00665Y02051D01*
Y0199D02*
X00666Y01989D01*
X00628Y02051D02*
X0063Y02052D01*
X00627Y02007D02*
X00628Y02009D01*
X00484Y01882D02*
X00486Y01883D01*
X00535*
X00536Y01885*
X00537Y01905D02*
Y01923D01*
X00536Y01885D02*
X00537Y01886D01*
Y01905*
Y01923D02*
X00538Y01925D01*
X0114Y00675D02*
X01141Y00675D01*
X00785Y01979D02*
Y01989D01*
Y0197D02*
Y01979D01*
X00719Y01923D02*
X0072Y01924D01*
X00703Y01923D02*
X00719D01*
X0069Y0191D02*
X00703Y01923D01*
X0069Y01885D02*
Y0191D01*
X00607Y01613D02*
Y01615D01*
X00606Y01612D02*
X00607Y01613D01*
X00605Y01612D02*
X00606D01*
X00631Y01629D02*
X00632Y01629D01*
X00621Y01629D02*
X00631D01*
X01141Y0064D02*
X01175D01*
X01108Y00674D02*
X01109Y00675D01*
X01108Y00645D02*
Y00674D01*
X0075Y01924D02*
X00759D01*
X0074D02*
X0075D01*
X0114Y0161D02*
X01162Y01631D01*
X01165Y0163D02*
X01165Y0163D01*
X01167Y0163D02*
X01199D01*
X01166Y0163D02*
X01167Y0163D01*
X01162Y01631D02*
X01163D01*
X01165Y0163D02*
X01166D01*
X0114Y0161D02*
Y0161D01*
X01226Y01767D02*
Y01775D01*
X01226Y01767D02*
X01226Y01767D01*
X01217Y01767D02*
X01226D01*
X01205Y01755D02*
X01217Y01767D01*
X01205Y01755D02*
D01*
X01144Y01777D02*
X01182D01*
X01205Y01755*
X00759Y01942D02*
X00766Y01949D01*
X00785*
X00785Y0195*
X0078Y02016D02*
X00791D01*
X00779Y02015D02*
X0078Y02016D01*
X00643Y01966D02*
X00666Y01989D01*
X00714*
X0147Y01649D02*
X01509D01*
X01508Y01748D02*
X0151Y0175D01*
X01508Y01737D02*
Y01748D01*
X01481Y01728D02*
X01499D01*
X01508Y01737*
X00312Y01845D02*
X00343Y01876D01*
X00352*
X00352Y01876*
X00301Y01845D02*
X00312D01*
X0034Y01955D02*
X00342D01*
X00309Y01924D02*
X0034Y01955D01*
X00345Y01958D02*
Y0196D01*
X00342Y01955D02*
X00345Y01958D01*
X00301Y01924D02*
X00309D01*
X01443Y01775D02*
Y01786D01*
X01443Y01786*
X01459*
X01462Y0179*
X01464*
X01483Y01761D02*
Y01768D01*
X01481Y01759D02*
X01483Y01761D01*
X01481Y01748D02*
X01481Y01748D01*
X01483Y01768D02*
X01485Y0177D01*
X01481Y01748D02*
Y01759D01*
X0147Y01748D02*
X01481D01*
G54D13*
X00377Y01465D02*
D01*
D01*
G75*
G03X00357Y01445I0J-00020D01*
G74*G01*
X00352Y01369D02*
D01*
D01*
G75*
G03X00357Y01374I0J00005D01*
G74*G01*
X00382Y01632D02*
D01*
D01*
G75*
G03X00425Y0159I00042J0D01*
G74*G01*
X00437Y01577D02*
D01*
D01*
G75*
G03X00425Y0159I-00012J0D01*
G74*G01*
X0042Y01465D02*
D01*
D01*
G75*
G03X00437Y01482I0J00017D01*
G74*G01*
X01423Y01504D02*
X01425Y01502D01*
Y01451D02*
Y01502D01*
Y01451D02*
X01427Y01449D01*
X00386Y01366D02*
X00392Y01371D01*
X00357Y01374D02*
Y01445D01*
X00352Y01335D02*
X00357Y0134D01*
X00386Y01366*
X00382Y01632D02*
Y01635D01*
X00437Y01482D02*
Y01577D01*
X00377Y01465D02*
X0042D01*
X01375Y01669D02*
X01532D01*
X01618Y01692D02*
X0162D01*
X01544Y01658D02*
X0158D01*
X01544Y01645D02*
X01547Y01642D01*
X00995Y01673D02*
X01058Y0161D01*
X00675Y01583D02*
Y01605D01*
X01344Y01775D02*
X01344Y01775D01*
Y01799*
X01345Y018*
X00653Y01562D02*
X00675Y01583D01*
X00675Y01605D02*
X00675D01*
X00653Y01538D02*
Y01562D01*
X00674Y01605D02*
X00675D01*
X01583Y01661D02*
Y01692D01*
X01585Y01694*
X01582Y01659D02*
X01582Y01659D01*
X01582Y01659D02*
X01583Y01661D01*
X01619Y01659D02*
X0162Y01659D01*
X0158Y01658D02*
X01582Y01659D01*
X01582Y01659D02*
X01619D01*
X0137Y01675D02*
X01375Y01669D01*
X01532D02*
X01544Y01658D01*
Y01645D02*
Y01658D01*
X01058Y0161D02*
X01109D01*
X007Y01584D02*
Y016D01*
X00705Y01605*
X008Y01613D02*
Y01614D01*
X00798Y01612D02*
X008Y01613D01*
X00778Y01612D02*
X00798D01*
X00741Y01607D02*
X00746Y01612D01*
X00741Y01599D02*
Y01607D01*
X00731Y01589D02*
X00741Y01599D01*
X00693Y0155D02*
X00731Y01589D01*
X00693Y01538D02*
Y0155D01*
X00731Y01589D02*
X00731D01*
X00692Y01538D02*
X00693Y01538D01*
X01611Y0172D02*
X01617Y01714D01*
X01609Y01722D02*
X01611Y0172D01*
X01617Y01693D02*
Y01714D01*
X01587Y01722D02*
X01609D01*
X01617Y01693D02*
X01618Y01692D01*
X01586Y01724D02*
X01587Y01722D01*
X01404Y01814D02*
X01405Y01815D01*
X01404Y01776D02*
Y01814D01*
X01403Y01775D02*
X01404Y01776D01*
X01509Y0157D02*
X01509Y0157D01*
X01471Y0157D02*
X01509D01*
X0147Y01571D02*
X01471Y0157D01*
X01325Y01813D02*
X01325D01*
Y01775D02*
Y01813D01*
X00673Y01557D02*
X007Y01584D01*
X00673Y01538D02*
Y01557D01*
X01384Y01775D02*
Y01813D01*
X0138Y01817D02*
X01384Y01813D01*
X0138Y01817D02*
Y0182D01*
X00732Y01537D02*
X00791D01*
X00732Y01537D02*
X00732Y01537D01*
X00732Y01537D02*
Y01538D01*
X00712D02*
X00712Y01538D01*
Y0155*
X00737Y01575*
X0076*
X00498Y01335D02*
X005Y01337D01*
X00531*
X00531Y01337*
X00498Y0137D02*
Y0137D01*
X00504Y01376*
X00531*
G54D14*
X00705Y01949D02*
D01*
D01*
G75*
G03X00674Y01931I00008J-00050D01*
G74*G01*
X00672Y0193D02*
D01*
D01*
G75*
G03X00674Y01931I-00002J00005D01*
G74*G01*
X01213Y01842D02*
D01*
D01*
G75*
G03X01213Y01842I00001J-0D01*
G74*G01*
D01*
D01*
G75*
G03X01227Y01808I00039J-00003D01*
G74*G01*
X00704Y0197D02*
D01*
D01*
G75*
G03X00677Y01958I-0J-00038D01*
G74*G01*
X01241Y01795D02*
D01*
D01*
G75*
G03X01238Y01799I-00008J-00003D01*
G74*G01*
X01279Y01823D02*
D01*
D01*
G75*
G03X01281Y01832I-00031J00009D01*
G74*G01*
X01323Y01911D02*
X01324Y01912D01*
X01315Y01906D02*
X01321Y01911D01*
X01323*
X01324Y01912D02*
X01415D01*
X01535Y01792*
X013Y01906D02*
X01315D01*
X01535Y01725D02*
Y01792D01*
Y01509D02*
Y01577D01*
X01515Y01489D02*
X01535Y01509D01*
X0074Y01905D02*
Y01924D01*
X01202Y01882D02*
X01215Y01868D01*
Y01866D02*
Y01868D01*
X01213Y01842D02*
X01215Y01866D01*
X00705Y01949D02*
X00714Y0195D01*
X01227Y01808D02*
X01238Y01799D01*
X00613Y01988D02*
X0064D01*
X00688Y02037*
X01108Y00675D02*
X0112Y00687D01*
X00888Y01747D02*
X01024D01*
X01032Y01739*
X01161*
X01169Y01731D02*
X01185D01*
X01161Y01739D02*
X01169Y01731D01*
X01185D02*
X01187Y01729D01*
X01164Y01707D02*
X01198D01*
X01164Y01707D02*
X01164Y01707D01*
X01198D02*
X01199Y01708D01*
X01197Y01687D02*
X01199Y01689D01*
X0113Y01687D02*
X01197D01*
X01129Y01686D02*
X0113Y01687D01*
X0102Y01517D02*
X01102D01*
X00877Y0166D02*
X0102Y01517D01*
X01226Y01493D02*
Y01504D01*
X006Y0166D02*
X00877D01*
X00574Y01538D02*
Y01553D01*
Y01538D02*
X00574Y01538D01*
X01223Y0149D02*
X01226Y01493D01*
X01129Y0149D02*
X01223D01*
X01102Y01517D02*
X01129Y0149D01*
X00554Y01573D02*
Y01614D01*
X006Y0166*
X00554Y01573D02*
X00574Y01553D01*
X00578Y01588D02*
Y0162D01*
Y01567D02*
Y01588D01*
Y01567D02*
X00594Y0155D01*
X00578Y0162D02*
X00605Y01648D01*
X00587Y01906D02*
X0063Y01862D01*
X00568Y01925D02*
X00575Y01918D01*
X00582Y01906D02*
X00587D01*
X00575Y01913D02*
X00582Y01906D01*
X00575Y01913D02*
Y01918D01*
X0063Y01862D02*
X00637D01*
X00721Y01745D02*
Y01812D01*
Y01745D02*
X00722Y01745D01*
X00687Y01812D02*
X00721D01*
X00665Y01835D02*
X00666Y01833D01*
Y01822D02*
Y01833D01*
Y01822D02*
X00677D01*
X00687Y01812*
X00721D02*
X0073Y01821D01*
X00753Y01874D02*
X00763Y01885D01*
X0073Y01821D02*
Y01857D01*
X00906Y01735D02*
X00925Y01716D01*
X00945*
X00792Y0176D02*
X00817Y01735D01*
X00906*
X00945Y01716D02*
X00995D01*
X00468Y01448D02*
X00506Y01409D01*
D01*
X00468Y01448D02*
Y01614D01*
X00633Y01538D02*
Y01591D01*
X00894Y02015D02*
Y02015D01*
X00872Y02037D02*
X00894Y02015D01*
X00688Y02037D02*
X00872D01*
X00605Y01996D02*
X00613Y01988D01*
X00605Y01996D02*
Y02D01*
X00597Y02007D02*
X00605Y02D01*
X00502Y01918D02*
X00509Y01925D01*
X00502Y01914D02*
Y01918D01*
X00492Y01904D02*
X00502Y01914D01*
X00467Y01904D02*
X00492D01*
X00445Y01882D02*
X00467Y01904D01*
X00445Y01882D02*
Y01882D01*
X00779Y01919D02*
X008Y01898D01*
Y01885D02*
Y01898D01*
Y01885D02*
X00801Y01885D01*
X0073Y01857D02*
X00747Y01874D01*
X00753*
X00637Y01862D02*
X00665Y01835D01*
X00779Y01919D02*
Y01924D01*
X01512Y01489D02*
X01515D01*
X01502Y0161D02*
X01535Y01577D01*
X0147Y0161D02*
X01502D01*
X01672Y0163D02*
X01699Y0164D01*
X01701Y01642D02*
X01705Y0165D01*
X01699Y0164D02*
X01701Y01642D01*
X01582Y0163D02*
X01672D01*
X01577Y01625D02*
X01582Y0163D01*
X01577Y01625D02*
X01582D01*
X015D02*
X01577D01*
X01494Y0163D02*
X015Y01625D01*
X0147Y0163D02*
X01494D01*
X0147Y0163D02*
X0147Y0163D01*
X00797Y01612D02*
X008Y01614D01*
Y01617D02*
X00814Y01631D01*
X00872D02*
X01064Y01439D01*
X00814Y01631D02*
X00872D01*
X01305Y01503D02*
X01305Y01504D01*
X01305Y01462D02*
Y01503D01*
X01282Y01439D02*
X01305Y01462D01*
X01064Y01439D02*
X01282D01*
X01067Y01673D02*
X01071Y01669D01*
X01199*
X00715Y0188D02*
X0074Y01905D01*
X00714Y01848D02*
X00715Y01848D01*
X00704Y01835D02*
X00714Y01845D01*
X00715Y01848D02*
Y0188D01*
X00714Y01845D02*
Y01848D01*
X00891Y01904D02*
X00952Y01965D01*
Y01987D02*
X01035Y0207D01*
X00952Y01965D02*
Y01987D01*
X00891Y01814D02*
Y01904D01*
X00879Y01909D02*
X0094Y0197D01*
Y0205*
X00879Y01809D02*
Y01909D01*
X01361Y01983D02*
X01555Y0179D01*
Y01715D02*
Y0179D01*
X01529Y01689D02*
X01555Y01715D01*
X0147Y01689D02*
X01529D01*
X00525Y02035D02*
X00538Y02021D01*
X00418Y02035D02*
X00525D01*
X00345Y01961D02*
X00418Y02035D01*
X00345Y0196D02*
Y01961D01*
X0091Y01795D02*
X00925D01*
X00891Y01814D02*
X0091Y01795D01*
X00925D02*
X00955Y01765D01*
X00905Y01783D02*
X00905D01*
X00879Y01809D02*
X00905Y01783D01*
X00905D02*
X00923Y01765D01*
X0087D02*
X00888Y01747D01*
X0094Y0205D02*
X0096Y0207D01*
X01003Y01551D02*
X01199D01*
X00881Y01673D02*
X01003Y01551D01*
X01178Y01607D02*
X01196D01*
X0116Y01589D02*
X01178Y01607D01*
X01196D02*
X01199Y0161D01*
X01016Y01589D02*
X0116D01*
X00896Y01709D02*
X01016Y01589D01*
X01196Y01588D02*
X01199Y0159D01*
X01011Y01577D02*
X01165D01*
X01176Y01588D02*
X01196D01*
X01165Y01577D02*
X01176Y01588D01*
X00891Y01697D02*
X01011Y01577D01*
X01006Y01565D02*
X0117D01*
X01176Y01571*
X01199*
X00886Y01685D02*
X01006Y01565D01*
X00704Y0197D02*
X00714D01*
X01269Y0188D02*
X01282Y01867D01*
X01241Y01795D02*
X01243Y01789D01*
X01246Y01775*
X01281Y01832D02*
X01282Y01867D01*
X01269Y01789D02*
X01279Y01823D01*
X01266Y01775D02*
X01269Y01789D01*
X01317Y01831D02*
X01323D01*
X01305Y01818D02*
X01317Y01831D01*
X01323D02*
X01342Y0185D01*
X01305Y01776D02*
Y01818D01*
X01293Y01823D02*
X01318Y01849D01*
Y01858*
X01321Y0186*
X01293Y01799D02*
Y01823D01*
X01285Y01775D02*
X01288Y01778D01*
Y01794D02*
X01293Y01799D01*
X01288Y01778D02*
Y01794D01*
X0065Y01885D02*
Y01885D01*
X0063Y01904D02*
X0065Y01885D01*
X0063Y01904D02*
Y01921D01*
X00627Y01925D02*
X0063Y01921D01*
X01285Y01478D02*
Y01504D01*
X01258Y01451D02*
X01285Y01478D01*
X0106Y0147D02*
X01079Y01451D01*
X0106Y0147D02*
Y01472D01*
X01079Y01451D02*
X01258D01*
X00872Y01648D02*
X01023Y01497D01*
X01062*
X00605Y01648D02*
X00872D01*
X00594Y01538D02*
Y0155D01*
X01266Y01476D02*
Y01504D01*
X01253Y01463D02*
X01266Y01476D01*
X01062Y01497D02*
X01096Y01463D01*
X01253*
X01243Y01501D02*
X01246Y01504D01*
X01095Y01492D02*
Y01495D01*
X01243Y01485D02*
Y01501D01*
X01233Y01475D02*
X01243Y01485D01*
X01095Y01492D02*
X01112Y01475D01*
X01233*
X00601Y01577D02*
X00607Y01571D01*
X00614Y01538D02*
Y0155D01*
X00607Y01556D02*
Y01571D01*
Y01556D02*
X00614Y0155D01*
X0112Y00687D02*
Y007D01*
X01145Y01167D02*
Y01185D01*
X0112Y007D02*
X01154Y00734D01*
X01145Y01167D02*
X01185Y01126D01*
X01154Y00734D02*
Y01029D01*
X01185Y0106*
Y01126*
X00904Y01721D02*
X00995Y01629D01*
X01008D02*
X01008Y01628D01*
X00995Y01629D02*
X01008D01*
X00574Y01721D02*
X00904D01*
X00468Y01614D02*
X00574Y01721D01*
X00506Y01409D02*
X00519Y01396D01*
X00531*
X00543*
X00556Y01409*
Y01422*
X00543Y01435D02*
X00556Y01422D01*
X00531Y01435D02*
X00543D01*
X00556Y01449*
Y01461*
X00543Y01475D02*
X00556Y01461D01*
X00531Y01475D02*
X00543D01*
X01305Y01776D02*
X01305Y01775D01*
X00517Y01595D02*
X00595Y01673D01*
X00517Y01517D02*
X0052Y01514D01*
X00517Y01517D02*
Y01595D01*
X0052Y01514D02*
X00531D01*
X00493Y01481D02*
Y01606D01*
X00583Y01697*
X0048Y01455D02*
Y0161D01*
X00579Y01709*
X0048Y01455D02*
X00517Y01417D01*
X00579Y01709D02*
X00896D01*
X00505Y01508D02*
X00519Y01495D01*
X00588Y01685D02*
X00886D01*
X00505Y01601D02*
X00588Y01685D01*
X00505Y01508D02*
Y01601D01*
X00583Y01697D02*
X00891D01*
X00517Y01417D02*
X00517D01*
X00519Y01416*
X00531*
X00493Y01481D02*
X00518Y01455D01*
X00595Y01673D02*
X00881D01*
X013Y01983D02*
X01361D01*
X00531Y01495D02*
X00531Y01494D01*
X00519Y01495D02*
X00531D01*
X00518Y01455D02*
X00531D01*
X00531Y01455*
X01059Y01427D02*
X01295D01*
X00892Y01594D02*
X01059Y01427D01*
X01295D02*
X01325Y01457D01*
X01055Y01415D02*
X01307D01*
X00913Y01556D02*
X01055Y01415D01*
X01307D02*
X01344Y01452D01*
X00865Y01544D02*
X00877Y01556D01*
X00913*
X00865Y01543D02*
Y01544D01*
X00859Y01537D02*
X00865Y01543D01*
X00843Y01594D02*
X00892D01*
X01325Y01457D02*
Y01504D01*
X01344Y01452D02*
Y01504D01*
X00837Y01588D02*
X00843Y01594D01*
X00837Y01587D02*
Y01588D01*
X00825Y01575D02*
X00837Y01587D01*
X00825Y01575D02*
Y01575D01*
X00792Y01575D02*
X00825D01*
X00823Y01537D02*
X00823Y01537D01*
X00859*
X01518Y01708D02*
X01535Y01725D01*
X0147Y01708D02*
X01518D01*
G54D15*
X00754Y01147D02*
D01*
D01*
G75*
G03X00754Y01147I00006J-00006D01*
G74*G01*
X00754Y01147D02*
D01*
D01*
G75*
G03X00754Y01147I00006J-00006D01*
G74*G01*
X0144Y01114D02*
X01461D01*
X00787Y01068D02*
X00789Y01066D01*
X01102Y00714D02*
X01137Y00749D01*
X01098Y0071D02*
X01102Y00714D01*
X01137Y01042D02*
Y01061D01*
X00466Y01054D02*
X00474Y01061D01*
Y01075*
X00466Y01053D02*
Y01054D01*
X00421Y01007D02*
X00466Y01053D01*
X00474Y01075D02*
Y01154D01*
X00474Y01075D02*
X00474Y01075D01*
X00474Y01154D02*
X00474Y01154D01*
X00474Y01154D02*
Y01163D01*
X00503Y01038D02*
X0052Y01055D01*
X00503Y01007D02*
Y01038D01*
X0052Y01055D02*
Y01154D01*
X00446Y01199D02*
X00455Y01187D01*
X0053Y01161D02*
X00532Y01164D01*
X00528Y01161D02*
X0053D01*
X0052Y01154D02*
X00528Y01161D01*
X00411Y01185D02*
X00452D01*
X00474Y01163*
X00712Y00931D02*
Y00964D01*
Y00962D02*
X00728Y00978D01*
X00712Y00964D02*
X00727Y00979D01*
X00754Y01147D02*
X00776Y01169D01*
X00476Y00931D02*
Y0098D01*
X00654Y01164D02*
X00677D01*
X00501Y01266D02*
Y01279D01*
X01334Y0071D02*
X01372Y00747D01*
X00389Y0071D02*
X00421Y00741D01*
X00411Y01185D02*
X00452D01*
X01379Y01279D02*
X01382Y01276D01*
Y01234D02*
Y01276D01*
X01379Y01279D02*
X01415Y01244D01*
X0082Y01267D02*
X00824D01*
X00692Y01257D02*
Y01311D01*
Y01283D02*
X00726Y0125D01*
X00444Y01244D02*
X00495Y01201D01*
X00411Y01248D02*
X00415Y01244D01*
X00495Y01201D02*
X00501D01*
X00642*
X00453Y01236D02*
X00495Y01201D01*
X00411Y01248D02*
X00415Y01244D01*
X00444Y01244D02*
X00453Y01236D01*
X00692Y01257D02*
Y01311D01*
Y01283D02*
X00726Y0125D01*
X0082Y01267D02*
X00824D01*
X01379Y01279D02*
X01415Y01244D01*
X01382Y01234D02*
Y01276D01*
X01379Y01279D02*
X01382Y01276D01*
X00389Y0071D02*
X00421Y00741D01*
X01338Y00714D02*
X01372Y00747D01*
X01334Y0071D02*
X01338Y00714D01*
X00501Y01266D02*
Y01279D01*
X00654Y01164D02*
X00677D01*
X00476Y00931D02*
Y0098D01*
X00754Y01147D02*
X00776Y01169D01*
X00719Y00971D02*
X00727Y00979D01*
X00712Y00962D02*
X00728Y00978D01*
X00712Y00964D02*
X00719Y00971D01*
X00712Y00931D02*
Y00962D01*
X00708Y01188D02*
X00726Y01206D01*
X00698Y01188D02*
X00708D01*
X00692Y01194D02*
X00698Y01188D01*
Y01185D02*
Y01188D01*
X00677Y01164D02*
X00698Y01185D01*
X00654Y01164D02*
X00654D01*
X0065Y01164D02*
X00654Y01164D01*
X00476Y0098D02*
X00503Y01007D01*
X00532Y01164D02*
X00651D01*
X00654Y01164D02*
X00654Y01164D01*
X00651Y01164D02*
X00654Y01164D01*
X01306Y01171D02*
X01324Y01189D01*
X01306Y01164D02*
Y01171D01*
X01305Y01162D02*
X01306Y01164D01*
X01324Y01189D02*
X0134Y01174D01*
X01324Y01189D02*
X0134Y01204D01*
X01319Y01101D02*
X01327D01*
X0134Y01114*
Y0112*
X01319Y01101D02*
X01343Y01077D01*
X01305Y01115D02*
Y01131D01*
Y01115D02*
X01319Y01101D01*
X01343Y00991D02*
Y01077D01*
X01305Y01131D02*
X01305Y01131D01*
X01293Y01283D02*
X0134Y01236D01*
Y01204D02*
Y01236D01*
X01381Y01153D02*
X01382Y01153D01*
Y01171*
X01381Y01118D02*
Y01153D01*
X01382Y01153D02*
X01415Y01187D01*
X01383Y01D02*
Y01108D01*
Y01D02*
X01388Y00993D01*
X01389Y00992*
Y00992D02*
Y00992D01*
Y00992D02*
X01399Y00979D01*
X01404Y00974D02*
X01415Y00962D01*
Y00936D02*
Y00962D01*
Y00936D02*
X01421Y00931D01*
X01399Y00979D02*
X01404Y00974D01*
X01165Y01111D02*
Y01123D01*
Y01111D02*
X01167Y01109D01*
X01131Y01156D02*
X01165Y01123D01*
Y01063D02*
Y01078D01*
X01137Y00749D02*
Y01042D01*
X01143*
X01165Y01078D02*
X01167Y0108D01*
X01143Y01042D02*
X01165Y01063D01*
X0082Y01201D02*
Y01209D01*
X00811Y01192D02*
X0082Y01201D01*
X0079Y01192D02*
X00811D01*
X00751Y01003D02*
Y01144D01*
X00754Y01147*
X00776Y01169D02*
X00776D01*
X00787Y01179*
Y01189*
X0079Y01192*
Y01252D02*
Y01298D01*
X00781Y01306D02*
X0079Y01298D01*
X0082Y01267*
X00421Y00741D02*
Y01007D01*
X00642Y01201D02*
X00653Y01212D01*
Y01311*
X00415Y01244D02*
X00444D01*
X01066Y01188D02*
X01099D01*
X01013Y01241D02*
X01066Y01188D01*
X01013Y01241D02*
Y0127D01*
X00868Y01415D02*
X01013Y0127D01*
X00758Y01415D02*
X00868D01*
X01099Y01188D02*
X01131Y01156D01*
Y01127D02*
Y01156D01*
X01343Y00991D02*
X01372Y00955D01*
Y00747D02*
Y00955D01*
X01041Y01283D02*
X01293D01*
X00758Y01436D02*
X00888D01*
X00757Y01435D02*
X00758Y01436D01*
X00888D02*
X01041Y01283D01*
X00692Y01257D02*
Y01283D01*
X00727Y00979D02*
X00751Y01003D01*
X00757Y01376D02*
X00824D01*
X00838Y01362*
X01059Y01324D02*
X01332D01*
X00909Y01475D02*
X01059Y01324D01*
X00757Y01475D02*
X00909D01*
X01415Y0123D02*
Y01244D01*
X01332Y01324D02*
X01379Y01279D01*
X01379*
X00501Y01279D02*
X00517Y01295D01*
X00538*
X00549Y01305*
G54D16*
X0016Y01542D03*
Y01432D03*
G54D17*
X00282Y0142D03*
X00432Y01635D03*
X00382D03*
X00332D03*
X00282D03*
X00432Y0142D03*
X00382D03*
X00332D03*
G54D18*
X00282Y01367D03*
X00322D03*
G54D19*
X01106Y01718D03*
X01138D03*
X01112Y01777D03*
X01559Y01075D03*
X01109Y0161D03*
X01408Y01852D03*
X00674Y01605D03*
X0114Y00675D03*
X00705Y01605D03*
X01109Y00675D03*
X0159Y01075D03*
X01376Y01852D03*
X01144Y01777D03*
X0114Y0161D03*
X00539Y01266D03*
X00507D03*
G54D20*
X01067Y01716D03*
X00995Y01673D03*
Y01716D03*
X01067Y01673D03*
G54D21*
X00472Y01682D03*
X00432D03*
G54D22*
X00214Y01847D03*
Y01751D03*
Y01655D03*
X00095Y01847D03*
Y01751D03*
Y01655D03*
G54D23*
X00125Y01977D03*
X002Y0194D03*
Y02014D03*
G54D24*
X00097Y01946D03*
X00285Y01683D03*
Y01711D03*
X01427Y0142D03*
X00245Y01955D03*
X00097Y01918D03*
X01427Y01449D03*
X00245Y01984D03*
G54D25*
X0042Y01752D03*
X00524D03*
G54D26*
X01016Y01923D03*
Y01966D03*
X01133D03*
Y01923D03*
G54D27*
X00352Y01369D03*
Y01335D03*
X01505Y01358D03*
Y01391D03*
G54D28*
X0039Y01332D03*
Y01372D03*
G54D29*
X0033Y01697D03*
X00359D03*
X01547Y01645D03*
X01517D03*
X00985Y0186D03*
X01014D03*
G54D30*
X0043Y01369D03*
Y01335D03*
G54D31*
X00357Y01527D03*
G54D32*
X01602Y01213D03*
X01509Y0121D03*
X0123Y01137D03*
X00976D03*
X01066D03*
X0165Y0069D03*
X01645Y00875D03*
X00349Y01134D03*
X00256D03*
X00164Y01173D03*
Y01134D03*
X00163Y00822D03*
Y00651D03*
X00257Y01174D03*
X01645Y01166D03*
Y01048D03*
X00257Y01292D03*
X01602Y01331D03*
X01509Y01329D03*
X0123Y01019D03*
X01066D03*
X00976D03*
X01645Y00994D03*
X0165Y00809D03*
X00164Y01292D03*
Y01015D03*
X00349D03*
X00256D03*
X00163Y0094D03*
Y00769D03*
X01601Y01437D03*
Y01555D03*
G54D33*
X01145Y01236D03*
X01263D03*
G54D34*
X01092Y01236D03*
X00974D03*
G54D35*
X01496Y01112D03*
X00809Y01104D03*
Y00998D03*
X01496Y01005D03*
G54D36*
X01461Y01098D03*
X00828Y01076D03*
Y01066D03*
X01461Y01088D03*
G54D37*
X00461Y0137D03*
X00461Y01335D03*
X01108Y0064D03*
X01141D03*
X00498Y0137D03*
Y01335D03*
G54D38*
X00643Y01425D03*
G54D39*
X00531Y01357D03*
X00755Y01396D03*
X00531Y01494D03*
Y01455D03*
Y01475D03*
Y01435D03*
Y01396D03*
Y01514D03*
Y01337D03*
X00755Y01514D03*
Y01494D03*
Y01475D03*
Y01455D03*
Y01435D03*
Y01416D03*
Y01376D03*
Y01337D03*
X00531Y01376D03*
Y01416D03*
X00755Y01357D03*
G54D40*
X00585Y01232D03*
Y01263D03*
X01585Y01694D03*
X0162Y01659D03*
X0139Y01419D03*
X01585Y01725D03*
X0162Y0169D03*
X0139Y0145D03*
G54D41*
X00628Y01053D03*
X00618D03*
G54D42*
X00657Y01014D03*
X00551D03*
G54D43*
X00662Y011D03*
Y01154D03*
G54D44*
X00712Y01031D03*
Y00978D03*
X01382Y01239D03*
Y01185D03*
X0134Y01174D03*
Y0112D03*
X00692Y01256D03*
Y01203D03*
X01132Y01121D03*
Y01068D03*
X00822Y01264D03*
Y0121D03*
X00412Y01241D03*
Y01188D03*
G54D45*
X01436Y01115D03*
X01383D03*
G54D46*
X01307Y01035D03*
X01417D03*
G54D47*
X00614Y01313D03*
X00594D03*
X00673D03*
X00633Y01538D03*
X00712D03*
X00732D03*
Y01313D03*
X00712D03*
X00692D03*
X00653D03*
X00574D03*
X00633D03*
X00673Y01538D03*
X00614D03*
X00594D03*
X00555D03*
X00692D03*
X00653D03*
X00574D03*
G54D48*
X0063Y01231D03*
Y01268D03*
G54D49*
X01259Y00868D03*
X01023D03*
X00314Y00868D03*
X00787Y00785D03*
X01496Y00773D03*
X00552Y00784D03*
G54D50*
X00922Y0098D03*
X00872D03*
G54D51*
X00442Y01115D03*
X00552D03*
G54D52*
X01199Y01748D03*
Y01728D03*
Y01708D03*
Y01689D03*
Y01669D03*
Y01649D03*
Y0163D03*
Y0161D03*
Y0159D03*
Y01571D03*
Y01551D03*
Y01531D03*
X0147D03*
Y01551D03*
Y01571D03*
Y0159D03*
Y0161D03*
Y0163D03*
Y01649D03*
Y01669D03*
Y01689D03*
Y01708D03*
Y01728D03*
Y01748D03*
G54D53*
X01226Y01504D03*
X01246D03*
X01266D03*
X01285D03*
X01305D03*
X01325D03*
X01344D03*
X01364D03*
X01384D03*
X01403D03*
X01423D03*
X01443D03*
Y01775D03*
X01423D03*
X01403D03*
X01384D03*
X01364D03*
X01344D03*
X01325D03*
X01305D03*
X01285D03*
X01266D03*
X01246D03*
X01226D03*
G54D54*
X01335Y0164D03*
G54D55*
X00555Y01313D03*
G54D56*
X00434Y01966D03*
X00643D03*
G54D57*
X00509Y02007D03*
X00538D03*
X00568D03*
X00597D03*
X00568Y01925D03*
X00538D03*
X00509D03*
X0045D03*
X00479D03*
X0045Y02007D03*
X00479D03*
X00597Y01925D03*
X00627Y02007D03*
G54D58*
X00627Y01925D03*
G54D59*
X00538Y01966D03*
G54D60*
X00815Y00936D03*
X01524Y00924D03*
X01231Y00717D03*
X00286Y00717D03*
X0058Y00935D03*
X00995Y00717D03*
G54D61*
X0064Y01594D03*
Y0163D03*
X00605Y01577D03*
X00362Y01915D03*
X00605Y01612D03*
X00362Y01879D03*
G54D62*
X00632Y0174D03*
Y01769D03*
X00662D03*
Y0174D03*
X01582Y01659D03*
X00727Y01244D03*
Y01215D03*
X01417Y01227D03*
Y01197D03*
X01305Y01162D03*
Y01132D03*
X01167Y01109D03*
Y0108D03*
X0079Y01252D03*
Y01222D03*
X00447Y01229D03*
Y012D03*
X01582Y0163D03*
G54D63*
X00664Y02052D03*
X0063D03*
G54D64*
X00568Y01885D03*
X00536D03*
G54D65*
X013Y01932D03*
X01217Y01983D03*
Y01906D03*
X013Y01957D03*
Y01983D03*
X01217Y01957D03*
Y01932D03*
G54D66*
X00885Y01964D03*
X00922Y01885D03*
X00847D03*
G54D67*
X01535Y01422D03*
X01504D03*
G54D68*
X01534Y01455D03*
X01505D03*
G54D69*
X01406Y01885D03*
X01378D03*
G54D70*
X0089Y01537D03*
X00835Y01612D03*
X00856Y01575D03*
X00804Y01612D03*
X00825Y01575D03*
X00859Y01537D03*
G54D71*
X00785Y01989D03*
Y0197D03*
X00714Y01989D03*
X00785Y0195D03*
X00714D03*
Y0197D03*
G54D72*
X0072Y01924D03*
X00779Y02015D03*
X0074Y01924D03*
X00759D03*
X0072Y02015D03*
X0074D03*
X00759D03*
X00779Y01924D03*
G54D73*
X0069Y01885D03*
X00894Y02015D03*
X00665Y01835D03*
X00855Y02015D03*
X00704Y01835D03*
X00484Y01882D03*
X0065Y01885D03*
X00445Y01882D03*
G54D74*
X00766Y0188D03*
X00803D03*
G54D75*
X00778Y01612D03*
X00746D03*
X00792Y01575D03*
X0076D03*
X00791Y01537D03*
X00823D03*
G54D76*
X0038Y0196D03*
X00345D03*
G54D77*
X013Y01906D03*
G54D78*
X00712Y00936D03*
X01421Y00924D03*
X01334Y00717D03*
X00389Y00717D03*
X00477Y00935D03*
X01098Y00717D03*
G54D79*
X00214Y01752D02*
Y01802D01*
Y01847*
Y01702D02*
Y01752D01*
Y01652D02*
Y01655D01*
Y0166D02*
Y01702D01*
G54D80*
X01068Y01717D02*
X01105D01*
X00127Y01979D02*
X00161D01*
X00162Y0198*
X00245Y01954D02*
Y01955D01*
X00244Y01954D02*
X00245Y01954D01*
X0022Y01941D02*
X00232Y01954D01*
X00244*
X00201Y01941D02*
X0022D01*
X002Y0194D02*
X00201Y01941D01*
X00189Y0194D02*
X002D01*
X00154Y01905D02*
X00189Y0194D01*
G54D81*
X0151Y01329D02*
X016D01*
X01602Y01331*
X01509Y01329D02*
X0151D01*
X00884Y01965D02*
X00885Y01964D01*
X00855Y01965D02*
X00884D01*
X00923Y01834D02*
Y01885D01*
X00846Y01884D02*
X00847Y01885D01*
X00846Y01834D02*
Y01884D01*
G54D82*
X00619Y01231D02*
Y01233D01*
X00807Y01097D02*
Y01106D01*
Y01097D02*
X00828Y01076D01*
X00614Y01357D02*
X00616Y01359D01*
X00659Y01014D02*
Y01064D01*
X00651Y01072D02*
X00659Y01064D01*
X00648Y01026D02*
Y01032D01*
X00658Y01015D02*
X00659Y01014D01*
X00648Y01026D02*
X00658Y01015D01*
X00628Y01053D02*
X00628Y01053D01*
X00648Y01032*
X00618Y01053D02*
X00628Y01053D01*
X00608Y01244D02*
X00619Y01233D01*
X00592Y01256D02*
X00595D01*
X00608Y01244D02*
Y01248D01*
X00601Y01255D02*
X00608Y01248D01*
X00619Y01231D02*
X00624Y01226D01*
X00626*
X00585Y01263D02*
X00585D01*
X00592Y01256*
X0088Y0124D02*
Y01364D01*
X00847Y01396D02*
X0088Y01364D01*
Y0124D02*
X00927Y01192D01*
X01457Y01092D02*
X01461Y01088D01*
X01417Y01092D02*
X01457D01*
X01417D02*
Y01126D01*
X01458Y01167*
X00907Y01081D02*
Y01189D01*
X00859Y01236D02*
X00907Y01189D01*
X00859Y01236D02*
Y01296D01*
X00807Y00996D02*
Y01003D01*
X00846Y01043*
X00868D02*
X00907Y01081D01*
X00846Y01043D02*
X00868D01*
X00798Y01357D02*
X00859Y01296D01*
X00757Y01357D02*
X00798D01*
X00869Y00713D02*
X00897Y00746D01*
X00863Y00706D02*
X00869Y00713D01*
X00498Y01059D02*
Y01162D01*
X00485Y01046D02*
X00498Y01059D01*
X00485Y01032D02*
Y01046D01*
X00444Y00992D02*
X00485Y01032D01*
X00784Y01187D02*
X0079Y01192D01*
X01401Y01076D02*
X01441D01*
X00555Y01014D02*
Y01053D01*
Y01014D02*
Y01053D01*
X01401Y01076D02*
X01441D01*
X00784Y01187D02*
X0079Y01192D01*
X00654Y01182D02*
X00673Y01202D01*
X00515Y01182D02*
X00654Y01182D01*
X00498Y01162D02*
X00515Y01182D01*
X00444Y00893D02*
Y00992D01*
Y00893D02*
X00537Y00801D01*
X00551*
X00673Y01202D02*
Y01311D01*
X00757Y01396D02*
X00847D01*
X00927Y01062D02*
Y01192D01*
X00897Y01033D02*
X00927Y01062D01*
X00897Y00746D02*
Y01033D01*
X01362Y01087D02*
Y01243D01*
Y01087D02*
X01364Y01085D01*
X0079Y01198D02*
Y01222D01*
Y01192D02*
Y01198D01*
X01065Y01346D02*
X0135D01*
X01442Y01254*
Y01175D02*
Y01254D01*
X01401Y01134D02*
X01442Y01175D01*
X01401Y01076D02*
Y01134D01*
X01462Y01037D02*
X01496Y01003D01*
X01462Y01037D02*
X01462Y01068D01*
X01449D02*
X01462D01*
X01441Y01076D02*
X01449Y01068D01*
X00757Y01494D02*
X00916D01*
X01065Y01346*
X00712Y01299D02*
Y01311D01*
Y01299D02*
X00751Y01264D01*
X00752Y01193*
X00692Y01135D02*
X00752Y01193D01*
X00621Y01135D02*
X00692D01*
X00594Y01108D02*
X00621Y01135D01*
X00586Y01053D02*
X00594Y0106D01*
X00555Y01053D02*
X00586D01*
X00549Y01014D02*
X00555D01*
X00594Y0106D02*
Y01108D01*
X00757Y01514D02*
X00919D01*
X01071Y01362*
X0139Y00727D02*
X01411Y00706D01*
X0139Y00727D02*
Y00961D01*
X01364Y00994D02*
X0139Y00961D01*
X01411Y00706D02*
X0142D01*
X01458Y01167D02*
Y01262D01*
X01359Y01362D02*
X01458Y01262D01*
X01071Y01362D02*
X01359D01*
X00828Y01066D02*
X00835Y01059D01*
X00862*
X00891Y01088D02*
Y01182D01*
X00843Y0123D02*
X00891Y01182D01*
X00843Y0123D02*
Y01287D01*
X00862Y01059D02*
X00891Y01088D01*
X00793Y01337D02*
X00843Y01287D01*
X00757Y01337D02*
X00793D01*
X0061Y01061D02*
X00618Y01053D01*
X00618*
X00627Y01119D02*
X007D01*
X0061Y01061D02*
Y01102D01*
X00627Y01119*
X007D02*
X00768Y01187D01*
X00768Y0127D02*
X00768Y01187D01*
X00732Y01307D02*
X00768Y0127D01*
X00732Y01307D02*
Y01311D01*
X00757Y01455D02*
X00898D01*
X01049Y01305*
X01303*
X01362Y01243*
X01364Y00994D02*
Y01085D01*
G54D83*
X00095Y01801D02*
Y01847D01*
Y01707D02*
Y01755D01*
Y01801*
Y0166D02*
Y01707D01*
G54D84*
X0026Y0158D02*
Y01596D01*
X00282Y01618*
Y01635*
G54D85*
X01461Y01114D02*
X01496D01*
X01461D02*
X01461Y01112D01*
X01461Y01098*
G54D86*
X00529Y01357D02*
X00614D01*
G54D87*
X01217Y01983D02*
X01242D01*
X01217Y01983D02*
X01217Y01983D01*
X01242D02*
X01261Y01964D01*
Y01931D02*
Y01964D01*
X01247Y01907D02*
X01261Y01921D01*
X01218Y01907D02*
X01247D01*
X01261Y01931D02*
X01261Y01931D01*
X01261Y01921D02*
Y01931D01*
X013Y01931D02*
X013Y01932D01*
X01261Y01931D02*
X013D01*
X01261Y01931D02*
X01261Y01931D01*
X01217Y01906D02*
X01218Y01907D01*
G54D88*
X00757Y01416D02*
X00758Y01415D01*
G54D89*
X011Y0051D03*
X0052D03*
X01295D03*
X00705D03*
G54D90*
X0096Y0207D03*
X01035D03*
G54D91*
X00792Y0175D03*
G54D92*
X01681Y01748D03*
G54D93*
X01091Y01833D03*
X00766D03*
X00441D03*
G54D94*
X00301Y01766D03*
G54D95*
X01705Y0155D03*
Y0165D03*
Y0145D03*
G54D96*
X0161Y01819D03*
X0154Y0189D03*
X01469Y0196D03*
X01398Y02031D03*
G54D97*
X00301Y02003D03*
Y01845D03*
Y01924D03*
G54D98*
X01248Y01833D03*
X00923D03*
X00598D03*
X00845D03*
X0117D03*
X0052D03*
G54D99*
X00905Y0061D03*
X0034Y00605D03*
X0148D03*
G54D100*
X00213Y01702D03*
Y01798D03*
X00452Y01772D03*
Y0175D03*
Y01727D03*
X00435Y01737D03*
X01087Y01717D03*
X00162Y0198D03*
X00435Y01762D03*
X00185Y01642D03*
X00212Y0159D03*
X00167D03*
X00095Y01798D03*
X00096Y01702D03*
X0026Y0158D03*
X0141Y0142D03*
X01408Y0145D03*
X01377Y01868D03*
X01407D03*
X0079Y0108D03*
X0078Y01057D03*
X00561Y01227D03*
X00537D03*
X00461Y01352D03*
X00513Y01227D03*
X01505Y01248D03*
X0153D03*
X0167Y01198D03*
X01556Y01248D03*
X01646Y00912D03*
X01531Y01223D03*
X01507Y01176D03*
X01556Y01196D03*
X00816Y01164D03*
X00859Y01175D03*
X01645Y0102D03*
X0167D03*
X01617D03*
X01547Y01317D03*
X01298Y01236D03*
Y01208D03*
X01719Y01007D03*
X01094Y00985D03*
X0094Y01296D03*
X00939Y01255D03*
X01008Y01211D03*
X00955Y0122D03*
X01074Y00985D03*
X01054D03*
X01308Y00983D03*
X01288D03*
X01719Y00967D03*
X01308Y00963D03*
X01288D03*
X01248Y00983D03*
X01268D03*
X01228D03*
X01268Y00963D03*
X01248D03*
X01718Y00887D03*
Y00847D03*
Y00927D03*
Y00807D03*
X01676Y0079D03*
X01651D03*
X01626Y00791D03*
X01329Y00963D03*
X01034Y00985D03*
X01188Y00983D03*
X01014Y00985D03*
X01208Y00983D03*
X01014Y00965D03*
X00994D03*
X00974Y00985D03*
X00994D03*
X00954D03*
X00974Y00965D03*
X01094D03*
X01188Y00963D03*
X01074Y00965D03*
X01228Y00963D03*
X01208D03*
X01034Y00965D03*
X01054D03*
X00954Y00964D03*
X00254Y01267D03*
X00214Y01268D03*
X00294Y01267D03*
X00179Y01047D03*
X00174Y01268D03*
X00128Y01269D03*
X00085Y01265D03*
X00084Y01221D03*
Y01181D03*
X00083Y01101D03*
Y01141D03*
X00146Y01047D03*
X00083Y01021D03*
Y01061D03*
X00335Y00987D03*
X00315D03*
X00255D03*
X00295D03*
X00275D03*
X00355D03*
X00375D03*
X00315Y00967D03*
X00355D03*
X00375D03*
X00335D03*
X00255D03*
X00275D03*
X00228Y00978D03*
X00295Y00967D03*
X00177Y00978D03*
X00205D03*
X00147D03*
X00164Y00913D03*
X00185D03*
X00139D03*
X00114Y00991D03*
X00113Y00962D03*
X00082Y00976D03*
Y00936D03*
X00165Y00739D03*
X00141D03*
X00187Y00738D03*
X00114D03*
X00082Y00896D03*
X00081Y00816D03*
Y00856D03*
Y00736D03*
Y00776D03*
X01261Y01931D03*
X01623Y01563D03*
X01599Y01462D03*
X01602Y01426D03*
X01627Y01589D03*
X01604Y01591D03*
X01346Y01422D03*
X01164Y01707D03*
X01139Y01718D03*
X01129Y01686D03*
X00546Y01588D03*
X00578D03*
X00672Y0174D03*
X00695Y0177D03*
X00722Y01745D03*
X01645Y01392D03*
X01452Y01497D03*
X00837Y01612D03*
X00615Y01622D03*
X00628Y0203D03*
X00662Y0204D03*
X00568Y01885D03*
X00537Y01905D03*
X00675Y01605D03*
X01335Y0171D03*
X0137Y01675D03*
X013D03*
X01405Y0164D03*
X01335D03*
X0137Y01605D03*
X01265Y0164D03*
X013Y01605D03*
X01335Y0157D03*
X0105Y0163D03*
X00905Y01537D03*
X00877Y01575D03*
X0116Y00675D03*
X00785Y01979D03*
X00855Y01965D03*
X00538Y01966D03*
X00566Y01966D03*
X0069Y0191D03*
X00512Y01966D03*
X00154Y01905D03*
X01403Y01482D03*
X01512Y01489D03*
X0064Y01598D03*
X00705Y01605D03*
X01175Y0064D03*
X0075Y01924D03*
X01611Y0172D03*
X00411Y01966D03*
X00985Y01772D03*
X00923Y01765D03*
X00955D03*
X0087D03*
X01163Y01631D03*
X00568Y02021D03*
X00538D03*
X00672Y0193D03*
X00677Y01958D03*
X01202Y01882D03*
X01269Y0188D03*
X00791Y02016D03*
X00666Y01989D03*
X0106Y01472D03*
X00547Y01555D03*
X01405Y01815D03*
X01509Y0157D03*
X0149Y0159D03*
X01325Y01813D03*
X00605Y01577D03*
X01095Y01495D03*
X01345Y018D03*
X01145Y01185D03*
X01517Y01645D03*
X0151Y0175D03*
X01365Y0195D03*
X0159Y01097D03*
X01205Y01755D03*
X01008Y01628D03*
X01321Y0186D03*
X01342Y0185D03*
X0138Y0182D03*
X01464Y0179D03*
X01485Y0177D03*
X01492Y0155D03*
X01015Y0189D03*
G54D101*
X004Y01549D03*
Y01506D03*
X00357Y01549D03*
Y01506D03*
X00314Y01549D03*
Y01506D03*
G54D102*
X01282Y01387D03*
X0131D03*
X01273Y01181D03*
X01227Y01387D03*
X01255D03*
X01199Y01387D03*
X01212Y01246D03*
Y01216D03*
X01232Y01181D03*
X0119D03*
X0121Y01165D03*
X01251D03*
X01144Y01387D03*
X01185Y01246D03*
X01081Y01387D03*
X01115D03*
X01185Y01216D03*
X00705Y0145D03*
Y01405D03*
X00665Y0149D03*
Y0145D03*
X01055Y01255D03*
X00973Y01179D03*
X00665Y01365D03*
X01007Y01179D03*
X01025Y01165D03*
X00954Y01166D03*
X0099Y01165D03*
X00837Y01164D03*
X00856Y01151D03*
X00806Y01142D03*
X0083D03*
X00862Y0113D03*
X01277Y01106D03*
X0121D03*
X01078D03*
X0124D03*
X01096Y01088D03*
X01061D03*
X01498Y01068D03*
X01513Y01089D03*
X01224Y01088D03*
X01257D03*
X01007Y01106D03*
X01043D03*
X00862D03*
X00972D03*
X0099Y01088D03*
X01025D03*
X00954D03*
X00801Y01059D03*
X00673Y01064D03*
X0062Y01405D03*
X00665D03*
X0062Y0149D03*
Y0145D03*
Y01365D03*
X0058Y0145D03*
Y01405D03*
X00127Y01234D03*
X00171D03*
X00257D03*
X00301D03*
X00214D03*
X00385Y01161D03*
X00651Y01072D03*
X0037Y01098D03*
X00368Y01179D03*
X00332D03*
X0035Y01161D03*
X00348Y01088D03*
X00324Y01098D03*
X00316Y01161D03*
X00236Y01222D03*
X00279D03*
X00238Y01098D03*
X00192Y01222D03*
X00149D03*
X00194Y01098D03*
X00151D03*
X00281D03*
X00259Y01088D03*
X00173Y0109D03*
X00216Y01088D03*
X00303D03*
X00187Y00685D03*
X00185Y00858D03*
X00161D03*
X00129Y01088D03*
X00137Y00858D03*
X00163Y00685D03*
X00137D03*
X01514Y01147D03*
X01496D03*
X01623Y00911D03*
X01671D03*
X01679Y00709D03*
X01651D03*
X01623D03*
X01625Y01222D03*
X01504Y01223D03*
X0068Y01084D03*
X00691Y0105D03*
X00702Y01084D03*
X00708Y01064D03*
X00702Y01023D03*
X00595Y0128D03*
X01569Y01115D03*
X0163Y0127D03*
G54D103*
X00838Y01362D03*
X00781Y01306D03*
M02*